<?xml version="1.0" encoding="UTF-8"?> <svg xmlns="http://www.w3.org/2000/svg" width="100" height="100" viewBox="0 0 100 100" fill="none"> <path fill-rule="evenodd" clip-rule="evenodd" d="M45.915 0.0818331C45.915 0.130933 45.5882 0.163666 45.098 0.163666C44.6078 0.163666 44.281 0.196399 44.281 0.245499C44.281 0.293208 44.0087 0.327332 43.6275 0.327332C43.2462 0.327332 42.9739 0.361457 42.9739 0.409165C42.9739 0.456874 42.7016 0.490998 42.3203 0.490998C41.939 0.490998 41.6667 0.525123 41.6667 0.572831C41.6667 0.61784 41.5196 0.654664 41.3399 0.654664C41.1601 0.654664 41.0131 0.691489 41.0131 0.736498C41.0131 0.781506 40.8292 0.818331 40.6046 0.818331C40.3799 0.818331 40.1961 0.855155 40.1961 0.900164C40.1961 0.945663 39.9782 0.981997 39.7059 0.981997C39.4336 0.981997 39.2157 1.01833 39.2157 1.06383C39.2157 1.10884 39.0319 1.14566 38.8072 1.14566C38.5825 1.14566 38.3987 1.18249 38.3987 1.2275C38.3987 1.2725 38.2884 1.30933 38.1536 1.30933C38.0188 1.30933 37.9085 1.34615 37.9085 1.39116C37.9085 1.43617 37.7614 1.473 37.5817 1.473C37.402 1.473 37.2549 1.50982 37.2549 1.55483C37.2549 1.59984 37.1078 1.63666 36.9281 1.63666C36.7484 1.63666 36.6013 1.67349 36.6013 1.71849C36.6013 1.7635 36.491 1.80033 36.3562 1.80033C36.2214 1.80033 36.1111 1.83715 36.1111 1.88216C36.1111 1.92717 35.9641 1.96399 35.7843 1.96399C35.6046 1.96399 35.4575 2.00082 35.4575 2.04583C35.4575 2.09083 35.3472 2.12766 35.2124 2.12766C35.0776 2.12766 34.9673 2.16448 34.9673 2.20949C34.9673 2.2545 34.857 2.29133 34.7222 2.29133C34.5874 2.29133 34.4771 2.32815 34.4771 2.37316C34.4771 2.41817 34.3668 2.45499 34.232 2.45499C34.0972 2.45499 33.9869 2.49182 33.9869 2.53682C33.9869 2.58183 33.8766 2.61866 33.7418 2.61866C33.607 2.61866 33.4967 2.65548 33.4967 2.70049C33.4967 2.7455 33.3864 2.78232 33.2516 2.78232C33.1168 2.78232 33.0065 2.81915 33.0065 2.86416C33.0065 2.90917 32.933 2.94599 32.8431 2.94599C32.7533 2.94599 32.6797 2.98281 32.6797 3.02782C32.6797 3.07283 32.5694 3.10966 32.4346 3.10966C32.2998 3.10966 32.1895 3.14648 32.1895 3.19149C32.1895 3.2365 32.0792 3.27332 31.9444 3.27332C31.8096 3.27332 31.6993 3.31015 31.6993 3.35516C31.6993 3.40016 31.6258 3.43699 31.5359 3.43699C31.4461 3.43699 31.3726 3.47381 31.3726 3.51882C31.3726 3.56383 31.299 3.60065 31.2092 3.60065C31.1193 3.60065 31.0458 3.63748 31.0458 3.68249C31.0458 3.7275 30.9355 3.76432 30.8007 3.76432C30.6659 3.76432 30.5556 3.80115 30.5556 3.84615C30.5556 3.89116 30.482 3.92799 30.3922 3.92799C30.3023 3.92799 30.2288 3.96481 30.2288 4.00982C30.2288 4.05483 30.1185 4.09165 29.9837 4.09165C29.8489 4.09165 29.7386 4.12848 29.7386 4.17349C29.7386 4.21849 29.665 4.25532 29.5752 4.25532C29.4853 4.25532 29.4118 4.29214 29.4118 4.33715C29.4118 4.38216 29.3382 4.41899 29.2484 4.41899C29.1585 4.41899 29.085 4.45581 29.085 4.50082C29.085 4.54583 29.0114 4.58265 28.9216 4.58265C28.8317 4.58265 28.7582 4.61948 28.7582 4.66448C28.7582 4.70949 28.6846 4.74632 28.5948 4.74632C28.5049 4.74632 28.4314 4.78314 28.4314 4.82815C28.4314 4.87316 28.3578 4.90998 28.268 4.90998C28.1781 4.90998 28.1046 4.94681 28.1046 4.99182C28.1046 5.03682 27.9943 5.07365 27.8595 5.07365C27.7247 5.07365 27.6144 5.11047 27.6144 5.15548C27.6144 5.20049 27.5409 5.23732 27.451 5.23732C27.3611 5.23732 27.2876 5.27414 27.2876 5.31915C27.2876 5.36416 27.2141 5.40098 27.1242 5.40098C27.0343 5.40098 26.9608 5.43781 26.9608 5.48281C26.9608 5.52782 26.8953 5.56465 26.8154 5.56465C26.7355 5.56465 26.6171 5.6383 26.5523 5.72831C26.4873 5.81858 26.3408 5.89198 26.2255 5.89198C26.1102 5.89198 25.9636 5.96538 25.8987 6.05565C25.8339 6.14566 25.7155 6.21931 25.6355 6.21931C25.5556 6.21931 25.4902 6.25614 25.4902 6.30115C25.4902 6.34615 25.4167 6.38298 25.3268 6.38298C25.2369 6.38298 25.1634 6.4198 25.1634 6.46481C25.1634 6.50982 25.098 6.54664 25.0181 6.54664C24.9381 6.54664 24.8197 6.62029 24.7549 6.71031C24.6901 6.80033 24.5717 6.87398 24.4917 6.87398C24.4118 6.87398 24.3464 6.9108 24.3464 6.95581C24.3464 7.00082 24.281 7.03764 24.2011 7.03764C24.1211 7.03764 24.0027 7.11129 23.9379 7.20131C23.8731 7.29133 23.7628 7.36498 23.6928 7.36498C23.6228 7.36498 23.5125 7.43862 23.4477 7.52864C23.3829 7.61866 23.2645 7.69231 23.1846 7.69231C23.1047 7.69231 23.0392 7.72913 23.0392 7.77414C23.0392 7.81915 22.9738 7.85597 22.8939 7.85597C22.8139 7.85597 22.6955 7.92962 22.6307 8.01964C22.5659 8.10966 22.4556 8.18331 22.3856 8.18331C22.3156 8.18331 22.2053 8.25696 22.1405 8.34697C22.0757 8.43699 21.9721 8.51064 21.9101 8.51064C21.8483 8.51064 21.6945 8.62111 21.5686 8.75614C21.4427 8.89116 21.289 9.00164 21.2271 9.00164C21.1652 9.00164 21.0615 9.07529 20.9967 9.1653C20.9319 9.25532 20.8217 9.32897 20.7516 9.32897C20.6816 9.32897 20.5713 9.40262 20.5065 9.49263C20.4417 9.58265 20.3389 9.6563 20.2779 9.6563C20.2168 9.6563 20.0257 9.8036 19.8529 9.98363C19.6802 10.1637 19.4964 10.311 19.4444 10.311C19.3925 10.311 19.2087 10.4583 19.0359 10.6383C18.8632 10.8183 18.6803 10.9656 18.6293 10.9656C18.5784 10.9656 18.3202 11.1866 18.0556 11.4566C17.7909 11.7267 17.5333 11.9476 17.4828 11.9476C17.4325 11.9476 17.2123 12.1318 16.9935 12.3568C16.7746 12.5818 16.5562 12.766 16.5082 12.766C16.3922 12.766 12.4183 16.749 12.4183 16.8653C12.4183 16.915 12.308 17.0588 12.1732 17.1849C12.0384 17.311 11.9281 17.4576 11.9281 17.5106C11.9281 17.5636 11.781 17.7484 11.6013 17.9214C11.4216 18.0944 11.2745 18.2781 11.2745 18.3295C11.2745 18.3809 11.0907 18.6024 10.866 18.8216C10.6413 19.0408 10.4575 19.2623 10.4575 19.3137C10.4575 19.3651 10.3105 19.5488 10.1307 19.7218C9.95098 19.8948 9.80392 20.0796 9.80392 20.1326C9.80392 20.1856 9.69363 20.3322 9.55882 20.4583C9.42402 20.5844 9.31373 20.7384 9.31373 20.8003C9.31373 20.8624 9.2402 20.9662 9.15033 21.0311C9.06046 21.096 8.98693 21.2065 8.98693 21.2766C8.98693 21.3467 8.9134 21.4572 8.82353 21.5221C8.73366 21.587 8.66013 21.6975 8.66013 21.7676C8.66013 21.8377 8.5866 21.9482 8.49673 22.0131C8.40686 22.078 8.33333 22.1966 8.33333 22.2767C8.33333 22.3567 8.29657 22.4223 8.25163 22.4223C8.2067 22.4223 8.16993 22.4878 8.16993 22.5678C8.16993 22.648 8.09641 22.7665 8.00654 22.8314C7.91667 22.8963 7.84314 23.0068 7.84314 23.0769C7.84314 23.1471 7.76961 23.2575 7.67974 23.3224C7.58987 23.3873 7.51634 23.4978 7.51634 23.5679C7.51634 23.6381 7.44281 23.7485 7.35294 23.8134C7.26307 23.8783 7.18954 23.9969 7.18954 24.077C7.18954 24.157 7.15278 24.2226 7.10784 24.2226C7.06291 24.2226 7.02614 24.2881 7.02614 24.3682C7.02614 24.4483 6.95261 24.5669 6.86275 24.6318C6.77288 24.6966 6.69935 24.8152 6.69935 24.8953C6.69935 24.9754 6.66258 25.0409 6.61765 25.0409C6.57271 25.0409 6.53595 25.1146 6.53595 25.2046C6.53595 25.2946 6.49918 25.3682 6.45425 25.3682C6.40931 25.3682 6.37255 25.4338 6.37255 25.5138C6.37255 25.5939 6.29902 25.7125 6.20915 25.7774C6.11928 25.8423 6.04575 25.9609 6.04575 26.041C6.04575 26.121 6.00899 26.1866 5.96405 26.1866C5.91912 26.1866 5.88235 26.2602 5.88235 26.3502C5.88235 26.4403 5.84559 26.5139 5.80065 26.5139C5.75572 26.5139 5.71895 26.5876 5.71895 26.6776C5.71895 26.7676 5.68219 26.8412 5.63726 26.8412C5.59232 26.8412 5.55556 26.9149 5.55556 27.0049C5.55556 27.0949 5.51879 27.1686 5.47386 27.1686C5.42892 27.1686 5.39216 27.2422 5.39216 27.3322C5.39216 27.4223 5.35539 27.4959 5.31046 27.4959C5.26552 27.4959 5.22876 27.5696 5.22876 27.6596C5.22876 27.7496 5.19199 27.8232 5.14706 27.8232C5.10212 27.8232 5.06536 27.8969 5.06536 27.9869C5.06536 28.0769 5.02859 28.1506 4.98366 28.1506C4.93873 28.1506 4.90196 28.2242 4.90196 28.3142C4.90196 28.4043 4.8652 28.4779 4.82026 28.4779C4.77533 28.4779 4.73856 28.5516 4.73856 28.6416C4.73856 28.7316 4.7018 28.8052 4.65686 28.8052C4.61193 28.8052 4.57516 28.8789 4.57516 28.9689C4.57516 29.0589 4.5384 29.1326 4.49346 29.1326C4.44853 29.1326 4.41176 29.243 4.41176 29.3781C4.41176 29.5131 4.375 29.6236 4.33007 29.6236C4.28513 29.6236 4.24837 29.6972 4.24837 29.7872C4.24837 29.8772 4.2116 29.9509 4.16667 29.9509C4.12173 29.9509 4.08497 30.0245 4.08497 30.1146C4.08497 30.2046 4.0482 30.2782 4.00327 30.2782C3.95833 30.2782 3.92157 30.3887 3.92157 30.5237C3.92157 30.6588 3.8848 30.7692 3.83987 30.7692C3.79493 30.7692 3.75817 30.8429 3.75817 30.9329C3.75817 31.0229 3.72141 31.0966 3.67647 31.0966C3.63154 31.0966 3.59477 31.1702 3.59477 31.2602C3.59477 31.3502 3.55801 31.4239 3.51307 31.4239C3.46814 31.4239 3.43137 31.5344 3.43137 31.6694C3.43137 31.8044 3.39461 31.9149 3.34967 31.9149C3.30474 31.9149 3.26797 31.9885 3.26797 32.0786C3.26797 32.1686 3.23121 32.2422 3.18627 32.2422C3.14134 32.2422 3.10458 32.3527 3.10458 32.4877C3.10458 32.6227 3.06781 32.7332 3.02288 32.7332C2.97794 32.7332 2.94118 32.8437 2.94118 32.9787C2.94118 33.1137 2.90441 33.2242 2.85948 33.2242C2.81454 33.2242 2.77778 33.3347 2.77778 33.4697C2.77778 33.6047 2.74101 33.7152 2.69608 33.7152C2.65114 33.7152 2.61438 33.8257 2.61438 33.9607C2.61438 34.0957 2.57761 34.2062 2.53268 34.2062C2.48775 34.2062 2.45098 34.3535 2.45098 34.5336C2.45098 34.7136 2.41422 34.8609 2.36928 34.8609C2.32435 34.8609 2.28758 34.9345 2.28758 35.0245C2.28758 35.1146 2.25082 35.1882 2.20588 35.1882C2.16095 35.1882 2.12418 35.3355 2.12418 35.5155C2.12418 35.6956 2.08742 35.8429 2.04248 35.8429C1.99755 35.8429 1.96078 35.9902 1.96078 36.1702C1.96078 36.3502 1.92402 36.4975 1.87909 36.4975C1.83415 36.4975 1.79739 36.608 1.79739 36.743C1.79739 36.8781 1.76062 36.9885 1.71569 36.9885C1.67075 36.9885 1.63399 37.1358 1.63399 37.3159C1.63399 37.4959 1.59722 37.6432 1.55229 37.6432C1.50735 37.6432 1.47059 37.8273 1.47059 38.0524C1.47059 38.2774 1.43382 38.4615 1.38889 38.4615C1.34395 38.4615 1.30719 38.6457 1.30719 38.8707C1.30719 39.0957 1.27042 39.2799 1.22549 39.2799C1.18056 39.2799 1.14379 39.4272 1.14379 39.6072C1.14379 39.7872 1.10703 39.9345 1.06209 39.9345C1.01716 39.9345 0.980392 40.1187 0.980392 40.3437C0.980392 40.5687 0.943627 40.7529 0.898693 40.7529C0.853268 40.7529 0.816993 40.9711 0.816993 41.2439C0.816993 41.5166 0.780719 41.7349 0.735294 41.7349C0.689869 41.7349 0.653595 41.9531 0.653595 42.2259C0.653595 42.4986 0.61732 42.7169 0.571895 42.7169C0.523448 42.7169 0.490196 43.0169 0.490196 43.4534C0.490196 43.8898 0.456944 44.1899 0.408497 44.1899C0.360049 44.1899 0.326797 44.4899 0.326797 44.9263C0.326797 45.3628 0.293546 45.6628 0.245098 45.6628C0.193873 45.6628 0.163399 46.1811 0.163399 47.054C0.163399 47.9269 0.132925 48.4452 0.0816993 48.4452C0.0362745 48.4452 0 48.6634 0 48.9362C0 49.2089 0.0362745 49.4272 0.0816993 49.4272C0.13415 49.4272 0.163399 50.2182 0.163399 51.6367C0.163399 53.0551 0.192647 53.8462 0.245098 53.8462C0.293546 53.8462 0.326797 54.1462 0.326797 54.5826C0.326797 55.0191 0.360049 55.3191 0.408497 55.3191C0.456127 55.3191 0.490196 55.5919 0.490196 55.9738C0.490196 56.3557 0.524265 56.6285 0.571895 56.6285C0.61732 56.6285 0.653595 56.8467 0.653595 57.1195C0.653595 57.3922 0.689869 57.6105 0.735294 57.6105C0.780719 57.6105 0.816993 57.8287 0.816993 58.1015C0.816993 58.3742 0.853268 58.5925 0.898693 58.5925C0.943627 58.5925 0.980392 58.7766 0.980392 59.0016C0.980392 59.2267 1.01716 59.4108 1.06209 59.4108C1.10703 59.4108 1.14379 59.5949 1.14379 59.82C1.14379 60.045 1.18056 60.2291 1.22549 60.2291C1.27042 60.2291 1.30719 60.4133 1.30719 60.6383C1.30719 60.8633 1.34395 61.0475 1.38889 61.0475C1.43382 61.0475 1.47059 61.1948 1.47059 61.3748C1.47059 61.5548 1.50735 61.7021 1.55229 61.7021C1.59722 61.7021 1.63399 61.8494 1.63399 62.0295C1.63399 62.2095 1.67075 62.3568 1.71569 62.3568C1.76062 62.3568 1.79739 62.5041 1.79739 62.6841C1.79739 62.8642 1.83415 63.0115 1.87909 63.0115C1.92402 63.0115 1.96078 63.1219 1.96078 63.257C1.96078 63.392 1.99755 63.5025 2.04248 63.5025C2.08742 63.5025 2.12418 63.6498 2.12418 63.8298C2.12418 64.0098 2.16095 64.1571 2.20588 64.1571C2.25082 64.1571 2.28758 64.2676 2.28758 64.4026C2.28758 64.5376 2.32435 64.6481 2.36928 64.6481C2.41422 64.6481 2.45098 64.7586 2.45098 64.8936C2.45098 65.0286 2.48775 65.1391 2.53268 65.1391C2.57761 65.1391 2.61438 65.2496 2.61438 65.3846C2.61438 65.5196 2.65114 65.6301 2.69608 65.6301C2.74101 65.6301 2.77778 65.7406 2.77778 65.8756C2.77778 66.0106 2.81454 66.1211 2.85948 66.1211C2.90441 66.1211 2.94118 66.2316 2.94118 66.3666C2.94118 66.5016 2.97794 66.6121 3.02288 66.6121C3.06781 66.6121 3.10458 66.7226 3.10458 66.8576C3.10458 66.9926 3.14134 67.1031 3.18627 67.1031C3.23121 67.1031 3.26797 67.1768 3.26797 67.2668C3.26797 67.3568 3.30474 67.4304 3.34967 67.4304C3.39461 67.4304 3.43137 67.5409 3.43137 67.6759C3.43137 67.811 3.46814 67.9214 3.51307 67.9214C3.55801 67.9214 3.59477 68.0319 3.59477 68.1669C3.59477 68.302 3.63154 68.4124 3.67647 68.4124C3.72141 68.4124 3.75817 68.4861 3.75817 68.5761C3.75817 68.6661 3.79493 68.7398 3.83987 68.7398C3.8848 68.7398 3.92157 68.8134 3.92157 68.9034C3.92157 68.9935 3.95833 69.0671 4.00327 69.0671C4.0482 69.0671 4.08497 69.1776 4.08497 69.3126C4.08497 69.4476 4.12173 69.5581 4.16667 69.5581C4.2116 69.5581 4.24837 69.6317 4.24837 69.7218C4.24837 69.8118 4.28513 69.8854 4.33007 69.8854C4.375 69.8854 4.41176 69.9591 4.41176 70.0491C4.41176 70.1391 4.44853 70.2128 4.49346 70.2128C4.5384 70.2128 4.57516 70.2864 4.57516 70.3764C4.57516 70.4664 4.61193 70.5401 4.65686 70.5401C4.7018 70.5401 4.73856 70.6506 4.73856 70.7856C4.73856 70.9206 4.77533 71.0311 4.82026 71.0311C4.8652 71.0311 4.90196 71.1047 4.90196 71.1948C4.90196 71.2848 4.93873 71.3584 4.98366 71.3584C5.02859 71.3584 5.06536 71.4321 5.06536 71.5221C5.06536 71.6121 5.10212 71.6858 5.14706 71.6858C5.19199 71.6858 5.22876 71.7594 5.22876 71.8494C5.22876 71.9394 5.26552 72.0131 5.31046 72.0131C5.35539 72.0131 5.39216 72.0867 5.39216 72.1768C5.39216 72.2668 5.42892 72.3404 5.47386 72.3404C5.51879 72.3404 5.55556 72.4141 5.55556 72.5041C5.55556 72.5941 5.59232 72.6678 5.63726 72.6678C5.68219 72.6678 5.71895 72.7414 5.71895 72.8314C5.71895 72.9214 5.75572 72.9951 5.80065 72.9951C5.84559 72.9951 5.88235 73.0687 5.88235 73.1588C5.88235 73.2488 5.91912 73.3224 5.96405 73.3224C6.00899 73.3224 6.04575 73.388 6.04575 73.468C6.04575 73.5481 6.11928 73.6667 6.20915 73.7316C6.29902 73.7965 6.37255 73.915 6.37255 73.9952C6.37255 74.0752 6.40931 74.1407 6.45425 74.1407C6.49918 74.1407 6.53595 74.2144 6.53595 74.3044C6.53595 74.3944 6.57271 74.4681 6.61765 74.4681C6.66258 74.4681 6.69935 74.5336 6.69935 74.6137C6.69935 74.6938 6.77288 74.8124 6.86275 74.8772C6.95261 74.9421 7.02614 75.0607 7.02614 75.1408C7.02614 75.2209 7.06291 75.2864 7.10784 75.2864C7.15278 75.2864 7.18954 75.352 7.18954 75.432C7.18954 75.5121 7.26307 75.6307 7.35294 75.6956C7.44281 75.7605 7.51634 75.8709 7.51634 75.9411C7.51634 76.0112 7.58987 76.1217 7.67974 76.1866C7.76961 76.2515 7.84314 76.37 7.84314 76.4502C7.84314 76.5302 7.8799 76.5957 7.92484 76.5957C7.96977 76.5957 8.00654 76.6613 8.00654 76.7413C8.00654 76.8214 8.08007 76.94 8.16993 77.0049C8.2598 77.0698 8.33333 77.1803 8.33333 77.2504C8.33333 77.3205 8.40686 77.431 8.49673 77.4959C8.5866 77.5608 8.66013 77.6646 8.66013 77.7267C8.66013 77.7886 8.77043 77.9426 8.90523 78.0687C9.04003 78.1948 9.15033 78.3489 9.15033 78.4108C9.15033 78.4728 9.22386 78.5767 9.31373 78.6416C9.4036 78.7065 9.47712 78.8103 9.47712 78.8723C9.47712 78.9343 9.58742 79.0883 9.72222 79.2144C9.85703 79.3405 9.96732 79.4878 9.96732 79.5417C9.96732 79.5957 10.0776 79.743 10.2124 79.8691C10.3472 79.9952 10.4575 80.1417 10.4575 80.1948C10.4575 80.2477 10.6046 80.4326 10.7843 80.6056C10.9641 80.7786 11.1111 80.9627 11.1111 81.0147C11.1111 81.0668 11.2582 81.2509 11.4379 81.4239C11.6176 81.5969 11.7647 81.7805 11.7647 81.832C11.7647 81.8834 11.9485 82.1048 12.1732 82.3241C12.3979 82.5433 12.5817 82.7619 12.5817 82.8101C12.5817 82.9252 16.8846 87.234 16.9995 87.234C17.0481 87.234 17.2292 87.3813 17.402 87.5614C17.5747 87.7414 17.758 87.8887 17.8094 87.8887C17.8607 87.8887 18.0818 88.0728 18.3007 88.2979C18.5195 88.5229 18.7406 88.707 18.7919 88.707C18.8433 88.707 19.0266 88.8543 19.1993 89.0344C19.3721 89.2144 19.5559 89.3617 19.6078 89.3617C19.6598 89.3617 19.8436 89.509 20.0163 89.689C20.1891 89.8691 20.3736 90.0164 20.4265 90.0164C20.4794 90.0164 20.6257 90.1268 20.7516 90.2619C20.8775 90.3969 21.0394 90.5074 21.1112 90.5074C21.1831 90.5074 21.2418 90.5442 21.2418 90.5892C21.2418 90.6342 21.3006 90.671 21.3725 90.671C21.4443 90.671 21.6061 90.7815 21.732 90.9165C21.8579 91.0516 22.0117 91.162 22.0735 91.162C22.1355 91.162 22.2391 91.2357 22.3039 91.3257C22.3687 91.4157 22.479 91.4894 22.549 91.4894C22.619 91.4894 22.7293 91.563 22.7941 91.653C22.8589 91.743 22.9692 91.8167 23.0392 91.8167C23.1092 91.8167 23.2195 91.8903 23.2843 91.9804C23.3491 92.0704 23.4675 92.144 23.5475 92.144C23.6274 92.144 23.6928 92.1808 23.6928 92.2259C23.6928 92.2709 23.7663 92.3077 23.8562 92.3077C23.9461 92.3077 24.0196 92.3445 24.0196 92.3895C24.0196 92.4345 24.085 92.4714 24.165 92.4714C24.2449 92.4714 24.3633 92.545 24.4281 92.635C24.4929 92.725 24.6032 92.7987 24.6732 92.7987C24.7432 92.7987 24.8535 92.8723 24.9183 92.9624C24.9831 93.0524 25.0934 93.126 25.1634 93.126C25.2334 93.126 25.3437 93.1997 25.4085 93.2897C25.4733 93.3797 25.5917 93.4534 25.6717 93.4534C25.7516 93.4534 25.817 93.4902 25.817 93.5352C25.817 93.5802 25.8905 93.617 25.9804 93.617C26.0703 93.617 26.1438 93.6538 26.1438 93.6989C26.1438 93.7439 26.2173 93.7807 26.3072 93.7807C26.3971 93.7807 26.4706 93.8175 26.4706 93.8625C26.4706 93.9075 26.5441 93.9443 26.634 93.9443C26.7239 93.9443 26.7974 93.9812 26.7974 94.0262C26.7974 94.0712 26.8709 94.108 26.9608 94.108C27.0507 94.108 27.1242 94.1448 27.1242 94.1898C27.1242 94.2349 27.1977 94.2717 27.2876 94.2717C27.3775 94.2717 27.451 94.3085 27.451 94.3535C27.451 94.3985 27.5245 94.4353 27.6144 94.4353C27.7042 94.4353 27.7778 94.4722 27.7778 94.5172C27.7778 94.5622 27.8513 94.599 27.9412 94.599C28.031 94.599 28.1046 94.6358 28.1046 94.6808C28.1046 94.7259 28.1781 94.7627 28.268 94.7627C28.3578 94.7627 28.4314 94.7995 28.4314 94.8445C28.4314 94.8895 28.5049 94.9263 28.5948 94.9263C28.6846 94.9263 28.7582 94.9632 28.7582 95.0082C28.7582 95.0532 28.8317 95.09 28.9216 95.09C29.0114 95.09 29.085 95.1268 29.085 95.1718C29.085 95.2169 29.1585 95.2537 29.2484 95.2537C29.3382 95.2537 29.4118 95.2905 29.4118 95.3355C29.4118 95.3805 29.4853 95.4173 29.5752 95.4173C29.665 95.4173 29.7386 95.4542 29.7386 95.4992C29.7386 95.5442 29.8489 95.581 29.9837 95.581C30.1185 95.581 30.2288 95.6178 30.2288 95.6628C30.2288 95.7079 30.3023 95.7447 30.3922 95.7447C30.482 95.7447 30.5556 95.7815 30.5556 95.8265C30.5556 95.8715 30.6291 95.9083 30.719 95.9083C30.8088 95.9083 30.8824 95.9452 30.8824 95.9902C30.8824 96.0352 30.9926 96.072 31.1275 96.072C31.2623 96.072 31.3726 96.1088 31.3726 96.1538C31.3726 96.1989 31.4461 96.2357 31.5359 96.2357C31.6258 96.2357 31.6993 96.2725 31.6993 96.3175C31.6993 96.3625 31.7729 96.3993 31.8627 96.3993C31.9526 96.3993 32.0261 96.4362 32.0261 96.4812C32.0261 96.5262 32.1364 96.563 32.2712 96.563C32.406 96.563 32.5163 96.5998 32.5163 96.6448C32.5163 96.6898 32.6266 96.7267 32.7614 96.7267C32.8962 96.7267 33.0065 96.7635 33.0065 96.8085C33.0065 96.8535 33.0801 96.8903 33.1699 96.8903C33.2598 96.8903 33.3333 96.9272 33.3333 96.9722C33.3333 97.0172 33.4436 97.054 33.5784 97.054C33.7132 97.054 33.8235 97.0908 33.8235 97.1358C33.8235 97.1808 33.9338 97.2177 34.0686 97.2177C34.2034 97.2177 34.3137 97.2545 34.3137 97.2995C34.3137 97.3445 34.424 97.3813 34.5588 97.3813C34.6936 97.3813 34.8039 97.4182 34.8039 97.4632C34.8039 97.5082 34.951 97.545 35.1307 97.545C35.3105 97.545 35.4575 97.5818 35.4575 97.6268C35.4575 97.6718 35.5678 97.7087 35.7026 97.7087C35.8374 97.7087 35.9477 97.7455 35.9477 97.7905C35.9477 97.8355 36.058 97.8723 36.1928 97.8723C36.3276 97.8723 36.4379 97.9092 36.4379 97.9542C36.4379 97.9992 36.585 98.036 36.7647 98.036C36.9444 98.036 37.0915 98.0728 37.0915 98.1178C37.0915 98.1628 37.2386 98.1997 37.4183 98.1997C37.598 98.1997 37.7451 98.2365 37.7451 98.2815C37.7451 98.3265 37.8922 98.3633 38.0719 98.3633C38.2516 98.3633 38.3987 98.4002 38.3987 98.4452C38.3987 98.4902 38.509 98.527 38.6438 98.527C38.7786 98.527 38.8889 98.5638 38.8889 98.6088C38.8889 98.6543 39.1068 98.6907 39.3791 98.6907C39.6514 98.6907 39.8693 98.727 39.8693 98.7725C39.8693 98.8175 40.0531 98.8543 40.2778 98.8543C40.5025 98.8543 40.6863 98.8912 40.6863 98.9362C40.6863 98.9812 40.8701 99.018 41.0948 99.018C41.3194 99.018 41.5033 99.0548 41.5033 99.0998C41.5033 99.1453 41.7212 99.1817 41.9935 99.1817C42.2658 99.1817 42.4837 99.218 42.4837 99.2635C42.4837 99.3102 42.7288 99.3453 43.0556 99.3453C43.3824 99.3453 43.6275 99.3804 43.6275 99.4272C43.6275 99.4749 43.8998 99.509 44.281 99.509C44.6623 99.509 44.9346 99.5431 44.9346 99.5908C44.9346 99.6404 45.2886 99.6727 45.8333 99.6727C46.378 99.6727 46.732 99.7049 46.732 99.7545C46.732 99.8063 47.3311 99.8363 48.366 99.8363C49.4009 99.8363 50 99.8664 50 99.9182C50 99.9632 50.0735 100 50.1634 100C50.2533 100 50.3268 99.9632 50.3268 99.9182C50.3268 99.866 51.0076 99.8363 52.2059 99.8363C53.4042 99.8363 54.085 99.8067 54.085 99.7545C54.085 99.706 54.3846 99.6727 54.8203 99.6727C55.256 99.6727 55.5556 99.6394 55.5556 99.5908C55.5556 99.5431 55.8279 99.509 56.2092 99.509C56.5904 99.509 56.8627 99.4749 56.8627 99.4272C56.8627 99.3804 57.1078 99.3453 57.4346 99.3453C57.7614 99.3453 58.0065 99.3102 58.0065 99.2635C58.0065 99.218 58.2244 99.1817 58.4967 99.1817C58.769 99.1817 58.9869 99.1453 58.9869 99.0998C58.9869 99.0548 59.1708 99.018 59.3954 99.018C59.6201 99.018 59.8039 98.9812 59.8039 98.9362C59.8039 98.8907 60.0218 98.8543 60.2941 98.8543C60.5664 98.8543 60.7843 98.818 60.7843 98.7725C60.7843 98.7275 60.9314 98.6907 61.1111 98.6907C61.2909 98.6907 61.4379 98.6538 61.4379 98.6088C61.4379 98.5638 61.585 98.527 61.7647 98.527C61.9444 98.527 62.0915 98.4902 62.0915 98.4452C62.0915 98.4002 62.2386 98.3633 62.4183 98.3633C62.598 98.3633 62.7451 98.3265 62.7451 98.2815C62.7451 98.2365 62.8922 98.1997 63.0719 98.1997C63.2516 98.1997 63.3987 98.1628 63.3987 98.1178C63.3987 98.0728 63.509 98.036 63.6438 98.036C63.7786 98.036 63.8889 97.9992 63.8889 97.9542C63.8889 97.9092 64.0359 97.8723 64.2157 97.8723C64.3954 97.8723 64.5425 97.8355 64.5425 97.7905C64.5425 97.7455 64.6528 97.7087 64.7876 97.7087C64.9224 97.7087 65.0327 97.6718 65.0327 97.6268C65.0327 97.5818 65.143 97.545 65.2778 97.545C65.4126 97.545 65.5229 97.5082 65.5229 97.4632C65.5229 97.4182 65.6699 97.3813 65.8497 97.3813C66.0294 97.3813 66.1765 97.3445 66.1765 97.2995C66.1765 97.2545 66.2868 97.2177 66.4216 97.2177C66.5564 97.2177 66.6667 97.1808 66.6667 97.1358C66.6667 97.0908 66.777 97.054 66.9118 97.054C67.0466 97.054 67.1569 97.0172 67.1569 96.9722C67.1569 96.9272 67.2304 96.8903 67.3203 96.8903C67.4101 96.8903 67.4837 96.8535 67.4837 96.8085C67.4837 96.7635 67.594 96.7267 67.7288 96.7267C67.8636 96.7267 67.9739 96.6898 67.9739 96.6448C67.9739 96.5998 68.0474 96.563 68.1373 96.563C68.2271 96.563 68.3007 96.5262 68.3007 96.4812C68.3007 96.4362 68.4109 96.3993 68.5458 96.3993C68.6806 96.3993 68.7909 96.3625 68.7909 96.3175C68.7909 96.2725 68.8644 96.2357 68.9543 96.2357C69.0441 96.2357 69.1176 96.1989 69.1176 96.1538C69.1176 96.1088 69.2279 96.072 69.3627 96.072C69.4976 96.072 69.6078 96.0352 69.6078 95.9902C69.6078 95.9452 69.6814 95.9083 69.7712 95.9083C69.8611 95.9083 69.9346 95.8715 69.9346 95.8265C69.9346 95.7815 70.0082 95.7447 70.098 95.7447C70.1879 95.7447 70.2614 95.7079 70.2614 95.6628C70.2614 95.6178 70.3717 95.581 70.5065 95.581C70.6413 95.581 70.7516 95.5442 70.7516 95.4992C70.7516 95.4542 70.8252 95.4173 70.915 95.4173C71.0049 95.4173 71.0784 95.3805 71.0784 95.3355C71.0784 95.2905 71.152 95.2537 71.2418 95.2537C71.3317 95.2537 71.4052 95.2169 71.4052 95.1718C71.4052 95.1268 71.4788 95.09 71.5686 95.09C71.6585 95.09 71.732 95.0532 71.732 95.0082C71.732 94.9632 71.8056 94.9263 71.8954 94.9263C71.9853 94.9263 72.0588 94.8895 72.0588 94.8445C72.0588 94.7995 72.1324 94.7627 72.2222 94.7627C72.3121 94.7627 72.3856 94.7259 72.3856 94.6808C72.3856 94.6358 72.4592 94.599 72.549 94.599C72.6389 94.599 72.7124 94.5622 72.7124 94.5172C72.7124 94.4722 72.786 94.4353 72.8758 94.4353C72.9657 94.4353 73.0392 94.3985 73.0392 94.3535C73.0392 94.3085 73.1127 94.2717 73.2026 94.2717C73.2925 94.2717 73.366 94.2349 73.366 94.1898C73.366 94.1448 73.4395 94.108 73.5294 94.108C73.6193 94.108 73.6928 94.0712 73.6928 94.0262C73.6928 93.9812 73.7663 93.9443 73.8562 93.9443C73.9461 93.9443 74.0196 93.9075 74.0196 93.8625C74.0196 93.8175 74.0931 93.7807 74.183 93.7807C74.2729 93.7807 74.3464 93.7439 74.3464 93.6989C74.3464 93.6538 74.4119 93.617 74.4918 93.617C74.5717 93.617 74.6901 93.5434 74.7549 93.4534C74.8197 93.3633 74.93 93.2897 75 93.2897C75.07 93.2897 75.1803 93.216 75.2451 93.126C75.3099 93.036 75.4283 92.9624 75.5082 92.9624C75.5882 92.9624 75.6536 92.9255 75.6536 92.8805C75.6536 92.8355 75.7271 92.7987 75.817 92.7987C75.9069 92.7987 75.9804 92.7619 75.9804 92.7169C75.9804 92.6718 76.0458 92.635 76.1257 92.635C76.2057 92.635 76.3241 92.5614 76.3889 92.4714C76.4537 92.3813 76.5721 92.3077 76.652 92.3077C76.7319 92.3077 76.7974 92.2709 76.7974 92.2259C76.7974 92.1808 76.8628 92.144 76.9427 92.144C77.0227 92.144 77.1411 92.0704 77.2059 91.9804C77.2707 91.8903 77.381 91.8167 77.451 91.8167C77.521 91.8167 77.6313 91.743 77.6961 91.653C77.7609 91.563 77.8645 91.4894 77.9265 91.4894C77.9883 91.4894 78.1421 91.3789 78.268 91.2439C78.3939 91.1088 78.5557 90.9984 78.6275 90.9984C78.6994 90.9984 78.7582 90.9615 78.7582 90.9165C78.7582 90.8715 78.8169 90.8347 78.8888 90.8347C78.9606 90.8347 79.1225 90.7242 79.2484 90.5892C79.3743 90.4542 79.5213 90.3437 79.5752 90.3437C79.629 90.3437 79.7761 90.2332 79.902 90.0982C80.0279 89.9632 80.1742 89.8527 80.2271 89.8527C80.28 89.8527 80.4645 89.7054 80.6373 89.5254C80.81 89.3453 80.9938 89.198 81.0458 89.198C81.0977 89.198 81.2815 89.0507 81.4543 88.8707C81.627 88.6907 81.8103 88.5434 81.8617 88.5434C81.913 88.5434 82.1341 88.3592 82.3529 88.1342C82.5718 87.9092 82.7913 87.725 82.8407 87.725C82.8901 87.725 83.2956 87.3568 83.7418 86.9067C84.1881 86.4566 84.5938 86.0884 84.6435 86.0884C84.7606 86.0884 84.9673 85.8808 84.9673 85.7632C84.9673 85.6272 85.3493 85.27 85.4947 85.27C85.5641 85.27 85.6209 85.2122 85.6209 85.1415C85.6209 84.9916 85.8126 84.779 85.9477 84.779C86.0671 84.779 86.2745 84.573 86.2745 84.4544C86.2745 84.4045 86.6054 84.035 87.0098 83.6334C87.4142 83.2317 87.7451 82.8629 87.7451 82.8137C87.7451 82.7644 87.9657 82.5073 88.2353 82.2422C88.5049 81.9772 88.7255 81.7191 88.7255 81.6686C88.7255 81.6182 88.9093 81.3976 89.134 81.1784C89.3587 80.9592 89.5425 80.7304 89.5425 80.6699C89.5425 80.6093 89.616 80.5068 89.7059 80.4419C89.7958 80.377 89.8693 80.274 89.8693 80.2128C89.8693 80.1517 90.0163 79.9602 90.1961 79.7872C90.3758 79.6142 90.5229 79.4294 90.5229 79.3764C90.5229 79.3234 90.6332 79.1768 90.768 79.0507C90.9028 78.9246 91.0131 78.7706 91.0131 78.7087C91.0131 78.6466 91.0866 78.5428 91.1765 78.4779C91.2663 78.413 91.3399 78.3025 91.3399 78.2324C91.3399 78.1623 91.4134 78.0518 91.5033 77.9869C91.5931 77.922 91.6667 77.8115 91.6667 77.7414C91.6667 77.6713 91.7402 77.5608 91.8301 77.4959C91.9199 77.431 91.9935 77.3205 91.9935 77.2504C91.9935 77.1803 92.067 77.0698 92.1569 77.0049C92.2467 76.94 92.3203 76.8214 92.3203 76.7413C92.3203 76.6613 92.357 76.5957 92.402 76.5957C92.4469 76.5957 92.4837 76.5221 92.4837 76.4321C92.4837 76.3421 92.5204 76.2684 92.5654 76.2684C92.6103 76.2684 92.6471 76.2096 92.6471 76.1376C92.6471 76.0656 92.7574 75.9035 92.8922 75.7774C93.027 75.6513 93.1373 75.4892 93.1373 75.4173C93.1373 75.3453 93.174 75.2864 93.219 75.2864C93.2639 75.2864 93.3007 75.2128 93.3007 75.1227C93.3007 75.0327 93.3374 74.9591 93.3824 74.9591C93.4273 74.9591 93.4641 74.8935 93.4641 74.8135C93.4641 74.7334 93.5376 74.6148 93.6275 74.5499C93.7173 74.485 93.7909 74.3664 93.7909 74.2863C93.7909 74.2063 93.8276 74.1407 93.8726 74.1407C93.9175 74.1407 93.9543 74.0671 93.9543 73.9771C93.9543 73.8871 93.991 73.8134 94.036 73.8134C94.0809 73.8134 94.1177 73.7398 94.1177 73.6498C94.1177 73.5597 94.1544 73.4861 94.1993 73.4861C94.2443 73.4861 94.281 73.4124 94.281 73.3224C94.281 73.2324 94.3178 73.1588 94.3627 73.1588C94.4077 73.1588 94.4444 73.0851 94.4444 72.9951C94.4444 72.9051 94.4812 72.8314 94.5261 72.8314C94.5711 72.8314 94.6078 72.7659 94.6078 72.6858C94.6078 72.6057 94.6814 72.4871 94.7712 72.4223C94.8672 72.3529 94.9346 72.2104 94.9346 72.0768C94.9346 71.9518 94.9714 71.8494 95.0163 71.8494C95.0613 71.8494 95.098 71.7758 95.098 71.6858C95.098 71.5957 95.1348 71.5221 95.1797 71.5221C95.2247 71.5221 95.2614 71.4484 95.2614 71.3584C95.2614 71.2684 95.2982 71.1948 95.3431 71.1948C95.3881 71.1948 95.4248 71.1211 95.4248 71.0311C95.4248 70.9411 95.4616 70.8674 95.5065 70.8674C95.5515 70.8674 95.5882 70.7938 95.5882 70.7038C95.5882 70.6137 95.625 70.5401 95.6699 70.5401C95.7149 70.5401 95.7516 70.4296 95.7516 70.2946C95.7516 70.1596 95.7884 70.0491 95.8333 70.0491C95.8783 70.0491 95.915 69.9754 95.915 69.8854C95.915 69.7954 95.9518 69.7218 95.9967 69.7218C96.0417 69.7218 96.0784 69.6481 96.0784 69.5581C96.0784 69.4681 96.1152 69.3944 96.1601 69.3944C96.2051 69.3944 96.2418 69.284 96.2418 69.1489C96.2418 69.0139 96.2786 68.9034 96.3235 68.9034C96.3685 68.9034 96.4052 68.8298 96.4052 68.7398C96.4052 68.6498 96.442 68.5761 96.4869 68.5761C96.5319 68.5761 96.5686 68.5025 96.5686 68.4124C96.5686 68.3224 96.6054 68.2488 96.6503 68.2488C96.6953 68.2488 96.732 68.1383 96.732 68.0033C96.732 67.8682 96.7688 67.7578 96.8137 67.7578C96.8587 67.7578 96.8954 67.6841 96.8954 67.5941C96.8954 67.5041 96.9322 67.4304 96.9771 67.4304C97.0221 67.4304 97.0588 67.32 97.0588 67.1849C97.0588 67.0499 97.0956 66.9394 97.1405 66.9394C97.1855 66.9394 97.2222 66.829 97.2222 66.6939C97.2222 66.5589 97.259 66.4484 97.3039 66.4484C97.3489 66.4484 97.3856 66.338 97.3856 66.2029C97.3856 66.0679 97.4224 65.9574 97.4673 65.9574C97.5123 65.9574 97.549 65.847 97.549 65.7119C97.549 65.5769 97.5858 65.4664 97.6307 65.4664C97.6757 65.4664 97.7124 65.356 97.7124 65.2209C97.7124 65.0859 97.7492 64.9754 97.7941 64.9754C97.8391 64.9754 97.8758 64.8281 97.8758 64.6481C97.8758 64.4681 97.9126 64.3208 97.9575 64.3208C98.0025 64.3208 98.0392 64.2103 98.0392 64.0753C98.0392 63.9403 98.076 63.8298 98.1209 63.8298C98.1659 63.8298 98.2026 63.6825 98.2026 63.5025C98.2026 63.3224 98.2394 63.1751 98.2843 63.1751C98.3293 63.1751 98.366 63.0278 98.366 62.8478C98.366 62.6678 98.4028 62.5205 98.4477 62.5205C98.4927 62.5205 98.5294 62.41 98.5294 62.275C98.5294 62.1399 98.5662 62.0295 98.6111 62.0295C98.656 62.0295 98.6928 61.8822 98.6928 61.7021C98.6928 61.5221 98.7296 61.3748 98.7745 61.3748C98.8194 61.3748 98.8562 61.1907 98.8562 60.9656C98.8562 60.7406 98.893 60.5565 98.9379 60.5565C98.9828 60.5565 99.0196 60.3723 99.0196 60.1473C99.0196 59.9223 99.0564 59.7381 99.1013 59.7381C99.1467 59.7381 99.183 59.5199 99.183 59.2471C99.183 58.9744 99.2193 58.7561 99.2647 58.7561C99.3101 58.7561 99.3464 58.5379 99.3464 58.2651C99.3464 57.9924 99.3827 57.7741 99.4281 57.7741C99.4735 57.7741 99.5098 57.5559 99.5098 57.2831C99.5098 57.0104 99.5461 56.7921 99.5915 56.7921C99.64 56.7921 99.6732 56.4921 99.6732 56.0556C99.6732 55.6192 99.7065 55.3191 99.7549 55.3191C99.8048 55.3191 99.8366 54.9372 99.8366 54.3371C99.8366 53.7371 99.8684 53.3552 99.9183 53.3552C99.9714 53.3552 100 52.2095 100 50.0818C100 47.9542 99.9714 46.8085 99.9183 46.8085C99.8677 46.8085 99.8366 46.3721 99.8366 45.6628C99.8366 44.9536 99.8055 44.5172 99.7549 44.5172C99.7083 44.5172 99.6732 44.2717 99.6732 43.9444C99.6732 43.617 99.6382 43.3715 99.5915 43.3715C99.5461 43.3715 99.5098 43.1533 99.5098 42.8805C99.5098 42.6078 99.4735 42.3895 99.4281 42.3895C99.3827 42.3895 99.3464 42.1713 99.3464 41.8985C99.3464 41.6258 99.3101 41.4075 99.2647 41.4075C99.2198 41.4075 99.183 41.2234 99.183 40.9984C99.183 40.7733 99.1462 40.5892 99.1013 40.5892C99.0559 40.5892 99.0196 40.3709 99.0196 40.0982C99.0196 39.8254 98.9833 39.6072 98.9379 39.6072C98.893 39.6072 98.8562 39.4599 98.8562 39.2799C98.8562 39.0998 98.8194 38.9525 98.7745 38.9525C98.7296 38.9525 98.6928 38.8052 98.6928 38.6252C98.6928 38.4452 98.656 38.2979 98.6111 38.2979C98.5662 38.2979 98.5294 38.1506 98.5294 37.9705C98.5294 37.7905 98.4927 37.6432 98.4477 37.6432C98.4028 37.6432 98.366 37.4959 98.366 37.3159C98.366 37.1358 98.3293 36.9885 98.2843 36.9885C98.2394 36.9885 98.2026 36.8781 98.2026 36.743C98.2026 36.608 98.1659 36.4975 98.1209 36.4975C98.076 36.4975 98.0392 36.3502 98.0392 36.1702C98.0392 35.9902 98.0025 35.8429 97.9575 35.8429C97.9126 35.8429 97.8758 35.7324 97.8758 35.5974C97.8758 35.4624 97.8391 35.3519 97.7941 35.3519C97.7492 35.3519 97.7124 35.2414 97.7124 35.1064C97.7124 34.9714 97.6757 34.8609 97.6307 34.8609C97.5858 34.8609 97.549 34.7136 97.549 34.5336C97.549 34.3535 97.5123 34.2062 97.4673 34.2062C97.4224 34.2062 97.3856 34.0957 97.3856 33.9607C97.3856 33.8257 97.3489 33.7152 97.3039 33.7152C97.259 33.7152 97.2222 33.6416 97.2222 33.5516C97.2222 33.4615 97.1855 33.3879 97.1405 33.3879C97.0956 33.3879 97.0588 33.2774 97.0588 33.1424C97.0588 33.0074 97.0221 32.8969 96.9771 32.8969C96.9322 32.8969 96.8954 32.8232 96.8954 32.7332C96.8954 32.6432 96.8587 32.5696 96.8137 32.5696C96.7688 32.5696 96.732 32.4591 96.732 32.3241C96.732 32.189 96.6953 32.0786 96.6503 32.0786C96.6054 32.0786 96.5686 31.9681 96.5686 31.8331C96.5686 31.698 96.5319 31.5876 96.4869 31.5876C96.442 31.5876 96.4052 31.5139 96.4052 31.4239C96.4052 31.3339 96.3685 31.2602 96.3235 31.2602C96.2786 31.2602 96.2418 31.1498 96.2418 31.0147C96.2418 30.8797 96.2051 30.7692 96.1601 30.7692C96.1152 30.7692 96.0784 30.6956 96.0784 30.6056C96.0784 30.5155 96.0417 30.4419 95.9967 30.4419C95.9518 30.4419 95.915 30.3314 95.915 30.1964C95.915 30.0614 95.8783 29.9509 95.8333 29.9509C95.7884 29.9509 95.7516 29.8772 95.7516 29.7872C95.7516 29.6972 95.7149 29.6236 95.6699 29.6236C95.625 29.6236 95.5882 29.5499 95.5882 29.4599C95.5882 29.3699 95.5515 29.2962 95.5065 29.2962C95.4616 29.2962 95.4248 29.2226 95.4248 29.1326C95.4248 29.0426 95.3881 28.9689 95.3431 28.9689C95.2982 28.9689 95.2614 28.8953 95.2614 28.8052C95.2614 28.7152 95.2247 28.6416 95.1797 28.6416C95.1348 28.6416 95.098 28.5679 95.098 28.4779C95.098 28.3879 95.0613 28.3142 95.0163 28.3142C94.9714 28.3142 94.9346 28.2406 94.9346 28.1506C94.9346 28.0606 94.8979 27.9869 94.8529 27.9869C94.808 27.9869 94.7712 27.9133 94.7712 27.8232C94.7712 27.7332 94.7345 27.6596 94.6895 27.6596C94.6446 27.6596 94.6078 27.5859 94.6078 27.4959C94.6078 27.4059 94.5711 27.3322 94.5261 27.3322C94.4812 27.3322 94.4444 27.2586 94.4444 27.1686C94.4444 27.0786 94.4077 27.0049 94.3627 27.0049C94.3178 27.0049 94.281 26.9313 94.281 26.8412C94.281 26.7512 94.2443 26.6776 94.1993 26.6776C94.1544 26.6776 94.1177 26.6039 94.1177 26.5139C94.1177 26.4239 94.0809 26.3502 94.036 26.3502C93.991 26.3502 93.9543 26.2766 93.9543 26.1866C93.9543 26.0966 93.9175 26.0229 93.8726 26.0229C93.8276 26.0229 93.7909 25.9574 93.7909 25.8773C93.7909 25.7972 93.7173 25.6786 93.6275 25.6137C93.5376 25.5489 93.4641 25.4303 93.4641 25.3502C93.4641 25.2701 93.4273 25.2046 93.3824 25.2046C93.3374 25.2046 93.3007 25.1309 93.3007 25.0409C93.3007 24.9509 93.2639 24.8772 93.219 24.8772C93.174 24.8772 93.1373 24.8117 93.1373 24.7317C93.1373 24.6516 93.0637 24.533 92.9739 24.4681C92.884 24.4032 92.8105 24.2846 92.8105 24.2045C92.8105 24.1245 92.7737 24.0589 92.7288 24.0589C92.6838 24.0589 92.6471 23.9934 92.6471 23.9133C92.6471 23.8332 92.5735 23.7146 92.4837 23.6498C92.3938 23.5849 92.3203 23.481 92.3203 23.419C92.3203 23.357 92.21 23.203 92.0752 23.0769C91.9404 22.9508 91.8301 22.7887 91.8301 22.7168C91.8301 22.6448 91.7933 22.5859 91.7484 22.5859C91.7034 22.5859 91.6667 22.5204 91.6667 22.4403C91.6667 22.3602 91.5931 22.2417 91.5033 22.1768C91.4134 22.1119 91.3399 22.0014 91.3399 21.9313C91.3399 21.8611 91.2663 21.7507 91.1765 21.6858C91.0866 21.6209 91.0131 21.517 91.0131 21.455C91.0131 21.393 90.9028 21.239 90.768 21.1129C90.6332 20.9868 90.5229 20.8328 90.5229 20.7709C90.5229 20.7088 90.4493 20.605 90.3595 20.5401C90.2696 20.4752 90.1961 20.3722 90.1961 20.311C90.1961 20.2499 90.049 20.0584 89.8693 19.8854C89.6895 19.7124 89.5425 19.5283 89.5425 19.4763C89.5425 19.4242 89.3954 19.2401 89.2157 19.0671C89.036 18.8941 88.8889 18.71 88.8889 18.6579C88.8889 18.6059 88.7418 18.4218 88.5621 18.2488C88.3824 18.0758 88.2353 17.8928 88.2353 17.8421C88.2353 17.7913 87.9779 17.4957 87.6634 17.1849C87.3489 16.8742 87.0915 16.5812 87.0915 16.5338C87.0915 16.4202 83.4419 12.766 83.3285 12.766C83.2804 12.766 83.062 12.5818 82.8431 12.3568C82.6243 12.1318 82.4041 11.9476 82.3538 11.9476C82.3034 11.9476 82.0457 11.7267 81.781 11.4566C81.5164 11.1866 81.2583 10.9656 81.2073 10.9656C81.1563 10.9656 80.9734 10.8183 80.8007 10.6383C80.6279 10.4583 80.4368 10.311 80.3757 10.311C80.3147 10.311 80.2118 10.2373 80.1471 10.1473C80.0823 10.0573 79.9786 9.98363 79.9167 9.98363C79.8548 9.98363 79.7011 9.87316 79.5752 9.73813C79.4493 9.60311 79.2955 9.49263 79.2337 9.49263C79.1717 9.49263 79.0681 9.41898 79.0033 9.32897C78.9385 9.23895 78.8348 9.1653 78.7729 9.1653C78.711 9.1653 78.5573 9.05483 78.4314 8.9198C78.3055 8.78478 78.1517 8.6743 78.0899 8.6743C78.0279 8.6743 77.9243 8.60065 77.8595 8.51064C77.7947 8.42062 77.6844 8.34697 77.6144 8.34697C77.5444 8.34697 77.4341 8.27332 77.3693 8.18331C77.3045 8.09329 77.1942 8.01964 77.1242 8.01964C77.0542 8.01964 76.9439 7.94599 76.8791 7.85597C76.8143 7.76596 76.704 7.69231 76.634 7.69231C76.564 7.69231 76.4537 7.61866 76.3889 7.52864C76.3241 7.43862 76.2057 7.36498 76.1257 7.36498C76.0458 7.36498 75.9804 7.32815 75.9804 7.28314C75.9804 7.23813 75.9069 7.20131 75.817 7.20131C75.7271 7.20131 75.6536 7.16448 75.6536 7.11948C75.6536 7.07447 75.5882 7.03764 75.5082 7.03764C75.4283 7.03764 75.3099 6.96399 75.2451 6.87398C75.1803 6.78396 75.0619 6.71031 74.982 6.71031C74.902 6.71031 74.8366 6.67349 74.8366 6.62848C74.8366 6.58347 74.7712 6.54664 74.6913 6.54664C74.6113 6.54664 74.4929 6.47299 74.4281 6.38298C74.3633 6.29296 74.2449 6.21931 74.165 6.21931C74.0851 6.21931 74.0196 6.18249 74.0196 6.13748C74.0196 6.09247 73.9461 6.05565 73.8562 6.05565C73.7663 6.05565 73.6928 6.01882 73.6928 5.97381C73.6928 5.9288 73.6193 5.89198 73.5294 5.89198C73.4395 5.89198 73.366 5.85516 73.366 5.81015C73.366 5.76514 73.2925 5.72831 73.2026 5.72831C73.1127 5.72831 73.0392 5.69149 73.0392 5.64648C73.0392 5.60147 72.9657 5.56465 72.8758 5.56465C72.786 5.56465 72.7124 5.52782 72.7124 5.48281C72.7124 5.43781 72.6389 5.40098 72.549 5.40098C72.4592 5.40098 72.3856 5.36416 72.3856 5.31915C72.3856 5.27414 72.3121 5.23732 72.2222 5.23732C72.1324 5.23732 72.0588 5.20049 72.0588 5.15548C72.0588 5.11047 71.9853 5.07365 71.8954 5.07365C71.8056 5.07365 71.732 5.03682 71.732 4.99182C71.732 4.94681 71.6585 4.90998 71.5686 4.90998C71.4788 4.90998 71.4052 4.87316 71.4052 4.82815C71.4052 4.78314 71.3317 4.74632 71.2418 4.74632C71.152 4.74632 71.0784 4.70949 71.0784 4.66448C71.0784 4.61948 71.0049 4.58265 70.915 4.58265C70.8252 4.58265 70.7516 4.54583 70.7516 4.50082C70.7516 4.45581 70.6781 4.41899 70.5882 4.41899C70.4984 4.41899 70.4248 4.38216 70.4248 4.33715C70.4248 4.29214 70.3513 4.25532 70.2614 4.25532C70.1716 4.25532 70.098 4.21849 70.098 4.17349C70.098 4.12848 70.0245 4.09165 69.9346 4.09165C69.8448 4.09165 69.7712 4.05483 69.7712 4.00982C69.7712 3.96481 69.6609 3.92799 69.5261 3.92799C69.3913 3.92799 69.281 3.89116 69.281 3.84615C69.281 3.80115 69.2075 3.76432 69.1176 3.76432C69.0278 3.76432 68.9543 3.7275 68.9543 3.68249C68.9543 3.63748 68.844 3.60065 68.7092 3.60065C68.5743 3.60065 68.4641 3.56383 68.4641 3.51882C68.4641 3.47381 68.3538 3.43699 68.219 3.43699C68.0842 3.43699 67.9739 3.40016 67.9739 3.35516C67.9739 3.31015 67.9003 3.27332 67.8105 3.27332C67.7206 3.27332 67.6471 3.2365 67.6471 3.19149C67.6471 3.14648 67.5735 3.10966 67.4837 3.10966C67.3938 3.10966 67.3203 3.07283 67.3203 3.02782C67.3203 2.98281 67.21 2.94599 67.0752 2.94599C66.9404 2.94599 66.8301 2.90917 66.8301 2.86416C66.8301 2.81915 66.7198 2.78232 66.585 2.78232C66.4502 2.78232 66.3399 2.7455 66.3399 2.70049C66.3399 2.65548 66.2296 2.61866 66.0948 2.61866C65.96 2.61866 65.8497 2.58183 65.8497 2.53682C65.8497 2.49182 65.7394 2.45499 65.6046 2.45499C65.4698 2.45499 65.3595 2.41817 65.3595 2.37316C65.3595 2.32815 65.2492 2.29133 65.1144 2.29133C64.9796 2.29133 64.8693 2.2545 64.8693 2.20949C64.8693 2.16448 64.759 2.12766 64.6242 2.12766C64.4894 2.12766 64.3791 2.09083 64.3791 2.04583C64.3791 2.00082 64.232 1.96399 64.0523 1.96399C63.8726 1.96399 63.7255 1.92717 63.7255 1.88216C63.7255 1.83715 63.6152 1.80033 63.4804 1.80033C63.3456 1.80033 63.2353 1.7635 63.2353 1.71849C63.2353 1.67349 63.0882 1.63666 62.9085 1.63666C62.7288 1.63666 62.5817 1.59984 62.5817 1.55483C62.5817 1.50982 62.4346 1.473 62.2549 1.473C62.0752 1.473 61.9281 1.43617 61.9281 1.39116C61.9281 1.34615 61.781 1.30933 61.6013 1.30933C61.4216 1.30933 61.2745 1.2725 61.2745 1.2275C61.2745 1.18249 61.1275 1.14566 60.9477 1.14566C60.768 1.14566 60.6209 1.10884 60.6209 1.06383C60.6209 1.01833 60.403 0.981997 60.1307 0.981997C59.8584 0.981997 59.6405 0.945663 59.6405 0.900164C59.6405 0.855155 59.4567 0.818331 59.232 0.818331C59.0074 0.818331 58.8235 0.781506 58.8235 0.736498C58.8235 0.690998 58.6056 0.654664 58.3333 0.654664C58.061 0.654664 57.8431 0.618331 57.8431 0.572831C57.8431 0.527332 57.6252 0.490998 57.3529 0.490998C57.0806 0.490998 56.8627 0.454664 56.8627 0.409165C56.8627 0.361457 56.5904 0.327332 56.2092 0.327332C55.8279 0.327332 55.5556 0.293208 55.5556 0.245499C55.5556 0.196399 55.2288 0.163666 54.7386 0.163666C54.2484 0.163666 53.9216 0.130933 53.9216 0.0818331C53.9216 0.0283961 52.5327 0 49.9183 0C47.3039 0 45.915 0.0283961 45.915 0.0818331ZM61.2745 15.4664C61.2745 15.5178 61.7919 15.5483 62.6634 15.5483C63.5349 15.5483 64.0523 15.5788 64.0523 15.6301C64.0523 15.6804 64.4608 15.7119 65.1144 15.7119C65.768 15.7119 66.1765 15.7435 66.1765 15.7938C66.1765 15.8426 66.4916 15.8756 66.9584 15.8756C67.5272 15.8756 67.7722 15.9074 67.8571 15.9926C67.9559 16.0914 67.9739 16.9293 67.9739 21.4403C67.9739 27.2257 67.9914 27.0049 67.5303 27.0049C67.4148 27.0049 67.3203 26.9681 67.3203 26.9231C67.3203 26.8705 66.5305 26.8412 65.1144 26.8412C63.6983 26.8412 62.9085 26.8705 62.9085 26.9231C62.9085 26.9681 62.7982 27.0049 62.6634 27.0049C62.5286 27.0049 62.4183 26.9681 62.4183 26.9231C62.4183 26.8745 62.1187 26.8412 61.683 26.8412C61.2473 26.8412 60.9477 26.8745 60.9477 26.9231C60.9477 26.9716 60.6481 27.0049 60.2124 27.0049C59.7767 27.0049 59.4771 27.0382 59.4771 27.0867C59.4771 27.1318 59.3301 27.1686 59.1503 27.1686C58.9706 27.1686 58.8235 27.2054 58.8235 27.2504C58.8235 27.2954 58.7132 27.3322 58.5784 27.3322C58.4436 27.3322 58.3333 27.3691 58.3333 27.4141C58.3333 27.4591 58.2598 27.4959 58.1699 27.4959C58.0801 27.4959 58.0065 27.5327 58.0065 27.5777C58.0065 27.6227 57.9411 27.6596 57.8612 27.6596C57.7812 27.6596 57.6628 27.7332 57.598 27.8232C57.5333 27.9133 57.4324 27.9869 57.374 27.9869C57.2252 27.9869 56.3726 28.8564 56.3726 29.008C56.3726 29.0765 56.3358 29.1326 56.2909 29.1326C56.2459 29.1326 56.2092 29.2062 56.2092 29.2962C56.2092 29.3863 56.1724 29.4599 56.1275 29.4599C56.0825 29.4599 56.0458 29.5336 56.0458 29.6236C56.0458 29.7136 56.009 29.7872 55.9641 29.7872C55.9191 29.7872 55.8824 29.9345 55.8824 30.1146C55.8824 30.2946 55.8456 30.4419 55.8007 30.4419C55.7557 30.4419 55.719 30.626 55.719 30.8511C55.719 31.0761 55.6822 31.2602 55.6373 31.2602C55.5837 31.2602 55.5556 32.8579 55.5556 35.8896C55.5556 39.7927 55.5739 40.5374 55.6723 40.6359C55.7712 40.7351 56.6729 40.7529 61.6013 40.7529C67.9108 40.7529 67.6471 40.7335 67.6471 41.1971C67.6471 41.3128 67.6103 41.4075 67.5654 41.4075C67.5177 41.4075 67.4837 41.6803 67.4837 42.0622C67.4837 42.4441 67.4496 42.7169 67.402 42.7169C67.3543 42.7169 67.3203 42.9896 67.3203 43.3715C67.3203 43.7534 67.2862 44.0262 67.2386 44.0262C67.1909 44.0262 67.1569 44.2989 67.1569 44.6808C67.1569 45.0628 67.1228 45.3355 67.0752 45.3355C67.0267 45.3355 66.9935 45.6356 66.9935 46.072C66.9935 46.5084 66.9602 46.8085 66.9118 46.8085C66.8651 46.8085 66.8301 47.054 66.8301 47.3813C66.8301 47.7087 66.795 47.9542 66.7484 47.9542C66.7007 47.9542 66.6667 48.2269 66.6667 48.6088C66.6667 48.9908 66.6326 49.2635 66.585 49.2635C66.5383 49.2635 66.5033 49.509 66.5033 49.8363C66.5033 50.1637 66.4682 50.4092 66.4216 50.4092C66.3749 50.4092 66.3399 50.6547 66.3399 50.982C66.3399 51.3093 66.3048 51.5548 66.2582 51.5548C66.2109 51.5548 66.1765 51.8159 66.1765 52.1744C66.1765 52.6023 66.1404 52.8302 66.0597 52.9109C65.9611 53.0097 65.1572 53.0278 60.866 53.0278C56.5748 53.0278 55.7709 53.0459 55.6723 53.1448C55.572 53.2452 55.5556 55.341 55.5556 68.0384C55.5556 77.8349 55.5831 82.8151 55.6373 82.8151C55.6849 82.8151 55.719 83.0878 55.719 83.4697C55.719 83.8516 55.6849 84.1244 55.6373 84.1244C55.5923 84.1244 55.5556 84.198 55.5556 84.288C55.5556 84.4502 55.5011 84.4517 49.4632 84.4517C44.2919 84.4517 43.353 84.434 43.254 84.3348C43.1576 84.2383 43.1373 83.7534 43.1373 81.5525C43.1373 79.8301 43.1083 78.8871 43.0556 78.8871C43.0106 78.8871 42.9739 78.7766 42.9739 78.6416C42.9739 78.5065 43.0106 78.3961 43.0556 78.3961C43.104 78.3961 43.1373 78.096 43.1373 77.6596C43.1373 77.2232 43.104 76.9231 43.0556 76.9231C43.0015 76.9231 42.9739 72.886 42.9739 64.9754V53.0278H41.4216C40.4412 53.0278 39.8693 52.9977 39.8693 52.946C39.8693 52.901 39.759 52.8642 39.6242 52.8642C39.4894 52.8642 39.3791 52.901 39.3791 52.946C39.3791 52.9915 39.1612 53.0278 38.8889 53.0278C38.6166 53.0278 38.3987 52.9915 38.3987 52.946C38.3987 52.901 38.2884 52.8642 38.1536 52.8642C38.0188 52.8642 37.9085 52.901 37.9085 52.946C37.9085 52.991 37.7982 53.0278 37.6634 53.0278C37.5286 53.0278 37.4183 52.991 37.4183 52.946C37.4183 52.8935 36.6285 52.8642 35.2124 52.8642C33.7963 52.8642 33.0065 52.8935 33.0065 52.946C33.0065 53.0675 32.7669 53.045 32.6331 52.9109C32.538 52.8157 32.5163 52.4059 32.5163 50.7014C32.5163 49.3609 32.487 48.6088 32.4346 48.6088C32.3897 48.6088 32.3529 48.5352 32.3529 48.4452C32.3529 48.3552 32.3897 48.2815 32.4346 48.2815C32.4868 48.2815 32.5163 47.5996 32.5163 46.3993C32.5163 45.1991 32.4868 44.5172 32.4346 44.5172C32.3897 44.5172 32.3529 44.3331 32.3529 44.108C32.3529 43.883 32.3897 43.6989 32.4346 43.6989C32.4852 43.6989 32.5163 43.2624 32.5163 42.5532C32.5163 41.8439 32.4852 41.4075 32.4346 41.4075C32.3106 41.4075 32.337 41.0026 32.4697 40.8698C32.5624 40.7768 32.8976 40.7529 34.1037 40.7529C35.0607 40.7529 35.6209 40.7227 35.6209 40.671C35.6209 40.626 35.7312 40.5892 35.866 40.5892C36.0008 40.5892 36.1111 40.626 36.1111 40.671C36.1111 40.716 36.2582 40.7529 36.4379 40.7529C36.6176 40.7529 36.7647 40.716 36.7647 40.671C36.7647 40.626 36.8382 40.5892 36.9281 40.5892C37.018 40.5892 37.0915 40.626 37.0915 40.671C37.0915 40.7178 37.3366 40.7529 37.6634 40.7529C37.9902 40.7529 38.2353 40.7178 38.2353 40.671C38.2353 40.626 38.3824 40.5892 38.5621 40.5892C38.7418 40.5892 38.8889 40.626 38.8889 40.671C38.8889 40.7232 39.5697 40.7529 40.768 40.7529C41.9663 40.7529 42.6471 40.7232 42.6471 40.671C42.6471 40.626 42.7206 40.5892 42.8105 40.5892C42.9723 40.5892 42.9739 40.5346 42.9739 34.9427C42.9739 31.233 43.0019 29.2962 43.0556 29.2962C43.1032 29.2962 43.1373 29.0235 43.1373 28.6416C43.1373 28.2597 43.1713 27.9869 43.219 27.9869C43.2639 27.9869 43.3007 27.8028 43.3007 27.5777C43.3007 27.3527 43.3374 27.1686 43.3824 27.1686C43.4273 27.1686 43.4641 27.0213 43.4641 26.8412C43.4641 26.6612 43.5008 26.5139 43.5458 26.5139C43.5907 26.5139 43.6275 26.3666 43.6275 26.1866C43.6275 26.0065 43.6642 25.8592 43.7092 25.8592C43.7541 25.8592 43.7909 25.7119 43.7909 25.5319C43.7909 25.3519 43.8276 25.2046 43.8726 25.2046C43.9175 25.2046 43.9542 25.1309 43.9542 25.0409C43.9542 24.9509 43.991 24.8772 44.0359 24.8772C44.0809 24.8772 44.1176 24.7668 44.1176 24.6318C44.1176 24.4967 44.1544 24.3863 44.1993 24.3863C44.2443 24.3863 44.281 24.2758 44.281 24.1408C44.281 24.0057 44.3178 23.8953 44.3627 23.8953C44.4077 23.8953 44.4444 23.8216 44.4444 23.7316C44.4444 23.6416 44.4812 23.5679 44.5261 23.5679C44.5711 23.5679 44.6078 23.4943 44.6078 23.4043C44.6078 23.3142 44.6446 23.2406 44.6895 23.2406C44.7345 23.2406 44.7712 23.1669 44.7712 23.0769C44.7712 22.9869 44.808 22.9133 44.8529 22.9133C44.8979 22.9133 44.9346 22.8396 44.9346 22.7496C44.9346 22.6596 44.9714 22.5859 45.0163 22.5859C45.0613 22.5859 45.098 22.5204 45.098 22.4403C45.098 22.3602 45.1716 22.2417 45.2614 22.1768C45.3513 22.1119 45.4248 21.9933 45.4248 21.9132C45.4248 21.8331 45.4616 21.7676 45.5065 21.7676C45.5515 21.7676 45.5882 21.7088 45.5882 21.6367C45.5882 21.5648 45.6985 21.4027 45.8333 21.2766C45.9681 21.1505 46.0784 21.0032 46.0784 20.9493C46.0784 20.8953 46.1887 20.748 46.3235 20.6219C46.4583 20.4958 46.5686 20.3495 46.5686 20.2968C46.5686 20.1742 46.7739 19.9673 46.8954 19.9673C47.015 19.9673 47.2222 19.761 47.2222 19.6421C47.2222 19.5061 47.6042 19.1489 47.7496 19.1489C47.8213 19.1489 47.8758 19.0783 47.8758 18.9853C47.8758 18.8762 47.9303 18.8216 48.0392 18.8216C48.1291 18.8216 48.2026 18.7848 48.2026 18.7398C48.2026 18.6948 48.2614 18.6579 48.3333 18.6579C48.4051 18.6579 48.5669 18.5475 48.6928 18.4124C48.8187 18.2774 48.9725 18.1669 49.0343 18.1669C49.0962 18.1669 49.1999 18.0933 49.2647 18.0033C49.3295 17.9133 49.4398 17.8396 49.5098 17.8396C49.5798 17.8396 49.6901 17.766 49.7549 17.6759C49.8197 17.5859 49.9381 17.5123 50.0181 17.5123C50.098 17.5123 50.1634 17.4754 50.1634 17.4304C50.1634 17.3854 50.2369 17.3486 50.3268 17.3486C50.4167 17.3486 50.4902 17.3118 50.4902 17.2668C50.4902 17.2218 50.5637 17.1849 50.6536 17.1849C50.7435 17.1849 50.817 17.1481 50.817 17.1031C50.817 17.0581 50.8905 17.0213 50.9804 17.0213C51.0703 17.0213 51.1438 16.9845 51.1438 16.9394C51.1438 16.8944 51.2173 16.8576 51.3072 16.8576C51.3971 16.8576 51.4706 16.8208 51.4706 16.7758C51.4706 16.7308 51.5441 16.6939 51.634 16.6939C51.7239 16.6939 51.7974 16.6571 51.7974 16.6121C51.7974 16.5671 51.9077 16.5303 52.0425 16.5303C52.1773 16.5303 52.2876 16.4935 52.2876 16.4484C52.2876 16.4034 52.4346 16.3666 52.6144 16.3666C52.7941 16.3666 52.9412 16.3298 52.9412 16.2848C52.9412 16.2398 53.0147 16.2029 53.1046 16.2029C53.1944 16.2029 53.268 16.1661 53.268 16.1211C53.268 16.0761 53.4518 16.0393 53.6765 16.0393C53.9011 16.0393 54.085 16.0025 54.085 15.9574C54.085 15.9124 54.2688 15.8756 54.4935 15.8756C54.7181 15.8756 54.902 15.8388 54.902 15.7938C54.902 15.7488 55.0858 15.7119 55.3105 15.7119C55.5351 15.7119 55.719 15.6751 55.719 15.6301C55.719 15.5816 56.0185 15.5483 56.4543 15.5483C56.89 15.5483 57.1895 15.515 57.1895 15.4664C57.1895 15.4141 57.9248 15.3846 59.232 15.3846C60.5392 15.3846 61.2745 15.4141 61.2745 15.4664Z" fill="#602B7A"></path> </svg> 