<?xml version="1.0" encoding="UTF-8"?> <svg xmlns="http://www.w3.org/2000/svg" width="100" height="100" viewBox="0 0 100 100" fill="none"> <path fill-rule="evenodd" clip-rule="evenodd" d="M47.1358 0.0819672C47.1358 0.130574 46.8358 0.163934 46.3993 0.163934C45.9629 0.163934 45.6628 0.197295 45.6628 0.245902C45.6628 0.295574 45.3083 0.327869 44.7627 0.327869C44.2171 0.327869 43.8625 0.360164 43.8625 0.409836C43.8625 0.456639 43.617 0.491803 43.2897 0.491803C42.9624 0.491803 42.7169 0.526967 42.7169 0.57377C42.7169 0.620574 42.4714 0.655738 42.144 0.655738C41.8167 0.655738 41.5712 0.690902 41.5712 0.737705C41.5712 0.783279 41.3529 0.819672 41.0802 0.819672C40.8074 0.819672 40.5892 0.856066 40.5892 0.901639C40.5892 0.946721 40.4051 0.983607 40.18 0.983607C39.955 0.983607 39.7709 1.02049 39.7709 1.06557C39.7709 1.11066 39.5867 1.14754 39.3617 1.14754C39.1367 1.14754 38.9525 1.18443 38.9525 1.22951C38.9525 1.27459 38.8052 1.31148 38.6252 1.31148C38.4452 1.31148 38.2979 1.34836 38.2979 1.39344C38.2979 1.43852 38.1874 1.47541 38.0524 1.47541C37.9173 1.47541 37.8069 1.5123 37.8069 1.55738C37.8069 1.60246 37.6596 1.63934 37.4795 1.63934C37.2995 1.63934 37.1522 1.67623 37.1522 1.72131C37.1522 1.76639 36.9681 1.80328 36.743 1.80328C36.518 1.80328 36.3339 1.84016 36.3339 1.88525C36.3339 1.93033 36.2234 1.96721 36.0884 1.96721C35.9534 1.96721 35.8429 2.0041 35.8429 2.04918C35.8429 2.09426 35.7324 2.13115 35.5974 2.13115C35.4624 2.13115 35.3519 2.16803 35.3519 2.21311C35.3519 2.2582 35.2414 2.29508 35.1064 2.29508C34.9714 2.29508 34.8609 2.33197 34.8609 2.37705C34.8609 2.42213 34.7504 2.45902 34.6154 2.45902C34.4804 2.45902 34.3699 2.4959 34.3699 2.54098C34.3699 2.58607 34.2594 2.62295 34.1244 2.62295C33.9894 2.62295 33.8789 2.65984 33.8789 2.70492C33.8789 2.75 33.7684 2.78689 33.6334 2.78689C33.4984 2.78689 33.3879 2.82377 33.3879 2.86885C33.3879 2.91393 33.2774 2.95082 33.1424 2.95082C33.0074 2.95082 32.8969 2.9877 32.8969 3.03279C32.8969 3.07787 32.7864 3.11475 32.6514 3.11475C32.5164 3.11475 32.4059 3.15164 32.4059 3.19672C32.4059 3.2418 32.3322 3.27869 32.2422 3.27869C32.1522 3.27869 32.0786 3.31557 32.0786 3.36066C32.0786 3.40574 31.9681 3.44262 31.8331 3.44262C31.698 3.44262 31.5876 3.47951 31.5876 3.52459C31.5876 3.56967 31.5139 3.60656 31.4239 3.60656C31.3339 3.60656 31.2602 3.64344 31.2602 3.68852C31.2602 3.73361 31.1866 3.77049 31.0966 3.77049C31.0065 3.77049 30.9329 3.80738 30.9329 3.85246C30.9329 3.89754 30.8224 3.93443 30.6874 3.93443C30.5524 3.93443 30.4419 3.97131 30.4419 4.01639C30.4419 4.06148 30.3682 4.09836 30.2782 4.09836C30.1882 4.09836 30.1146 4.13525 30.1146 4.18033C30.1146 4.22541 30.0041 4.2623 29.8691 4.2623C29.734 4.2623 29.6236 4.29918 29.6236 4.34426C29.6236 4.38934 29.5499 4.42623 29.4599 4.42623C29.3699 4.42623 29.2962 4.46311 29.2962 4.5082C29.2962 4.55328 29.2226 4.59016 29.1326 4.59016C29.0426 4.59016 28.9689 4.62705 28.9689 4.67213C28.9689 4.71721 28.8953 4.7541 28.8052 4.7541C28.7152 4.7541 28.6416 4.79098 28.6416 4.83607C28.6416 4.88115 28.5679 4.91803 28.4779 4.91803C28.3879 4.91803 28.3142 4.95492 28.3142 5C28.3142 5.04508 28.2406 5.08197 28.1506 5.08197C28.0606 5.08197 27.9869 5.11885 27.9869 5.16393C27.9869 5.20902 27.9133 5.2459 27.8232 5.2459C27.7332 5.2459 27.6596 5.28279 27.6596 5.32787C27.6596 5.37295 27.5859 5.40984 27.4959 5.40984C27.4059 5.40984 27.3322 5.44672 27.3322 5.4918C27.3322 5.53689 27.2586 5.57377 27.1686 5.57377C27.0786 5.57377 27.0049 5.61066 27.0049 5.65574C27.0049 5.70082 26.9313 5.7377 26.8412 5.7377C26.7512 5.7377 26.6776 5.77459 26.6776 5.81967C26.6776 5.86475 26.6039 5.90164 26.5139 5.90164C26.4239 5.90164 26.3502 5.93852 26.3502 5.98361C26.3502 6.02869 26.2766 6.06557 26.1866 6.06557C26.0966 6.06557 26.0229 6.10246 26.0229 6.14754C26.0229 6.19262 25.9574 6.22951 25.8773 6.22951C25.7972 6.22951 25.6786 6.30328 25.6137 6.39344C25.5489 6.48361 25.4303 6.55738 25.3502 6.55738C25.2701 6.55738 25.2046 6.59426 25.2046 6.63934C25.2046 6.68443 25.139 6.72131 25.059 6.72131C24.9789 6.72131 24.8603 6.79508 24.7954 6.88525C24.7305 6.97541 24.612 7.04918 24.5318 7.04918C24.4518 7.04918 24.3863 7.08607 24.3863 7.13115C24.3863 7.17623 24.3126 7.21311 24.2226 7.21311C24.1326 7.21311 24.0589 7.25 24.0589 7.29508C24.0589 7.34016 24.0001 7.37705 23.9281 7.37705C23.8561 7.37705 23.694 7.4877 23.5679 7.62295C23.4418 7.7582 23.2797 7.86885 23.2078 7.86885C23.1358 7.86885 23.0769 7.90574 23.0769 7.95082C23.0769 7.9959 23.0114 8.03279 22.9313 8.03279C22.8512 8.03279 22.7327 8.10656 22.6678 8.19672C22.6029 8.28689 22.4924 8.36066 22.4223 8.36066C22.3521 8.36066 22.2417 8.43443 22.1768 8.52459C22.1119 8.61475 22.0014 8.68852 21.9313 8.68852C21.8611 8.68852 21.7507 8.76229 21.6858 8.85246C21.6209 8.94262 21.517 9.01639 21.455 9.01639C21.393 9.01639 21.239 9.12705 21.1129 9.26229C20.9868 9.39754 20.8328 9.5082 20.7709 9.5082C20.7088 9.5082 20.605 9.58197 20.5401 9.67213C20.4752 9.76229 20.3647 9.83607 20.2946 9.83607C20.2245 9.83607 20.114 9.90984 20.0491 10C19.9842 10.0902 19.8817 10.1639 19.8211 10.1639C19.7606 10.1639 19.5318 10.3484 19.3126 10.5738C19.0934 10.7992 18.8712 10.9836 18.8188 10.9836C18.7664 10.9836 18.6204 11.0943 18.4943 11.2295C18.3682 11.3648 18.2224 11.4754 18.1705 11.4754C18.1186 11.4754 17.8592 11.6967 17.5941 11.9672C17.329 12.2377 17.0732 12.459 17.0255 12.459C16.912 12.459 12.6023 16.7758 12.6023 16.8894C12.6023 16.9372 12.3813 17.1935 12.1113 17.459C11.8412 17.7245 11.6203 17.9835 11.6203 18.0347C11.6203 18.0858 11.473 18.2693 11.293 18.4426C11.1129 18.6159 10.9656 18.7998 10.9656 18.8514C10.9656 18.9029 10.7815 19.1247 10.5565 19.3443C10.3314 19.5639 10.1473 19.7864 10.1473 19.8389C10.1473 19.8913 10.0368 20.0376 9.9018 20.1639C9.76678 20.2902 9.6563 20.4445 9.6563 20.5066C9.6563 20.5687 9.58265 20.6727 9.49263 20.7377C9.40262 20.8027 9.32897 20.9134 9.32897 20.9836C9.32897 21.0539 9.25532 21.1645 9.1653 21.2295C9.07529 21.2945 9.00164 21.3985 9.00164 21.4607C9.00164 21.5227 8.89116 21.677 8.75614 21.8033C8.62111 21.9296 8.51064 22.092 8.51064 22.164C8.51064 22.2361 8.47381 22.2951 8.4288 22.2951C8.3838 22.2951 8.34697 22.3607 8.34697 22.4409C8.34697 22.5212 8.27332 22.6399 8.18331 22.7049C8.09329 22.7699 8.01964 22.8806 8.01964 22.9508C8.01964 23.0211 7.94599 23.1317 7.85597 23.1967C7.76596 23.2617 7.69231 23.3724 7.69231 23.4426C7.69231 23.5129 7.61866 23.6235 7.52864 23.6885C7.43862 23.7535 7.36498 23.8723 7.36498 23.9525C7.36498 24.0327 7.32815 24.0984 7.28314 24.0984C7.23813 24.0984 7.20131 24.164 7.20131 24.2442C7.20131 24.3244 7.12766 24.4432 7.03764 24.5082C6.94763 24.5732 6.87398 24.692 6.87398 24.7722C6.87398 24.8524 6.83715 24.918 6.79214 24.918C6.74714 24.918 6.71031 24.9918 6.71031 25.082C6.71031 25.1721 6.67349 25.2459 6.62848 25.2459C6.58347 25.2459 6.54664 25.3116 6.54664 25.3917C6.54664 25.472 6.47299 25.5907 6.38298 25.6557C6.29296 25.7207 6.21931 25.8395 6.21931 25.9197C6.21931 25.9999 6.18249 26.0656 6.13748 26.0656C6.09247 26.0656 6.05565 26.1393 6.05565 26.2295C6.05565 26.3197 6.01882 26.3934 5.97381 26.3934C5.9288 26.3934 5.89198 26.4672 5.89198 26.5574C5.89198 26.6475 5.85516 26.7213 5.81015 26.7213C5.76514 26.7213 5.72831 26.7951 5.72831 26.8852C5.72831 26.9754 5.69149 27.0492 5.64648 27.0492C5.60147 27.0492 5.56465 27.123 5.56465 27.2131C5.56465 27.3033 5.52782 27.377 5.48281 27.377C5.43781 27.377 5.40098 27.4508 5.40098 27.541C5.40098 27.6311 5.36416 27.7049 5.31915 27.7049C5.27414 27.7049 5.23732 27.7787 5.23732 27.8689C5.23732 27.959 5.20049 28.0328 5.15548 28.0328C5.11047 28.0328 5.07365 28.1066 5.07365 28.1967C5.07365 28.2869 5.03682 28.3607 4.99182 28.3607C4.94681 28.3607 4.90998 28.4344 4.90998 28.5246C4.90998 28.6148 4.87316 28.6885 4.82815 28.6885C4.78314 28.6885 4.74632 28.7623 4.74632 28.8525C4.74632 28.9426 4.70949 29.0164 4.66448 29.0164C4.61948 29.0164 4.58265 29.0902 4.58265 29.1803C4.58265 29.2705 4.54583 29.3443 4.50082 29.3443C4.45581 29.3443 4.41899 29.418 4.41899 29.5082C4.41899 29.5984 4.38216 29.6721 4.33715 29.6721C4.29214 29.6721 4.25532 29.7828 4.25532 29.918C4.25532 30.0533 4.21849 30.1639 4.17349 30.1639C4.12848 30.1639 4.09165 30.2377 4.09165 30.3279C4.09165 30.418 4.05483 30.4918 4.00982 30.4918C3.96481 30.4918 3.92799 30.6025 3.92799 30.7377C3.92799 30.873 3.89116 30.9836 3.84615 30.9836C3.80115 30.9836 3.76432 31.0574 3.76432 31.1475C3.76432 31.2377 3.7275 31.3115 3.68249 31.3115C3.63748 31.3115 3.60065 31.3852 3.60065 31.4754C3.60065 31.5656 3.56383 31.6393 3.51882 31.6393C3.47381 31.6393 3.43699 31.75 3.43699 31.8852C3.43699 32.0205 3.40016 32.1311 3.35516 32.1311C3.31015 32.1311 3.27332 32.2418 3.27332 32.377C3.27332 32.5123 3.2365 32.623 3.19149 32.623C3.14648 32.623 3.10966 32.6967 3.10966 32.7869C3.10966 32.877 3.07283 32.9508 3.02782 32.9508C2.98281 32.9508 2.94599 33.0615 2.94599 33.1967C2.94599 33.332 2.90917 33.4426 2.86416 33.4426C2.81915 33.4426 2.78232 33.5533 2.78232 33.6885C2.78232 33.8238 2.7455 33.9344 2.70049 33.9344C2.65548 33.9344 2.61866 34.0451 2.61866 34.1803C2.61866 34.3156 2.58183 34.4262 2.53682 34.4262C2.49182 34.4262 2.45499 34.5738 2.45499 34.7541C2.45499 34.9344 2.41817 35.082 2.37316 35.082C2.32815 35.082 2.29133 35.1926 2.29133 35.3279C2.29133 35.4631 2.2545 35.5738 2.20949 35.5738C2.16448 35.5738 2.12766 35.6844 2.12766 35.8197C2.12766 35.9549 2.09083 36.0656 2.04583 36.0656C2.00082 36.0656 1.96399 36.1762 1.96399 36.3115C1.96399 36.4467 1.92717 36.5574 1.88216 36.5574C1.83715 36.5574 1.80033 36.7049 1.80033 36.8852C1.80033 37.0656 1.7635 37.2131 1.71849 37.2131C1.67349 37.2131 1.63666 37.3975 1.63666 37.623C1.63666 37.8484 1.59984 38.0328 1.55483 38.0328C1.50982 38.0328 1.473 38.1803 1.473 38.3607C1.473 38.541 1.43617 38.6885 1.39116 38.6885C1.34615 38.6885 1.30933 38.8361 1.30933 39.0164C1.30933 39.1967 1.2725 39.3443 1.2275 39.3443C1.18249 39.3443 1.14566 39.5287 1.14566 39.7541C1.14566 39.9795 1.10884 40.1639 1.06383 40.1639C1.01882 40.1639 0.981997 40.3484 0.981997 40.5738C0.981997 40.7992 0.945172 40.9836 0.900164 40.9836C0.854664 40.9836 0.818331 41.2022 0.818331 41.4754C0.818331 41.7486 0.781997 41.9672 0.736498 41.9672C0.690998 41.9672 0.654664 42.1858 0.654664 42.459C0.654664 42.7322 0.618331 42.9508 0.572831 42.9508C0.526105 42.9508 0.490998 43.1967 0.490998 43.5246C0.490998 43.8525 0.455892 44.0984 0.409165 44.0984C0.359574 44.0984 0.327332 44.4535 0.327332 45C0.327332 45.5465 0.29509 45.9016 0.245499 45.9016C0.194599 45.9016 0.163666 46.3661 0.163666 47.1311C0.163666 47.8961 0.132733 48.3607 0.0818331 48.3607C0.0300327 48.3607 0 48.9617 0 50C0 51.0383 0.0300327 51.6393 0.0818331 51.6393C0.132488 51.6393 0.163666 52.0765 0.163666 52.7869C0.163666 53.4973 0.194845 53.9344 0.245499 53.9344C0.294599 53.9344 0.327332 54.2623 0.327332 54.7541C0.327332 55.2459 0.360065 55.5738 0.409165 55.5738C0.456874 55.5738 0.490998 55.847 0.490998 56.2295C0.490998 56.612 0.525123 56.8852 0.572831 56.8852C0.618331 56.8852 0.654664 57.1039 0.654664 57.377C0.654664 57.6502 0.690998 57.8689 0.736498 57.8689C0.783224 57.8689 0.818331 58.1148 0.818331 58.4426C0.818331 58.7705 0.853437 59.0164 0.900164 59.0164C0.945172 59.0164 0.981997 59.1639 0.981997 59.3443C0.981997 59.5246 1.01882 59.6721 1.06383 59.6721C1.10884 59.6721 1.14566 59.8566 1.14566 60.082C1.14566 60.3074 1.18249 60.4918 1.2275 60.4918C1.2725 60.4918 1.30933 60.6762 1.30933 60.9016C1.30933 61.127 1.34615 61.3115 1.39116 61.3115C1.43617 61.3115 1.473 61.459 1.473 61.6393C1.473 61.8197 1.50982 61.9672 1.55483 61.9672C1.59984 61.9672 1.63666 62.1148 1.63666 62.2951C1.63666 62.4754 1.67349 62.623 1.71849 62.623C1.7635 62.623 1.80033 62.7705 1.80033 62.9508C1.80033 63.1311 1.83715 63.2787 1.88216 63.2787C1.92717 63.2787 1.96399 63.4262 1.96399 63.6066C1.96399 63.7869 2.00082 63.9344 2.04583 63.9344C2.09083 63.9344 2.12766 64.0451 2.12766 64.1803C2.12766 64.3156 2.16448 64.4262 2.20949 64.4262C2.2545 64.4262 2.29133 64.5369 2.29133 64.6721C2.29133 64.8074 2.32815 64.918 2.37316 64.918C2.41817 64.918 2.45499 65.0287 2.45499 65.1639C2.45499 65.2992 2.49182 65.4098 2.53682 65.4098C2.58183 65.4098 2.61866 65.5205 2.61866 65.6557C2.61866 65.791 2.65548 65.9016 2.70049 65.9016C2.7455 65.9016 2.78232 66.0492 2.78232 66.2295C2.78232 66.4098 2.81915 66.5574 2.86416 66.5574C2.90917 66.5574 2.94599 66.6311 2.94599 66.7213C2.94599 66.8115 2.98281 66.8852 3.02782 66.8852C3.07283 66.8852 3.10966 66.9959 3.10966 67.1311C3.10966 67.2664 3.14648 67.377 3.19149 67.377C3.2365 67.377 3.27332 67.4508 3.27332 67.541C3.27332 67.6311 3.31015 67.7049 3.35516 67.7049C3.40016 67.7049 3.43699 67.8156 3.43699 67.9508C3.43699 68.0861 3.47381 68.1967 3.51882 68.1967C3.56383 68.1967 3.60065 68.3074 3.60065 68.4426C3.60065 68.5779 3.63748 68.6885 3.68249 68.6885C3.7275 68.6885 3.76432 68.7623 3.76432 68.8525C3.76432 68.9426 3.80115 69.0164 3.84615 69.0164C3.89116 69.0164 3.92799 69.0902 3.92799 69.1803C3.92799 69.2705 3.96481 69.3443 4.00982 69.3443C4.05483 69.3443 4.09165 69.418 4.09165 69.5082C4.09165 69.5984 4.12848 69.6721 4.17349 69.6721C4.21849 69.6721 4.25532 69.7828 4.25532 69.918C4.25532 70.0533 4.29214 70.1639 4.33715 70.1639C4.38216 70.1639 4.41899 70.2377 4.41899 70.3279C4.41899 70.418 4.45581 70.4918 4.50082 70.4918C4.54583 70.4918 4.58265 70.5656 4.58265 70.6557C4.58265 70.7459 4.61948 70.8197 4.66448 70.8197C4.70949 70.8197 4.74632 70.8934 4.74632 70.9836C4.74632 71.0738 4.78314 71.1475 4.82815 71.1475C4.87316 71.1475 4.90998 71.2213 4.90998 71.3115C4.90998 71.4016 4.94681 71.4754 4.99182 71.4754C5.03682 71.4754 5.07365 71.5861 5.07365 71.7213C5.07365 71.8566 5.11047 71.9672 5.15548 71.9672C5.20049 71.9672 5.23732 72.0329 5.23732 72.113C5.23732 72.1933 5.31097 72.312 5.40098 72.377C5.491 72.442 5.56465 72.5608 5.56465 72.6411C5.56465 72.7212 5.60147 72.7869 5.64648 72.7869C5.69149 72.7869 5.72831 72.8894 5.72831 73.0147C5.72831 73.1484 5.79591 73.2912 5.89198 73.3607C5.982 73.4257 6.05565 73.5444 6.05565 73.6247C6.05565 73.7048 6.09247 73.7705 6.13748 73.7705C6.18249 73.7705 6.21931 73.8443 6.21931 73.9344C6.21931 74.0246 6.25614 74.0984 6.30115 74.0984C6.34615 74.0984 6.38298 74.1721 6.38298 74.2623C6.38298 74.3525 6.4198 74.4262 6.46481 74.4262C6.50982 74.4262 6.54664 74.5 6.54664 74.5902C6.54664 74.6803 6.58347 74.7541 6.62848 74.7541C6.67349 74.7541 6.71031 74.813 6.71031 74.8852C6.71031 74.9572 6.82079 75.1196 6.95581 75.2459C7.09083 75.3722 7.20131 75.5346 7.20131 75.6066C7.20131 75.6788 7.23813 75.7377 7.28314 75.7377C7.32815 75.7377 7.36498 75.8034 7.36498 75.8835C7.36498 75.9638 7.43862 76.0825 7.52864 76.1475C7.61866 76.2125 7.69231 76.3313 7.69231 76.4116C7.69231 76.4917 7.72913 76.5574 7.77414 76.5574C7.81915 76.5574 7.85597 76.623 7.85597 76.7032C7.85597 76.7834 7.92962 76.9022 8.01964 76.9672C8.10966 77.0322 8.18331 77.1429 8.18331 77.2131C8.18331 77.2834 8.25696 77.394 8.34697 77.459C8.43699 77.524 8.51064 77.6347 8.51064 77.7049C8.51064 77.7752 8.58429 77.8858 8.6743 77.9508C8.76432 78.0158 8.83797 78.1265 8.83797 78.1967C8.83797 78.267 8.91162 78.3776 9.00164 78.4426C9.09165 78.5076 9.1653 78.6116 9.1653 78.6738C9.1653 78.7358 9.27578 78.8901 9.4108 79.0164C9.54583 79.1427 9.6563 79.297 9.6563 79.359C9.6563 79.4211 9.72995 79.5252 9.81997 79.5902C9.90998 79.6552 9.98363 79.7584 9.98363 79.8196C9.98363 79.8808 10.1309 80.0726 10.311 80.2459C10.491 80.4192 10.6383 80.6031 10.6383 80.6547C10.6383 80.7062 10.8224 80.9279 11.0475 81.1475C11.2725 81.3671 11.4566 81.5884 11.4566 81.6393C11.4566 81.6902 11.6408 81.9116 11.8658 82.1311C12.0908 82.3507 12.275 82.5698 12.275 82.6179C12.275 82.7325 17.2393 87.7049 17.3536 87.7049C17.4017 87.7049 17.6204 87.8893 17.8396 88.1148C18.0588 88.3402 18.2798 88.5246 18.3306 88.5246C18.3814 88.5246 18.6024 88.709 18.8216 88.9344C19.0408 89.1598 19.2623 89.3443 19.3137 89.3443C19.3651 89.3443 19.5488 89.4918 19.7218 89.6721C19.8948 89.8525 20.0863 90 20.1474 90C20.2085 90 20.3115 90.0738 20.3764 90.1639C20.4413 90.2541 20.5452 90.3279 20.6072 90.3279C20.6691 90.3279 20.8232 90.4385 20.9493 90.5738C21.0754 90.709 21.2294 90.8197 21.2913 90.8197C21.3534 90.8197 21.4572 90.8934 21.5221 90.9836C21.587 91.0738 21.6975 91.1475 21.7676 91.1475C21.8377 91.1475 21.9482 91.2213 22.0131 91.3115C22.078 91.4016 22.1885 91.4754 22.2586 91.4754C22.3287 91.4754 22.4392 91.5492 22.5041 91.6393C22.569 91.7295 22.6795 91.8033 22.7496 91.8033C22.8197 91.8033 22.9302 91.877 22.9951 91.9672C23.06 92.0574 23.1786 92.1311 23.2587 92.1311C23.3387 92.1311 23.4043 92.168 23.4043 92.2131C23.4043 92.2582 23.4631 92.2951 23.5351 92.2951C23.607 92.2951 23.7691 92.4057 23.8953 92.541C24.0214 92.6762 24.1835 92.7869 24.2554 92.7869C24.3274 92.7869 24.3863 92.8238 24.3863 92.8689C24.3863 92.9139 24.4518 92.9508 24.5318 92.9508C24.612 92.9508 24.7305 93.0246 24.7954 93.1148C24.8603 93.2049 24.9789 93.2787 25.059 93.2787C25.139 93.2787 25.2046 93.3156 25.2046 93.3607C25.2046 93.4057 25.2782 93.4426 25.3682 93.4426C25.4583 93.4426 25.5319 93.4795 25.5319 93.5246C25.5319 93.5697 25.6056 93.6066 25.6956 93.6066C25.7856 93.6066 25.8592 93.6434 25.8592 93.6885C25.8592 93.7336 25.9329 93.7705 26.0229 93.7705C26.1129 93.7705 26.1866 93.8074 26.1866 93.8525C26.1866 93.8975 26.2602 93.9344 26.3502 93.9344C26.4403 93.9344 26.5139 93.9713 26.5139 94.0164C26.5139 94.0615 26.5795 94.0984 26.6595 94.0984C26.7396 94.0984 26.8582 94.1721 26.9231 94.2623C26.988 94.3525 27.1065 94.4262 27.1867 94.4262C27.2667 94.4262 27.3322 94.4631 27.3322 94.5082C27.3322 94.5533 27.4346 94.5902 27.5597 94.5902C27.6932 94.5902 27.8358 94.6579 27.9051 94.7541C27.97 94.8443 28.0885 94.918 28.1687 94.918C28.2487 94.918 28.3142 94.9549 28.3142 95C28.3142 95.0451 28.3879 95.082 28.4779 95.082C28.5679 95.082 28.6416 95.1189 28.6416 95.1639C28.6416 95.209 28.752 95.2459 28.8871 95.2459C29.0221 95.2459 29.1326 95.2828 29.1326 95.3279C29.1326 95.3729 29.2062 95.4098 29.2962 95.4098C29.3863 95.4098 29.4599 95.4467 29.4599 95.4918C29.4599 95.5369 29.5336 95.5738 29.6236 95.5738C29.7136 95.5738 29.7872 95.6107 29.7872 95.6557C29.7872 95.7008 29.8609 95.7377 29.9509 95.7377C30.0409 95.7377 30.1146 95.7746 30.1146 95.8197C30.1146 95.8648 30.225 95.9016 30.3601 95.9016C30.4951 95.9016 30.6056 95.9385 30.6056 95.9836C30.6056 96.0287 30.6792 96.0656 30.7692 96.0656C30.8592 96.0656 30.9329 96.1025 30.9329 96.1475C30.9329 96.1926 31.0065 96.2295 31.0966 96.2295C31.1866 96.2295 31.2602 96.2664 31.2602 96.3115C31.2602 96.3566 31.3707 96.3934 31.5057 96.3934C31.6408 96.3934 31.7512 96.4303 31.7512 96.4754C31.7512 96.5205 31.8617 96.5574 31.9967 96.5574C32.1317 96.5574 32.2422 96.5943 32.2422 96.6393C32.2422 96.6844 32.3159 96.7213 32.4059 96.7213C32.4959 96.7213 32.5696 96.7582 32.5696 96.8033C32.5696 96.8484 32.68 96.8852 32.8151 96.8852C32.9501 96.8852 33.0606 96.9221 33.0606 96.9672C33.0606 97.0123 33.1342 97.0492 33.2242 97.0492C33.3142 97.0492 33.3879 97.0861 33.3879 97.1311C33.3879 97.1762 33.4984 97.2131 33.6334 97.2131C33.7684 97.2131 33.8789 97.25 33.8789 97.2951C33.8789 97.3402 34.0262 97.377 34.2062 97.377C34.3863 97.377 34.5336 97.4139 34.5336 97.459C34.5336 97.5041 34.644 97.541 34.779 97.541C34.9141 97.541 35.0245 97.5779 35.0245 97.6229C35.0245 97.668 35.135 97.7049 35.27 97.7049C35.4051 97.7049 35.5155 97.7418 35.5155 97.7869C35.5155 97.832 35.626 97.8689 35.761 97.8689C35.8961 97.8689 36.0065 97.9057 36.0065 97.9508C36.0065 97.9959 36.1538 98.0328 36.3339 98.0328C36.5139 98.0328 36.6612 98.0697 36.6612 98.1148C36.6612 98.1598 36.8085 98.1967 36.9885 98.1967C37.1686 98.1967 37.3159 98.2336 37.3159 98.2787C37.3159 98.3238 37.4632 98.3607 37.6432 98.3607C37.8232 98.3607 37.9705 98.3975 37.9705 98.4426C37.9705 98.4877 38.1178 98.5246 38.2979 98.5246C38.4779 98.5246 38.6252 98.5615 38.6252 98.6066C38.6252 98.6516 38.7725 98.6885 38.9525 98.6885C39.1326 98.6885 39.2799 98.7254 39.2799 98.7705C39.2799 98.8161 39.4981 98.8525 39.7709 98.8525C40.0436 98.8525 40.2619 98.8889 40.2619 98.9344C40.2619 98.9795 40.4092 99.0164 40.5892 99.0164C40.7692 99.0164 40.9165 99.0533 40.9165 99.0984C40.9165 99.1439 41.1348 99.1803 41.4075 99.1803C41.6803 99.1803 41.8985 99.2167 41.8985 99.2623C41.8985 99.3074 42.0826 99.3443 42.3077 99.3443C42.5327 99.3443 42.7169 99.3811 42.7169 99.4262C42.7169 99.474 42.9896 99.5082 43.3715 99.5082C43.7534 99.5082 44.0262 99.5424 44.0262 99.5902C44.0262 99.6393 44.3535 99.6721 44.8445 99.6721C45.3355 99.6721 45.6628 99.7049 45.6628 99.7541C45.6628 99.8055 46.1811 99.8361 47.054 99.8361C47.9269 99.8361 48.4452 99.8666 48.4452 99.918C48.4452 99.9701 49.0726 100 50.1637 100C51.2547 100 51.8822 99.9701 51.8822 99.918C51.8822 99.8668 52.3732 99.8361 53.1915 99.8361C54.0098 99.8361 54.5008 99.8053 54.5008 99.7541C54.5008 99.7044 54.8554 99.6721 55.401 99.6721C55.9466 99.6721 56.3011 99.6398 56.3011 99.5902C56.3011 99.5434 56.5466 99.5082 56.874 99.5082C57.2013 99.5082 57.4468 99.473 57.4468 99.4262C57.4468 99.3807 57.6651 99.3443 57.9378 99.3443C58.2106 99.3443 58.4288 99.3079 58.4288 99.2623C58.4288 99.2167 58.6471 99.1803 58.9198 99.1803C59.1926 99.1803 59.4108 99.1439 59.4108 99.0984C59.4108 99.0528 59.629 99.0164 59.9018 99.0164C60.1745 99.0164 60.3928 98.98 60.3928 98.9344C60.3928 98.8893 60.5401 98.8525 60.7201 98.8525C60.9002 98.8525 61.0475 98.8156 61.0475 98.7705C61.0475 98.7254 61.1948 98.6885 61.3748 98.6885C61.5548 98.6885 61.7021 98.6516 61.7021 98.6066C61.7021 98.5615 61.8126 98.5246 61.9476 98.5246C62.0826 98.5246 62.1931 98.4877 62.1931 98.4426C62.1931 98.3975 62.3404 98.3607 62.5205 98.3607C62.7005 98.3607 62.8478 98.3238 62.8478 98.2787C62.8478 98.2336 62.9951 98.1967 63.1751 98.1967C63.3552 98.1967 63.5025 98.1598 63.5025 98.1148C63.5025 98.0697 63.6866 98.0328 63.9116 98.0328C64.1367 98.0328 64.3208 97.9959 64.3208 97.9508C64.3208 97.9057 64.4313 97.8689 64.5663 97.8689C64.7013 97.8689 64.8118 97.832 64.8118 97.7869C64.8118 97.7418 64.9223 97.7049 65.0573 97.7049C65.1923 97.7049 65.3028 97.668 65.3028 97.6229C65.3028 97.5779 65.4133 97.541 65.5483 97.541C65.6833 97.541 65.7938 97.5041 65.7938 97.459C65.7938 97.4139 65.9043 97.377 66.0393 97.377C66.1743 97.377 66.2848 97.3402 66.2848 97.2951C66.2848 97.25 66.3953 97.2131 66.5303 97.2131C66.6653 97.2131 66.7758 97.1762 66.7758 97.1311C66.7758 97.0861 66.8494 97.0492 66.9394 97.0492C67.0295 97.0492 67.1031 97.0123 67.1031 96.9672C67.1031 96.9221 67.2136 96.8852 67.3486 96.8852C67.4836 96.8852 67.5941 96.8484 67.5941 96.8033C67.5941 96.7582 67.7046 96.7213 67.8396 96.7213C67.9746 96.7213 68.0851 96.6844 68.0851 96.6393C68.0851 96.5943 68.1588 96.5574 68.2488 96.5574C68.3388 96.5574 68.4124 96.5205 68.4124 96.4754C68.4124 96.4303 68.4861 96.3934 68.5761 96.3934C68.6661 96.3934 68.7398 96.3566 68.7398 96.3115C68.7398 96.2664 68.8502 96.2295 68.9853 96.2295C69.1203 96.2295 69.2308 96.1926 69.2308 96.1475C69.2308 96.1025 69.3044 96.0656 69.3944 96.0656C69.4844 96.0656 69.5581 96.0287 69.5581 95.9836C69.5581 95.9385 69.6317 95.9016 69.7218 95.9016C69.8118 95.9016 69.8854 95.8648 69.8854 95.8197C69.8854 95.7746 69.9959 95.7377 70.1309 95.7377C70.266 95.7377 70.3764 95.7008 70.3764 95.6557C70.3764 95.6107 70.4501 95.5738 70.5401 95.5738C70.6301 95.5738 70.7038 95.5369 70.7038 95.4918C70.7038 95.4467 70.7774 95.4098 70.8674 95.4098C70.9574 95.4098 71.0311 95.3729 71.0311 95.3279C71.0311 95.2828 71.1416 95.2459 71.2766 95.2459C71.4116 95.2459 71.5221 95.209 71.5221 95.1639C71.5221 95.1189 71.5876 95.082 71.6677 95.082C71.7478 95.082 71.8664 95.0082 71.9313 94.918C71.9962 94.8279 72.1147 94.7541 72.1948 94.7541C72.2749 94.7541 72.3404 94.7172 72.3404 94.6721C72.3404 94.627 72.4141 94.5902 72.5041 94.5902C72.5941 94.5902 72.6678 94.5533 72.6678 94.5082C72.6678 94.4631 72.7414 94.4262 72.8314 94.4262C72.9214 94.4262 72.9951 94.3893 72.9951 94.3443C72.9951 94.2992 73.0687 94.2623 73.1588 94.2623C73.2488 94.2623 73.3224 94.2254 73.3224 94.1803C73.3224 94.1352 73.3961 94.0984 73.4861 94.0984C73.5761 94.0984 73.6498 94.0615 73.6498 94.0164C73.6498 93.9713 73.7234 93.9344 73.8134 93.9344C73.9034 93.9344 73.9771 93.8975 73.9771 93.8525C73.9771 93.8074 74.0507 93.7705 74.1407 93.7705C74.2308 93.7705 74.3044 93.7336 74.3044 93.6885C74.3044 93.6434 74.3781 93.6066 74.4681 93.6066C74.5581 93.6066 74.6317 93.5697 74.6317 93.5246C74.6317 93.4795 74.6973 93.4426 74.7773 93.4426C74.8574 93.4426 74.976 93.3689 75.0409 93.2787C75.1058 93.1885 75.2244 93.1148 75.3045 93.1148C75.3845 93.1148 75.4501 93.0779 75.4501 93.0328C75.4501 92.9877 75.5156 92.9508 75.5957 92.9508C75.6758 92.9508 75.7944 92.877 75.8592 92.7869C75.9241 92.6967 76.0346 92.6229 76.1047 92.6229C76.1749 92.6229 76.2853 92.5492 76.3502 92.459C76.4151 92.3689 76.5337 92.2951 76.6138 92.2951C76.6939 92.2951 76.7594 92.2582 76.7594 92.2131C76.7594 92.168 76.825 92.1311 76.905 92.1311C76.9851 92.1311 77.1037 92.0574 77.1686 91.9672C77.2335 91.877 77.3439 91.8033 77.4141 91.8033C77.4842 91.8033 77.5947 91.7295 77.6596 91.6393C77.7245 91.5492 77.8283 91.4754 77.8903 91.4754C77.9523 91.4754 78.1063 91.3648 78.2324 91.2295C78.3585 91.0943 78.5125 90.9836 78.5745 90.9836C78.6365 90.9836 78.7403 90.9098 78.8052 90.8197C78.8701 90.7295 78.974 90.6557 79.036 90.6557C79.098 90.6557 79.252 90.5451 79.3781 90.4098C79.5042 90.2746 79.6515 90.1639 79.7054 90.1639C79.7593 90.1639 79.9066 90.0533 80.0327 89.918C80.1588 89.7828 80.3209 89.6721 80.3929 89.6721C80.4649 89.6721 80.5237 89.6352 80.5237 89.5902C80.5237 89.5451 80.581 89.5082 80.651 89.5082C80.721 89.5082 80.9952 89.2869 81.2602 89.0164C81.5253 88.7459 81.7834 88.5246 81.8339 88.5246C81.8843 88.5246 82.1048 88.3402 82.3241 88.1148C82.5433 87.8893 82.7626 87.7049 82.8115 87.7049C82.8605 87.7049 83.4881 87.1148 84.2062 86.3934C84.9243 85.6721 85.5521 85.082 85.6014 85.082C85.7174 85.082 85.9247 84.8738 85.9247 84.7574C85.9247 84.7076 86.3298 84.2635 86.8249 83.7705C87.32 83.2775 87.725 82.8336 87.725 82.7842C87.725 82.7348 87.9092 82.5147 88.1342 82.2951C88.3592 82.0755 88.5434 81.8546 88.5434 81.8041C88.5434 81.7535 88.7643 81.495 89.0344 81.2295C89.3044 80.964 89.5254 80.7042 89.5254 80.6522C89.5254 80.6002 89.6358 80.4542 89.7709 80.3279C89.9059 80.2016 90.0164 80.054 90.0164 80C90.0164 79.946 90.1268 79.7984 90.2619 79.6721C90.3969 79.5458 90.5074 79.3916 90.5074 79.3295C90.5074 79.2674 90.581 79.1634 90.671 79.0984C90.761 79.0334 90.8347 78.9293 90.8347 78.8672C90.8347 78.8052 90.9452 78.6509 91.0802 78.5246C91.2152 78.3983 91.3257 78.244 91.3257 78.182C91.3257 78.1198 91.3993 78.0158 91.4894 77.9508C91.5794 77.8858 91.653 77.7671 91.653 77.6868C91.653 77.6066 91.6898 77.541 91.7349 77.541C91.7799 77.541 91.8167 77.4753 91.8167 77.3952C91.8167 77.3149 91.8903 77.1961 91.9804 77.1311C92.0704 77.0661 92.144 76.9555 92.144 76.8852C92.144 76.815 92.2177 76.7043 92.3077 76.6393C92.3977 76.5743 92.4714 76.4637 92.4714 76.3934C92.4714 76.3232 92.545 76.2125 92.635 76.1475C92.725 76.0825 92.7987 75.9719 92.7987 75.9016C92.7987 75.8314 92.8723 75.7207 92.9624 75.6557C93.0524 75.5907 93.126 75.472 93.126 75.3917C93.126 75.3116 93.1628 75.2459 93.2079 75.2459C93.2529 75.2459 93.2897 75.1721 93.2897 75.082C93.2897 74.9918 93.3265 74.918 93.3715 74.918C93.4165 74.918 93.4534 74.8443 93.4534 74.7541C93.4534 74.6639 93.4902 74.5902 93.5352 74.5902C93.5802 74.5902 93.617 74.5245 93.617 74.4443C93.617 74.3641 93.6907 74.2453 93.7807 74.1803C93.8707 74.1153 93.9443 73.9966 93.9443 73.9163C93.9443 73.8362 93.9812 73.7705 94.0262 73.7705C94.0712 73.7705 94.108 73.6967 94.108 73.6066C94.108 73.5164 94.1448 73.4426 94.1898 73.4426C94.2349 73.4426 94.2717 73.3689 94.2717 73.2787C94.2717 73.1885 94.3085 73.1148 94.3535 73.1148C94.3985 73.1148 94.4353 73.041 94.4353 72.9508C94.4353 72.8607 94.4722 72.7869 94.5172 72.7869C94.5622 72.7869 94.599 72.7131 94.599 72.623C94.599 72.5328 94.6358 72.459 94.6808 72.459C94.7259 72.459 94.7627 72.3852 94.7627 72.2951C94.7627 72.2049 94.7995 72.1311 94.8445 72.1311C94.8895 72.1311 94.9263 72.0574 94.9263 71.9672C94.9263 71.877 94.9632 71.8033 95.0082 71.8033C95.0532 71.8033 95.09 71.7295 95.09 71.6393C95.09 71.5492 95.1268 71.4754 95.1718 71.4754C95.2169 71.4754 95.2537 71.4016 95.2537 71.3115C95.2537 71.2213 95.2905 71.1475 95.3355 71.1475C95.3805 71.1475 95.4173 71.0738 95.4173 70.9836C95.4173 70.8934 95.4542 70.8197 95.4992 70.8197C95.5442 70.8197 95.581 70.709 95.581 70.5738C95.581 70.4385 95.6178 70.3279 95.6628 70.3279C95.7079 70.3279 95.7447 70.2541 95.7447 70.1639C95.7447 70.0738 95.7815 70 95.8265 70C95.8715 70 95.9083 69.9262 95.9083 69.8361C95.9083 69.7459 95.9452 69.6721 95.9902 69.6721C96.0352 69.6721 96.072 69.5615 96.072 69.4262C96.072 69.291 96.1088 69.1803 96.1538 69.1803C96.1989 69.1803 96.2357 69.1066 96.2357 69.0164C96.2357 68.9262 96.2725 68.8525 96.3175 68.8525C96.3625 68.8525 96.3993 68.7787 96.3993 68.6885C96.3993 68.5984 96.4362 68.5246 96.4812 68.5246C96.5262 68.5246 96.563 68.4139 96.563 68.2787C96.563 68.1434 96.5998 68.0328 96.6448 68.0328C96.6898 68.0328 96.7267 67.959 96.7267 67.8689C96.7267 67.7787 96.7635 67.7049 96.8085 67.7049C96.8535 67.7049 96.8903 67.5943 96.8903 67.459C96.8903 67.3238 96.9272 67.2131 96.9722 67.2131C97.0172 67.2131 97.054 67.1025 97.054 66.9672C97.054 66.832 97.0908 66.7213 97.1358 66.7213C97.1808 66.7213 97.2177 66.6107 97.2177 66.4754C97.2177 66.3402 97.2545 66.2295 97.2995 66.2295C97.3445 66.2295 97.3813 66.1189 97.3813 65.9836C97.3813 65.8484 97.4182 65.7377 97.4632 65.7377C97.5082 65.7377 97.545 65.627 97.545 65.4918C97.545 65.3566 97.5818 65.2459 97.6268 65.2459C97.6718 65.2459 97.7087 65.1352 97.7087 65C97.7087 64.8648 97.7455 64.7541 97.7905 64.7541C97.8355 64.7541 97.8723 64.6434 97.8723 64.5082C97.8723 64.373 97.9092 64.2623 97.9542 64.2623C97.9992 64.2623 98.036 64.1516 98.036 64.0164C98.036 63.8811 98.0728 63.7705 98.1178 63.7705C98.1628 63.7705 98.1997 63.623 98.1997 63.4426C98.1997 63.2623 98.2365 63.1148 98.2815 63.1148C98.3265 63.1148 98.3633 62.9672 98.3633 62.7869C98.3633 62.6066 98.4002 62.459 98.4452 62.459C98.4902 62.459 98.527 62.3115 98.527 62.1311C98.527 61.9508 98.5638 61.8033 98.6088 61.8033C98.6538 61.8033 98.6907 61.6557 98.6907 61.4754C98.6907 61.2951 98.7275 61.1475 98.7725 61.1475C98.8175 61.1475 98.8543 60.9631 98.8543 60.7377C98.8543 60.5123 98.8912 60.3279 98.9362 60.3279C98.9812 60.3279 99.018 60.1434 99.018 59.918C99.018 59.6926 99.0548 59.5082 99.0998 59.5082C99.1448 59.5082 99.1817 59.3238 99.1817 59.0984C99.1817 58.873 99.2185 58.6885 99.2635 58.6885C99.309 58.6885 99.3453 58.4699 99.3453 58.1967C99.3453 57.9235 99.3817 57.7049 99.4272 57.7049C99.4739 57.7049 99.509 57.459 99.509 57.1311C99.509 56.8033 99.5441 56.5574 99.5908 56.5574C99.6385 56.5574 99.6727 56.2842 99.6727 55.9016C99.6727 55.5191 99.7068 55.2459 99.7545 55.2459C99.8048 55.2459 99.8363 54.8361 99.8363 54.1803C99.8363 53.5246 99.8678 53.1148 99.9182 53.1148C99.9713 53.1148 100 52.0219 100 50C100 47.9781 99.9713 46.8852 99.9182 46.8852C99.8678 46.8852 99.8363 46.4754 99.8363 45.8197C99.8363 45.1639 99.8048 44.7541 99.7545 44.7541C99.709 44.7541 99.6727 44.5355 99.6727 44.2623C99.6727 43.9891 99.6363 43.7705 99.5908 43.7705C99.5423 43.7705 99.509 43.4699 99.509 43.0328C99.509 42.5957 99.4757 42.2951 99.4272 42.2951C99.3817 42.2951 99.3453 42.0765 99.3453 41.8033C99.3453 41.5301 99.309 41.3115 99.2635 41.3115C99.2185 41.3115 99.1817 41.127 99.1817 40.9016C99.1817 40.6762 99.1448 40.4918 99.0998 40.4918C99.0548 40.4918 99.018 40.3074 99.018 40.082C99.018 39.8566 98.9812 39.6721 98.9362 39.6721C98.8912 39.6721 98.8543 39.4877 98.8543 39.2623C98.8543 39.0369 98.8175 38.8525 98.7725 38.8525C98.7275 38.8525 98.6907 38.7049 98.6907 38.5246C98.6907 38.3443 98.6538 38.1967 98.6088 38.1967C98.5638 38.1967 98.527 38.0492 98.527 37.8689C98.527 37.6885 98.4902 37.541 98.4452 37.541C98.4002 37.541 98.3633 37.3934 98.3633 37.2131C98.3633 37.0328 98.3265 36.8852 98.2815 36.8852C98.2365 36.8852 98.1997 36.7746 98.1997 36.6393C98.1997 36.5041 98.1628 36.3934 98.1178 36.3934C98.0728 36.3934 98.036 36.2828 98.036 36.1475C98.036 36.0123 97.9992 35.9016 97.9542 35.9016C97.9092 35.9016 97.8723 35.7541 97.8723 35.5738C97.8723 35.3934 97.8355 35.2459 97.7905 35.2459C97.7455 35.2459 97.7087 35.1352 97.7087 35C97.7087 34.8648 97.6718 34.7541 97.6268 34.7541C97.5818 34.7541 97.545 34.6434 97.545 34.5082C97.545 34.373 97.5082 34.2623 97.4632 34.2623C97.4182 34.2623 97.3813 34.1516 97.3813 34.0164C97.3813 33.8811 97.3445 33.7705 97.2995 33.7705C97.2545 33.7705 97.2177 33.6598 97.2177 33.5246C97.2177 33.3893 97.1808 33.2787 97.1358 33.2787C97.0908 33.2787 97.054 33.168 97.054 33.0328C97.054 32.8975 97.0172 32.7869 96.9722 32.7869C96.9272 32.7869 96.8903 32.7131 96.8903 32.623C96.8903 32.5328 96.8535 32.459 96.8085 32.459C96.7635 32.459 96.7267 32.3484 96.7267 32.2131C96.7267 32.0779 96.6898 31.9672 96.6448 31.9672C96.5998 31.9672 96.563 31.8934 96.563 31.8033C96.563 31.7131 96.5262 31.6393 96.4812 31.6393C96.4362 31.6393 96.3993 31.5287 96.3993 31.3934C96.3993 31.2582 96.3625 31.1475 96.3175 31.1475C96.2725 31.1475 96.2357 31.0738 96.2357 30.9836C96.2357 30.8934 96.1989 30.8197 96.1538 30.8197C96.1088 30.8197 96.072 30.709 96.072 30.5738C96.072 30.4385 96.0352 30.3279 95.9902 30.3279C95.9452 30.3279 95.9083 30.2541 95.9083 30.1639C95.9083 30.0738 95.8715 30 95.8265 30C95.7815 30 95.7447 29.9262 95.7447 29.8361C95.7447 29.7459 95.7079 29.6721 95.6628 29.6721C95.6178 29.6721 95.581 29.5615 95.581 29.4262C95.581 29.291 95.5442 29.1803 95.4992 29.1803C95.4542 29.1803 95.4173 29.1066 95.4173 29.0164C95.4173 28.9262 95.3805 28.8525 95.3355 28.8525C95.2905 28.8525 95.2537 28.7787 95.2537 28.6885C95.2537 28.5984 95.2169 28.5246 95.1718 28.5246C95.1268 28.5246 95.09 28.4508 95.09 28.3607C95.09 28.2705 95.0532 28.1967 95.0082 28.1967C94.9632 28.1967 94.9263 28.123 94.9263 28.0328C94.9263 27.9426 94.8895 27.8689 94.8445 27.8689C94.7995 27.8689 94.7627 27.7951 94.7627 27.7049C94.7627 27.6148 94.7259 27.541 94.6808 27.541C94.6358 27.541 94.599 27.4672 94.599 27.377C94.599 27.2869 94.5622 27.2131 94.5172 27.2131C94.4722 27.2131 94.4353 27.1393 94.4353 27.0492C94.4353 26.959 94.3985 26.8852 94.3535 26.8852C94.3085 26.8852 94.2717 26.8196 94.2717 26.7394C94.2717 26.6592 94.198 26.5404 94.108 26.4754C94.018 26.4104 93.9443 26.2916 93.9443 26.2114C93.9443 26.1312 93.9075 26.0656 93.8625 26.0656C93.8175 26.0656 93.7807 25.9918 93.7807 25.9016C93.7807 25.8115 93.7439 25.7377 93.6989 25.7377C93.6538 25.7377 93.617 25.672 93.617 25.5919C93.617 25.5116 93.5434 25.3929 93.4534 25.3279C93.3633 25.2629 93.2897 25.1441 93.2897 25.0639C93.2897 24.9837 93.2529 24.918 93.2079 24.918C93.1628 24.918 93.126 24.8524 93.126 24.7722C93.126 24.692 93.0524 24.5732 92.9624 24.5082C92.8723 24.4432 92.7987 24.3244 92.7987 24.2442C92.7987 24.164 92.7619 24.0984 92.7169 24.0984C92.6718 24.0984 92.635 24.0327 92.635 23.9525C92.635 23.8723 92.5614 23.7535 92.4714 23.6885C92.3813 23.6235 92.3077 23.5129 92.3077 23.4426C92.3077 23.3724 92.234 23.2617 92.144 23.1967C92.054 23.1317 91.9804 23.0211 91.9804 22.9508C91.9804 22.8806 91.9067 22.7699 91.8167 22.7049C91.7267 22.6399 91.653 22.5293 91.653 22.459C91.653 22.3888 91.5794 22.2781 91.4894 22.2131C91.3993 22.1481 91.3257 22.0375 91.3257 21.9672C91.3257 21.897 91.252 21.7863 91.162 21.7213C91.072 21.6563 90.9984 21.5457 90.9984 21.4754C90.9984 21.4052 90.9247 21.2945 90.8347 21.2295C90.7447 21.1645 90.671 21.0539 90.671 20.9836C90.671 20.9134 90.5974 20.8027 90.5074 20.7377C90.4173 20.6727 90.3437 20.5687 90.3437 20.5066C90.3437 20.4445 90.2332 20.2902 90.0982 20.1639C89.9632 20.0376 89.8527 19.8913 89.8527 19.8389C89.8527 19.7864 89.6686 19.5639 89.4435 19.3443C89.2185 19.1247 89.0344 18.9029 89.0344 18.8514C89.0344 18.7998 88.8871 18.6159 88.707 18.4426C88.527 18.2693 88.3797 18.0854 88.3797 18.0338C88.3797 17.9824 88.1956 17.7606 87.9705 17.541C87.7455 17.3214 87.5614 17.1024 87.5614 17.0541C87.5614 16.9396 83.2518 12.623 83.1375 12.623C83.0893 12.623 82.8706 12.4385 82.6514 12.2131C82.4322 11.9877 82.2116 11.8033 82.1612 11.8033C82.1107 11.8033 81.8526 11.582 81.5876 11.3115C81.3225 11.041 81.0639 10.8197 81.0128 10.8197C80.9618 10.8197 80.7786 10.6721 80.6056 10.4918C80.4326 10.3115 80.2477 10.1639 80.1948 10.1639C80.1417 10.1639 79.9952 10.0533 79.8691 9.91803C79.743 9.78279 79.5809 9.67213 79.5089 9.67213C79.4369 9.67213 79.3781 9.63525 79.3781 9.59016C79.3781 9.54508 79.3192 9.5082 79.2472 9.5082C79.1753 9.5082 79.0132 9.39754 78.8871 9.26229C78.761 9.12705 78.607 9.01639 78.545 9.01639C78.483 9.01639 78.3791 8.94262 78.3142 8.85246C78.2493 8.76229 78.1389 8.68852 78.0687 8.68852C77.9986 8.68852 77.8881 8.61475 77.8232 8.52459C77.7583 8.43443 77.6479 8.36066 77.5777 8.36066C77.5076 8.36066 77.3971 8.28689 77.3322 8.19672C77.2673 8.10656 77.1569 8.03279 77.0867 8.03279C77.0166 8.03279 76.9061 7.95902 76.8412 7.86885C76.7763 7.77869 76.6578 7.70492 76.5777 7.70492C76.4976 7.70492 76.4321 7.66803 76.4321 7.62295C76.4321 7.57787 76.3665 7.54098 76.2865 7.54098C76.2064 7.54098 76.0878 7.46721 76.0229 7.37705C75.958 7.28689 75.8475 7.21311 75.7774 7.21311C75.7073 7.21311 75.5968 7.13934 75.5319 7.04918C75.467 6.95902 75.3484 6.88525 75.2683 6.88525C75.1883 6.88525 75.1227 6.84836 75.1227 6.80328C75.1227 6.7582 75.0491 6.72131 74.9591 6.72131C74.8691 6.72131 74.7954 6.68443 74.7954 6.63934C74.7954 6.59426 74.7218 6.55738 74.6317 6.55738C74.5417 6.55738 74.4681 6.52049 74.4681 6.47541C74.4681 6.43033 74.4025 6.39344 74.3225 6.39344C74.2424 6.39344 74.1238 6.31967 74.0589 6.22951C73.994 6.13934 73.8755 6.06557 73.7953 6.06557C73.7153 6.06557 73.6498 6.02869 73.6498 5.98361C73.6498 5.93852 73.5761 5.90164 73.4861 5.90164C73.3961 5.90164 73.3224 5.86475 73.3224 5.81967C73.3224 5.77459 73.2569 5.7377 73.1768 5.7377C73.0967 5.7377 72.9781 5.66393 72.9133 5.57377C72.8439 5.47754 72.7014 5.40984 72.5678 5.40984C72.4428 5.40984 72.3404 5.37295 72.3404 5.32787C72.3404 5.28279 72.2668 5.2459 72.1768 5.2459C72.0867 5.2459 72.0131 5.20902 72.0131 5.16393C72.0131 5.11885 71.9394 5.08197 71.8494 5.08197C71.7594 5.08197 71.6858 5.04508 71.6858 5C71.6858 4.95492 71.6121 4.91803 71.5221 4.91803C71.4321 4.91803 71.3584 4.88115 71.3584 4.83607C71.3584 4.79098 71.2848 4.7541 71.1948 4.7541C71.1047 4.7541 71.0311 4.71721 71.0311 4.67213C71.0311 4.62705 70.9574 4.59016 70.8674 4.59016C70.7774 4.59016 70.7038 4.55328 70.7038 4.5082C70.7038 4.46311 70.6301 4.42623 70.5401 4.42623C70.4501 4.42623 70.3764 4.38934 70.3764 4.34426C70.3764 4.29918 70.266 4.2623 70.1309 4.2623C69.9959 4.2623 69.8854 4.22541 69.8854 4.18033C69.8854 4.13525 69.8118 4.09836 69.7218 4.09836C69.6317 4.09836 69.5581 4.06148 69.5581 4.01639C69.5581 3.97131 69.4844 3.93443 69.3944 3.93443C69.3044 3.93443 69.2308 3.89754 69.2308 3.85246C69.2308 3.80738 69.1203 3.77049 68.9853 3.77049C68.8502 3.77049 68.7398 3.73361 68.7398 3.68852C68.7398 3.64344 68.6293 3.60656 68.4943 3.60656C68.3592 3.60656 68.2488 3.56967 68.2488 3.52459C68.2488 3.47951 68.1751 3.44262 68.0851 3.44262C67.9951 3.44262 67.9214 3.40574 67.9214 3.36066C67.9214 3.31557 67.8478 3.27869 67.7578 3.27869C67.6678 3.27869 67.5941 3.2418 67.5941 3.19672C67.5941 3.15164 67.4836 3.11475 67.3486 3.11475C67.2136 3.11475 67.1031 3.07787 67.1031 3.03279C67.1031 2.9877 66.9926 2.95082 66.8576 2.95082C66.7226 2.95082 66.6121 2.91393 66.6121 2.86885C66.6121 2.82377 66.5016 2.78689 66.3666 2.78689C66.2316 2.78689 66.1211 2.75 66.1211 2.70492C66.1211 2.65984 66.0106 2.62295 65.8756 2.62295C65.7406 2.62295 65.6301 2.58607 65.6301 2.54098C65.6301 2.4959 65.5196 2.45902 65.3846 2.45902C65.2496 2.45902 65.1391 2.42213 65.1391 2.37705C65.1391 2.33197 65.0286 2.29508 64.8936 2.29508C64.7586 2.29508 64.6481 2.2582 64.6481 2.21311C64.6481 2.16803 64.5376 2.13115 64.4026 2.13115C64.2676 2.13115 64.1571 2.09426 64.1571 2.04918C64.1571 2.0041 64.0098 1.96721 63.8298 1.96721C63.6498 1.96721 63.5025 1.93033 63.5025 1.88525C63.5025 1.84016 63.3552 1.80328 63.1751 1.80328C62.9951 1.80328 62.8478 1.76639 62.8478 1.72131C62.8478 1.67623 62.7005 1.63934 62.5205 1.63934C62.3404 1.63934 62.1931 1.60246 62.1931 1.55738C62.1931 1.5123 62.0826 1.47541 61.9476 1.47541C61.8126 1.47541 61.7021 1.43852 61.7021 1.39344C61.7021 1.34836 61.5548 1.31148 61.3748 1.31148C61.1948 1.31148 61.0475 1.27459 61.0475 1.22951C61.0475 1.18443 60.9002 1.14754 60.7201 1.14754C60.5401 1.14754 60.3928 1.11066 60.3928 1.06557C60.3928 1.02 60.1745 0.983607 59.9018 0.983607C59.629 0.983607 59.4108 0.947213 59.4108 0.901639C59.4108 0.856066 59.1926 0.819672 58.9198 0.819672C58.6471 0.819672 58.4288 0.783279 58.4288 0.737705C58.4288 0.692131 58.2106 0.655738 57.9378 0.655738C57.6651 0.655738 57.4468 0.619344 57.4468 0.57377C57.4468 0.525984 57.1741 0.491803 56.7921 0.491803C56.4102 0.491803 56.1375 0.457623 56.1375 0.409836C56.1375 0.364262 55.9192 0.327869 55.6465 0.327869C55.3737 0.327869 55.1555 0.291475 55.1555 0.245902C55.1555 0.195492 54.7463 0.163934 54.0917 0.163934C53.437 0.163934 53.0278 0.132377 53.0278 0.0819672C53.0278 0.0288525 51.9912 0 50.0818 0C48.1724 0 47.1358 0.0288525 47.1358 0.0819672ZM59.2471 17.459C59.2471 17.5118 60.0927 17.541 61.6203 17.541C63.1479 17.541 63.9935 17.5702 63.9935 17.623C63.9935 17.6726 64.348 17.7049 64.8936 17.7049C65.4392 17.7049 65.7938 17.7372 65.7938 17.7869C65.7938 17.8347 66.0665 17.8689 66.4484 17.8689C66.8304 17.8689 67.1031 17.903 67.1031 17.9508C67.1031 17.9959 67.2872 18.0328 67.5123 18.0328C67.7373 18.0328 67.9214 18.0697 67.9214 18.1148C67.9214 18.1598 68.1056 18.1967 68.3306 18.1967C68.5556 18.1967 68.7398 18.2336 68.7398 18.2787C68.7398 18.3238 68.8871 18.3607 69.0671 18.3607C69.2471 18.3607 69.3944 18.3975 69.3944 18.4426C69.3944 18.4877 69.5049 18.5246 69.6399 18.5246C69.775 18.5246 69.8854 18.5615 69.8854 18.6066C69.8854 18.6516 69.9959 18.6885 70.1309 18.6885C70.266 18.6885 70.3764 18.7254 70.3764 18.7705C70.3764 18.8156 70.5237 18.8525 70.7038 18.8525C70.8838 18.8525 71.0311 18.8893 71.0311 18.9344C71.0311 18.9795 71.1416 19.0164 71.2766 19.0164C71.4116 19.0164 71.5221 19.0533 71.5221 19.0984C71.5221 19.1434 71.5957 19.1803 71.6858 19.1803C71.7758 19.1803 71.8494 19.2172 71.8494 19.2623C71.8494 19.3074 71.9231 19.3443 72.0131 19.3443C72.1031 19.3443 72.1768 19.3811 72.1768 19.4262C72.1768 19.4713 72.2504 19.5082 72.3404 19.5082C72.4304 19.5082 72.5041 19.5451 72.5041 19.5902C72.5041 19.6352 72.5777 19.6721 72.6678 19.6721C72.7578 19.6721 72.8314 19.709 72.8314 19.7541C72.8314 19.7992 72.9338 19.8361 73.0588 19.8361C73.1924 19.8361 73.3349 19.9038 73.4043 20C73.4691 20.0902 73.5877 20.1639 73.6678 20.1639C73.7479 20.1639 73.8134 20.2008 73.8134 20.2459C73.8134 20.291 73.879 20.3279 73.959 20.3279C74.0391 20.3279 74.1577 20.4016 74.2226 20.4918C74.2875 20.582 74.398 20.6557 74.4681 20.6557C74.5382 20.6557 74.6487 20.7295 74.7136 20.8197C74.7785 20.9098 74.8815 20.9836 74.9426 20.9836C75.0038 20.9836 75.1953 21.1311 75.3682 21.3115C75.5412 21.4918 75.7261 21.6393 75.779 21.6393C75.8321 21.6393 75.9786 21.75 76.1047 21.8852C76.2308 22.0205 76.375 22.1311 76.425 22.1311C76.5438 22.1311 78.0687 23.6586 78.0687 23.7775C78.0687 23.8276 78.1792 23.972 78.3142 24.0984C78.4493 24.2247 78.5597 24.3722 78.5597 24.4262C78.5597 24.4802 78.6702 24.6278 78.8052 24.7541C78.9403 24.8804 79.0507 25.0347 79.0507 25.0967C79.0507 25.1589 79.1244 25.2629 79.2144 25.3279C79.3044 25.3929 79.3781 25.5035 79.3781 25.5738C79.3781 25.644 79.4517 25.7547 79.5417 25.8197C79.6317 25.8847 79.7054 26.0034 79.7054 26.0837C79.7054 26.1638 79.7422 26.2295 79.7872 26.2295C79.8322 26.2295 79.8691 26.2952 79.8691 26.3753C79.8691 26.4556 79.9427 26.5743 80.0327 26.6393C80.1227 26.7043 80.1964 26.8231 80.1964 26.9034C80.1964 26.9835 80.2332 27.0492 80.2782 27.0492C80.3232 27.0492 80.3601 27.123 80.3601 27.2131C80.3601 27.3033 80.3969 27.377 80.4419 27.377C80.4869 27.377 80.5237 27.4877 80.5237 27.623C80.5237 27.7582 80.5606 27.8689 80.6056 27.8689C80.6506 27.8689 80.6874 27.9426 80.6874 28.0328C80.6874 28.123 80.7242 28.1967 80.7692 28.1967C80.8142 28.1967 80.8511 28.2705 80.8511 28.3607C80.8511 28.4508 80.8879 28.5246 80.9329 28.5246C80.9779 28.5246 81.0147 28.6352 81.0147 28.7705C81.0147 28.9057 81.0516 29.0164 81.0966 29.0164C81.1416 29.0164 81.1784 29.127 81.1784 29.2623C81.1784 29.3975 81.2152 29.5082 81.2602 29.5082C81.3052 29.5082 81.3421 29.6189 81.3421 29.7541C81.3421 29.8893 81.3789 30 81.4239 30C81.4689 30 81.5057 30.1107 81.5057 30.2459C81.5057 30.3811 81.5425 30.4918 81.5876 30.4918C81.6326 30.4918 81.6694 30.6762 81.6694 30.9016C81.6694 31.127 81.7062 31.3115 81.7512 31.3115C81.7962 31.3115 81.8331 31.459 81.8331 31.6393C81.8331 31.8197 81.8699 31.9672 81.9149 31.9672C81.9604 31.9672 81.9967 32.1858 81.9967 32.459C81.9967 32.7322 82.0331 32.9508 82.0786 32.9508C82.1253 32.9508 82.1604 33.1967 82.1604 33.5246C82.1604 33.8525 82.1955 34.0984 82.2422 34.0984C82.2925 34.0984 82.3241 34.5082 82.3241 35.1639C82.3241 35.8197 82.3556 36.2295 82.4059 36.2295C82.4584 36.2295 82.4877 37.0219 82.4877 38.4426C82.4877 39.8634 82.517 40.6557 82.5696 40.6557C82.6236 40.6557 82.6514 43.9891 82.6514 50.4918C82.6514 56.9945 82.6236 60.3279 82.5696 60.3279C82.5175 60.3279 82.4877 60.9836 82.4877 62.1311C82.4877 63.2787 82.4579 63.9344 82.4059 63.9344C82.3559 63.9344 82.3241 64.317 82.3241 64.918C82.3241 65.5191 82.2922 65.9016 82.2422 65.9016C82.1945 65.9016 82.1604 66.1748 82.1604 66.5574C82.1604 66.9399 82.1263 67.2131 82.0786 67.2131C82.0335 67.2131 81.9967 67.3975 81.9967 67.623C81.9967 67.8484 81.9599 68.0328 81.9149 68.0328C81.8699 68.0328 81.8331 68.2172 81.8331 68.4426C81.8331 68.668 81.7962 68.8525 81.7512 68.8525C81.7062 68.8525 81.6694 68.9631 81.6694 69.0984C81.6694 69.2336 81.6326 69.3443 81.5876 69.3443C81.5425 69.3443 81.5057 69.4918 81.5057 69.6721C81.5057 69.8525 81.4689 70 81.4239 70C81.3789 70 81.3421 70.1107 81.3421 70.2459C81.3421 70.3811 81.3052 70.4918 81.2602 70.4918C81.2152 70.4918 81.1784 70.6025 81.1784 70.7377C81.1784 70.873 81.1416 70.9836 81.0966 70.9836C81.0516 70.9836 81.0147 71.0943 81.0147 71.2295C81.0147 71.3648 80.9779 71.4754 80.9329 71.4754C80.8879 71.4754 80.8511 71.5492 80.8511 71.6393C80.8511 71.7295 80.8142 71.8033 80.7692 71.8033C80.7242 71.8033 80.6874 71.9139 80.6874 72.0492C80.6874 72.1844 80.6506 72.2951 80.6056 72.2951C80.5606 72.2951 80.5237 72.3689 80.5237 72.459C80.5237 72.5492 80.4869 72.623 80.4419 72.623C80.3969 72.623 80.3601 72.6967 80.3601 72.7869C80.3601 72.877 80.3232 72.9508 80.2782 72.9508C80.2332 72.9508 80.1964 73.0246 80.1964 73.1148C80.1964 73.2049 80.1596 73.2787 80.1146 73.2787C80.0696 73.2787 80.0327 73.3443 80.0327 73.4245C80.0327 73.5048 79.9591 73.6235 79.8691 73.6885C79.779 73.7535 79.7054 73.8723 79.7054 73.9525C79.7054 74.0327 79.6686 74.0984 79.6236 74.0984C79.5786 74.0984 79.5417 74.1573 79.5417 74.2294C79.5417 74.3015 79.4313 74.4639 79.2962 74.5902C79.1612 74.7165 79.0507 74.864 79.0507 74.918C79.0507 74.972 78.9403 75.1196 78.8052 75.2459C78.6702 75.3722 78.5597 75.519 78.5597 75.5721C78.5597 75.6252 78.4124 75.8103 78.2324 75.9836C78.0524 76.1569 77.9051 76.3389 77.9051 76.388C77.9051 76.5048 76.3796 78.0328 76.263 78.0328C76.2139 78.0328 76.0322 78.1803 75.8592 78.3607C75.6862 78.541 75.4948 78.6885 75.4336 78.6885C75.3725 78.6885 75.2695 78.7623 75.2046 78.8525C75.1397 78.9426 75.0292 79.0164 74.9591 79.0164C74.8889 79.0164 74.7785 79.0902 74.7136 79.1803C74.6487 79.2705 74.5382 79.3443 74.4681 79.3443C74.398 79.3443 74.2875 79.418 74.2226 79.5082C74.1577 79.5984 74.0391 79.6721 73.959 79.6721C73.879 79.6721 73.8134 79.709 73.8134 79.7541C73.8134 79.7992 73.7479 79.8361 73.6678 79.8361C73.5877 79.8361 73.4691 79.9098 73.4043 80C73.3394 80.0902 73.2208 80.1639 73.1407 80.1639C73.0606 80.1639 72.9951 80.2008 72.9951 80.2459C72.9951 80.291 72.8846 80.3279 72.7496 80.3279C72.6146 80.3279 72.5041 80.3648 72.5041 80.4098C72.5041 80.4549 72.4304 80.4918 72.3404 80.4918C72.2504 80.4918 72.1768 80.5287 72.1768 80.5738C72.1768 80.6189 72.1031 80.6557 72.0131 80.6557C71.9231 80.6557 71.8494 80.6926 71.8494 80.7377C71.8494 80.7828 71.7758 80.8197 71.6858 80.8197C71.5957 80.8197 71.5221 80.8566 71.5221 80.9016C71.5221 80.9467 71.3748 80.9836 71.1948 80.9836C71.0147 80.9836 70.8674 81.0205 70.8674 81.0656C70.8674 81.1107 70.7938 81.1475 70.7038 81.1475C70.6137 81.1475 70.5401 81.1844 70.5401 81.2295C70.5401 81.2746 70.4296 81.3115 70.2946 81.3115C70.1596 81.3115 70.0491 81.3484 70.0491 81.3934C70.0491 81.4385 69.9018 81.4754 69.7218 81.4754C69.5417 81.4754 69.3944 81.5123 69.3944 81.5574C69.3944 81.6025 69.2471 81.6393 69.0671 81.6393C68.8871 81.6393 68.7398 81.6762 68.7398 81.7213C68.7398 81.7664 68.5925 81.8033 68.4124 81.8033C68.2324 81.8033 68.0851 81.8402 68.0851 81.8852C68.0851 81.933 67.8124 81.9672 67.4304 81.9672C67.0485 81.9672 66.7758 82.0014 66.7758 82.0492C66.7758 82.096 66.5303 82.1311 66.2029 82.1311C65.8756 82.1311 65.6301 82.1663 65.6301 82.2131C65.6301 82.2623 65.3028 82.2951 64.8118 82.2951C64.3208 82.2951 63.9935 82.3279 63.9935 82.377C63.9935 82.4303 62.875 82.459 60.802 82.459C58.7289 82.459 57.6105 82.4877 57.6105 82.541C57.6105 82.5951 54.8827 82.6229 49.5908 82.6229C44.2989 82.6229 41.5712 82.5951 41.5712 82.541C41.5712 82.488 40.6438 82.459 38.9525 82.459C37.2613 82.459 36.3339 82.43 36.3339 82.377C36.3339 82.3266 35.9247 82.2951 35.27 82.2951C34.6154 82.2951 34.2062 82.2635 34.2062 82.2131C34.2062 82.1663 33.9607 82.1311 33.6334 82.1311C33.3061 82.1311 33.0606 82.096 33.0606 82.0492C33.0606 82.0041 32.8764 81.9672 32.6514 81.9672C32.4263 81.9672 32.2422 81.9303 32.2422 81.8852C32.2422 81.8397 32.024 81.8033 31.7512 81.8033C31.4785 81.8033 31.2602 81.7669 31.2602 81.7213C31.2602 81.6762 31.1498 81.6393 31.0147 81.6393C30.8797 81.6393 30.7692 81.6025 30.7692 81.5574C30.7692 81.5123 30.6219 81.4754 30.4419 81.4754C30.2619 81.4754 30.1146 81.4385 30.1146 81.3934C30.1146 81.3484 30.0041 81.3115 29.8691 81.3115C29.734 81.3115 29.6236 81.2746 29.6236 81.2295C29.6236 81.1844 29.5131 81.1475 29.3781 81.1475C29.243 81.1475 29.1326 81.1107 29.1326 81.0656C29.1326 81.0205 29.0221 80.9836 28.8871 80.9836C28.752 80.9836 28.6416 80.9467 28.6416 80.9016C28.6416 80.8566 28.5679 80.8197 28.4779 80.8197C28.3879 80.8197 28.3142 80.7828 28.3142 80.7377C28.3142 80.6926 28.2406 80.6557 28.1506 80.6557C28.0606 80.6557 27.9869 80.6189 27.9869 80.5738C27.9869 80.5287 27.9133 80.4918 27.8232 80.4918C27.7332 80.4918 27.6596 80.4549 27.6596 80.4098C27.6596 80.3648 27.5491 80.3279 27.4141 80.3279C27.279 80.3279 27.1686 80.291 27.1686 80.2459C27.1686 80.2008 27.0949 80.1639 27.0049 80.1639C26.9149 80.1639 26.8412 80.127 26.8412 80.082C26.8412 80.0369 26.7757 80 26.6957 80C26.6155 80 26.497 79.9262 26.4321 79.8361C26.3672 79.7459 26.2486 79.6721 26.1685 79.6721C26.0885 79.6721 26.0229 79.6352 26.0229 79.5902C26.0229 79.5451 25.9574 79.5082 25.8773 79.5082C25.7972 79.5082 25.6786 79.4344 25.6137 79.3443C25.5489 79.2541 25.445 79.1803 25.383 79.1803C25.321 79.1803 25.167 79.0697 25.0409 78.9344C24.9148 78.7992 24.7675 78.6885 24.7136 78.6885C24.6597 78.6885 24.5124 78.5779 24.3863 78.4426C24.2601 78.3074 24.1161 78.1967 24.0662 78.1967C23.9478 78.1967 21.9313 76.1769 21.9313 76.0583C21.9313 76.0083 21.8208 75.864 21.6858 75.7377C21.5507 75.6114 21.4403 75.4639 21.4403 75.4098C21.4403 75.3558 21.3298 75.2083 21.1948 75.082C21.0597 74.9557 20.9493 74.8014 20.9493 74.7393C20.9493 74.6772 20.8756 74.5732 20.7856 74.5082C20.6956 74.4432 20.6219 74.3244 20.6219 74.2442C20.6219 74.164 20.5851 74.0984 20.5401 74.0984C20.4951 74.0984 20.4583 74.0327 20.4583 73.9525C20.4583 73.8723 20.3846 73.7535 20.2946 73.6885C20.2046 73.6235 20.1309 73.5048 20.1309 73.4245C20.1309 73.3443 20.0941 73.2787 20.0491 73.2787C20.0041 73.2787 19.9673 73.2049 19.9673 73.1148C19.9673 73.0246 19.9304 72.9508 19.8854 72.9508C19.8404 72.9508 19.8036 72.877 19.8036 72.7869C19.8036 72.6967 19.7668 72.623 19.7218 72.623C19.6768 72.623 19.6399 72.5492 19.6399 72.459C19.6399 72.3689 19.6031 72.2951 19.5581 72.2951C19.5131 72.2951 19.4763 72.2213 19.4763 72.1311C19.4763 72.041 19.4394 71.9672 19.3944 71.9672C19.3494 71.9672 19.3126 71.8566 19.3126 71.7213C19.3126 71.5861 19.2758 71.4754 19.2308 71.4754C19.1858 71.4754 19.1489 71.4016 19.1489 71.3115C19.1489 71.2213 19.1121 71.1475 19.0671 71.1475C19.0221 71.1475 18.9853 71.0369 18.9853 70.9016C18.9853 70.7664 18.9484 70.6557 18.9034 70.6557C18.8584 70.6557 18.8216 70.5451 18.8216 70.4098C18.8216 70.2746 18.7848 70.1639 18.7398 70.1639C18.6948 70.1639 18.6579 70.0533 18.6579 69.918C18.6579 69.7828 18.6211 69.6721 18.5761 69.6721C18.5311 69.6721 18.4943 69.4877 18.4943 69.2623C18.4943 69.0369 18.4574 68.8525 18.4124 68.8525C18.3674 68.8525 18.3306 68.7049 18.3306 68.5246C18.3306 68.3443 18.2938 68.1967 18.2488 68.1967C18.2038 68.1967 18.1669 68.0492 18.1669 67.8689C18.1669 67.6885 18.1301 67.541 18.0851 67.541C18.0384 67.541 18.0033 67.2951 18.0033 66.9672C18.0033 66.6393 17.9682 66.3934 17.9214 66.3934C17.8729 66.3934 17.8396 66.0929 17.8396 65.6557C17.8396 65.2186 17.8063 64.918 17.7578 64.918C17.7058 64.918 17.6759 64.2896 17.6759 63.1967C17.6759 62.1039 17.6461 61.4754 17.5941 61.4754C17.5407 61.4754 17.5123 60.1093 17.5123 57.541C17.5123 54.9727 17.4839 53.6066 17.4304 53.6066C17.3854 53.6066 17.3486 53.4959 17.3486 53.3607C17.3486 53.2254 17.3854 53.1148 17.4304 53.1148C17.4754 53.1148 17.5123 52.9303 17.5123 52.7049C17.5123 52.4795 17.4754 52.2951 17.4304 52.2951C17.3854 52.2951 17.3486 52.1844 17.3486 52.0492C17.3486 51.9139 17.3854 51.8033 17.4304 51.8033C17.5485 51.8033 17.5313 51.498 17.41 51.4412C17.3281 51.403 17.3281 51.3839 17.41 51.3457C17.5407 51.2846 17.5609 46.2295 17.4304 46.2295C17.3819 46.2295 17.3486 45.9289 17.3486 45.4918C17.3486 45.0547 17.3819 44.7541 17.4304 44.7541C17.4836 44.7541 17.5123 43.6339 17.5123 41.5574C17.5123 39.4809 17.5409 38.3607 17.5941 38.3607C17.6461 38.3607 17.6759 37.7322 17.6759 36.6393C17.6759 35.5465 17.7058 34.918 17.7578 34.918C17.8063 34.918 17.8396 34.6175 17.8396 34.1803C17.8396 33.7432 17.8729 33.4426 17.9214 33.4426C17.9669 33.4426 18.0033 33.224 18.0033 32.9508C18.0033 32.6776 18.0396 32.459 18.0851 32.459C18.1306 32.459 18.1669 32.2404 18.1669 31.9672C18.1669 31.694 18.2033 31.4754 18.2488 31.4754C18.2938 31.4754 18.3306 31.3279 18.3306 31.1475C18.3306 30.9672 18.3674 30.8197 18.4124 30.8197C18.4574 30.8197 18.4943 30.6721 18.4943 30.4918C18.4943 30.3115 18.5311 30.1639 18.5761 30.1639C18.6211 30.1639 18.6579 30.0533 18.6579 29.918C18.6579 29.7828 18.6948 29.6721 18.7398 29.6721C18.7848 29.6721 18.8216 29.5615 18.8216 29.4262C18.8216 29.291 18.8584 29.1803 18.9034 29.1803C18.9484 29.1803 18.9853 29.0697 18.9853 28.9344C18.9853 28.7992 19.0221 28.6885 19.0671 28.6885C19.1121 28.6885 19.1489 28.6148 19.1489 28.5246C19.1489 28.4344 19.1858 28.3607 19.2308 28.3607C19.2758 28.3607 19.3126 28.25 19.3126 28.1148C19.3126 27.9795 19.3494 27.8689 19.3944 27.8689C19.4394 27.8689 19.4763 27.7951 19.4763 27.7049C19.4763 27.6148 19.5131 27.541 19.5581 27.541C19.6031 27.541 19.6399 27.4672 19.6399 27.377C19.6399 27.2869 19.6768 27.2131 19.7218 27.2131C19.7668 27.2131 19.8036 27.1393 19.8036 27.0492C19.8036 26.959 19.8404 26.8852 19.8854 26.8852C19.9304 26.8852 19.9673 26.8115 19.9673 26.7213C19.9673 26.6311 20.0041 26.5574 20.0491 26.5574C20.0941 26.5574 20.1309 26.4917 20.1309 26.4116C20.1309 26.3313 20.2046 26.2125 20.2946 26.1475C20.3846 26.0825 20.4583 25.9719 20.4583 25.9016C20.4583 25.8314 20.5319 25.7207 20.6219 25.6557C20.7119 25.5907 20.7856 25.4801 20.7856 25.4098C20.7856 25.3396 20.8592 25.2289 20.9493 25.1639C21.0393 25.0989 21.1129 24.9949 21.1129 24.9328C21.1129 24.8707 21.2234 24.7165 21.3584 24.5902C21.4935 24.4639 21.6039 24.3171 21.6039 24.2639C21.6039 24.2109 21.7512 24.0257 21.9313 23.8525C22.1113 23.6792 22.2586 23.4967 22.2586 23.4469C22.2586 23.3301 22.9629 22.623 23.0793 22.623C23.128 22.623 23.3847 22.4016 23.6498 22.1311C23.9148 21.8607 24.1742 21.6393 24.2261 21.6393C24.2781 21.6393 24.4238 21.5287 24.5499 21.3934C24.676 21.2582 24.83 21.1475 24.892 21.1475C24.954 21.1475 25.0579 21.0738 25.1227 20.9836C25.1876 20.8934 25.2915 20.8197 25.3535 20.8197C25.4155 20.8197 25.5695 20.709 25.6956 20.5738C25.8217 20.4385 25.9838 20.3279 26.0557 20.3279C26.1277 20.3279 26.1866 20.291 26.1866 20.2459C26.1866 20.2008 26.2602 20.1639 26.3502 20.1639C26.4403 20.1639 26.5139 20.127 26.5139 20.082C26.5139 20.0369 26.5876 20 26.6776 20C26.7676 20 26.8412 19.9631 26.8412 19.918C26.8412 19.873 26.9149 19.8361 27.0049 19.8361C27.0949 19.8361 27.1686 19.7992 27.1686 19.7541C27.1686 19.709 27.2422 19.6721 27.3322 19.6721C27.4223 19.6721 27.4959 19.6352 27.4959 19.5902C27.4959 19.5451 27.5696 19.5082 27.6596 19.5082C27.7496 19.5082 27.8232 19.4713 27.8232 19.4262C27.8232 19.3811 27.8969 19.3443 27.9869 19.3443C28.0769 19.3443 28.1506 19.3074 28.1506 19.2623C28.1506 19.2172 28.261 19.1803 28.3961 19.1803C28.5311 19.1803 28.6416 19.1434 28.6416 19.0984C28.6416 19.0533 28.752 19.0164 28.8871 19.0164C29.0221 19.0164 29.1326 18.9795 29.1326 18.9344C29.1326 18.8893 29.2062 18.8525 29.2962 18.8525C29.3863 18.8525 29.4599 18.8156 29.4599 18.7705C29.4599 18.7254 29.6072 18.6885 29.7872 18.6885C29.9673 18.6885 30.1146 18.6516 30.1146 18.6066C30.1146 18.5615 30.225 18.5246 30.3601 18.5246C30.4951 18.5246 30.6056 18.4877 30.6056 18.4426C30.6056 18.3975 30.7529 18.3607 30.9329 18.3607C31.1129 18.3607 31.2602 18.3238 31.2602 18.2787C31.2602 18.2336 31.4075 18.1967 31.5876 18.1967C31.7676 18.1967 31.9149 18.1598 31.9149 18.1148C31.9149 18.0692 32.1331 18.0328 32.4059 18.0328C32.6786 18.0328 32.8969 17.9964 32.8969 17.9508C32.8969 17.9052 33.1151 17.8689 33.3879 17.8689C33.6606 17.8689 33.8789 17.8325 33.8789 17.7869C33.8789 17.7368 34.2608 17.7049 34.8609 17.7049C35.461 17.7049 35.8429 17.673 35.8429 17.623C35.8429 17.5704 36.6066 17.541 37.9705 17.541C39.3345 17.541 40.0982 17.5116 40.0982 17.459C40.0982 17.4048 43.3443 17.377 49.6727 17.377C56.0011 17.377 59.2471 17.4048 59.2471 17.459ZM38.9525 23.3607C38.9525 23.4125 38.3525 23.4426 37.3159 23.4426C36.2793 23.4426 35.6792 23.4727 35.6792 23.5246C35.6792 23.5724 35.4065 23.6066 35.0245 23.6066C34.6426 23.6066 34.3699 23.6407 34.3699 23.6885C34.3699 23.7353 34.1244 23.7705 33.7971 23.7705C33.4697 23.7705 33.2242 23.8057 33.2242 23.8525C33.2242 23.8975 33.0769 23.9344 32.8969 23.9344C32.7169 23.9344 32.5696 23.9713 32.5696 24.0164C32.5696 24.0615 32.4591 24.0984 32.3241 24.0984C32.189 24.0984 32.0786 24.1352 32.0786 24.1803C32.0786 24.2254 31.9681 24.2623 31.8331 24.2623C31.698 24.2623 31.5876 24.2992 31.5876 24.3443C31.5876 24.3893 31.4771 24.4262 31.3421 24.4262C31.207 24.4262 31.0966 24.4631 31.0966 24.5082C31.0966 24.5533 30.9861 24.5902 30.8511 24.5902C30.716 24.5902 30.6056 24.627 30.6056 24.6721C30.6056 24.7172 30.5319 24.7541 30.4419 24.7541C30.3519 24.7541 30.2782 24.791 30.2782 24.8361C30.2782 24.8811 30.2046 24.918 30.1146 24.918C30.0245 24.918 29.9509 24.9549 29.9509 25C29.9509 25.0451 29.8772 25.082 29.7872 25.082C29.6972 25.082 29.6236 25.1189 29.6236 25.1639C29.6236 25.209 29.5499 25.2459 29.4599 25.2459C29.3699 25.2459 29.2962 25.2828 29.2962 25.3279C29.2962 25.373 29.2307 25.4098 29.1506 25.4098C29.0705 25.4098 28.952 25.4836 28.8871 25.5738C28.8222 25.6639 28.7183 25.7377 28.6563 25.7377C28.5944 25.7377 28.4403 25.8484 28.3142 25.9836C28.1881 26.1189 28.044 26.2295 27.994 26.2295C27.8664 26.2295 26.1866 27.9258 26.1866 28.0547C26.1866 28.1129 26.1129 28.2137 26.0229 28.2787C25.9329 28.3437 25.8592 28.4543 25.8592 28.5246C25.8592 28.5948 25.7856 28.7055 25.6956 28.7705C25.6056 28.8355 25.5319 28.9461 25.5319 29.0164C25.5319 29.0866 25.4583 29.1973 25.3682 29.2623C25.2782 29.3273 25.2046 29.4461 25.2046 29.5263C25.2046 29.6065 25.1678 29.6721 25.1227 29.6721C25.0777 29.6721 25.0409 29.7459 25.0409 29.8361C25.0409 29.9262 25.0041 30 24.9591 30C24.9141 30 24.8772 30.1107 24.8772 30.2459C24.8772 30.3811 24.8404 30.4918 24.7954 30.4918C24.7504 30.4918 24.7136 30.5656 24.7136 30.6557C24.7136 30.7459 24.6768 30.8197 24.6318 30.8197C24.5867 30.8197 24.5499 30.9303 24.5499 31.0656C24.5499 31.2008 24.5131 31.3115 24.4681 31.3115C24.4231 31.3115 24.3863 31.4221 24.3863 31.5574C24.3863 31.6926 24.3494 31.8033 24.3044 31.8033C24.2594 31.8033 24.2226 31.9139 24.2226 32.0492C24.2226 32.1844 24.1858 32.2951 24.1408 32.2951C24.0957 32.2951 24.0589 32.4426 24.0589 32.623C24.0589 32.8033 24.0221 32.9508 23.9771 32.9508C23.9316 32.9508 23.8953 33.1694 23.8953 33.4426C23.8953 33.7158 23.8589 33.9344 23.8134 33.9344C23.7657 33.9344 23.7316 34.2076 23.7316 34.5902C23.7316 34.9727 23.6975 35.2459 23.6498 35.2459C23.5986 35.2459 23.5679 35.7377 23.5679 36.5574C23.5679 37.377 23.5372 37.8689 23.4861 37.8689C23.4323 37.8689 23.4043 39.7541 23.4043 43.3607C23.4043 46.9672 23.3762 48.8525 23.3224 48.8525C23.2774 48.8525 23.2406 48.9631 23.2406 49.0984C23.2406 49.2336 23.2774 49.3443 23.3224 49.3443C23.3763 49.3443 23.4043 51.5301 23.4043 55.7377C23.4043 59.9453 23.4322 62.1311 23.4861 62.1311C23.5372 62.1311 23.5679 62.623 23.5679 63.4426C23.5679 64.2623 23.5986 64.7541 23.6498 64.7541C23.6965 64.7541 23.7316 65 23.7316 65.3279C23.7316 65.6557 23.7667 65.9016 23.8134 65.9016C23.8589 65.9016 23.8953 66.1202 23.8953 66.3934C23.8953 66.6666 23.9316 66.8852 23.9771 66.8852C24.0221 66.8852 24.0589 67.0328 24.0589 67.2131C24.0589 67.3934 24.0957 67.541 24.1408 67.541C24.1858 67.541 24.2226 67.6885 24.2226 67.8689C24.2226 68.0492 24.2594 68.1967 24.3044 68.1967C24.3494 68.1967 24.3863 68.2705 24.3863 68.3607C24.3863 68.4508 24.4231 68.5246 24.4681 68.5246C24.5131 68.5246 24.5499 68.6352 24.5499 68.7705C24.5499 68.9057 24.5867 69.0164 24.6318 69.0164C24.6768 69.0164 24.7136 69.127 24.7136 69.2623C24.7136 69.3975 24.7504 69.5082 24.7954 69.5082C24.8404 69.5082 24.8772 69.582 24.8772 69.6721C24.8772 69.7623 24.9141 69.8361 24.9591 69.8361C25.0041 69.8361 25.0409 69.9098 25.0409 70C25.0409 70.0902 25.0777 70.1639 25.1227 70.1639C25.1678 70.1639 25.2046 70.2377 25.2046 70.3279C25.2046 70.418 25.2414 70.4918 25.2864 70.4918C25.3314 70.4918 25.3682 70.5656 25.3682 70.6557C25.3682 70.7459 25.4051 70.8197 25.4501 70.8197C25.4951 70.8197 25.5319 70.8853 25.5319 70.9655C25.5319 71.0457 25.6056 71.1645 25.6956 71.2295C25.7856 71.2945 25.8592 71.3985 25.8592 71.4607C25.8592 71.5227 25.9697 71.677 26.1047 71.8033C26.2398 71.9296 26.3502 72.0744 26.3502 72.1248C26.3502 72.2424 27.218 73.1148 27.335 73.1148C27.3835 73.1148 27.64 73.3361 27.9051 73.6066C28.1701 73.877 28.4362 74.0984 28.4962 74.0984C28.5563 74.0984 28.6585 74.1721 28.7234 74.2623C28.7883 74.3525 28.9069 74.4262 28.987 74.4262C29.067 74.4262 29.1326 74.4631 29.1326 74.5082C29.1326 74.5533 29.1981 74.5902 29.2782 74.5902C29.3583 74.5902 29.4768 74.6639 29.5417 74.7541C29.611 74.8503 29.7536 74.918 29.8871 74.918C30.0122 74.918 30.1146 74.9549 30.1146 75C30.1146 75.0451 30.1882 75.082 30.2782 75.082C30.3682 75.082 30.4419 75.1189 30.4419 75.1639C30.4419 75.209 30.5155 75.2459 30.6056 75.2459C30.6956 75.2459 30.7692 75.2828 30.7692 75.3279C30.7692 75.373 30.8797 75.4098 31.0147 75.4098C31.1498 75.4098 31.2602 75.4467 31.2602 75.4918C31.2602 75.5369 31.3707 75.5738 31.5057 75.5738C31.6408 75.5738 31.7512 75.6107 31.7512 75.6557C31.7512 75.7008 31.8617 75.7377 31.9967 75.7377C32.1317 75.7377 32.2422 75.7746 32.2422 75.8197C32.2422 75.8648 32.3895 75.9016 32.5696 75.9016C32.7496 75.9016 32.8969 75.9385 32.8969 75.9836C32.8969 76.0287 33.081 76.0656 33.3061 76.0656C33.5311 76.0656 33.7152 76.1025 33.7152 76.1475C33.7152 76.1943 33.9607 76.2295 34.2881 76.2295C34.6154 76.2295 34.8609 76.2647 34.8609 76.3115C34.8609 76.3616 35.2428 76.3934 35.8429 76.3934C36.443 76.3934 36.8249 76.4253 36.8249 76.4754C36.8249 76.5281 37.6432 76.5574 39.1162 76.5574C40.5892 76.5574 41.4075 76.5866 41.4075 76.6393C41.4075 76.7712 59.0561 76.7508 59.1176 76.6189C59.1557 76.5369 59.1749 76.5369 59.213 76.6189C59.2714 76.7442 60.3928 76.7637 60.3928 76.6393C60.3928 76.5872 61.0475 76.5574 62.1931 76.5574C63.3388 76.5574 63.9935 76.5275 63.9935 76.4754C63.9935 76.4276 64.2662 76.3934 64.6481 76.3934C65.03 76.3934 65.3028 76.3593 65.3028 76.3115C65.3028 76.2647 65.5483 76.2295 65.8756 76.2295C66.2029 76.2295 66.4484 76.1943 66.4484 76.1475C66.4484 76.1025 66.6326 76.0656 66.8576 76.0656C67.0826 76.0656 67.2668 76.0287 67.2668 75.9836C67.2668 75.9385 67.4509 75.9016 67.6759 75.9016C67.901 75.9016 68.0851 75.8648 68.0851 75.8197C68.0851 75.7746 68.1956 75.7377 68.3306 75.7377C68.4656 75.7377 68.5761 75.7008 68.5761 75.6557C68.5761 75.6107 68.6498 75.5738 68.7398 75.5738C68.8298 75.5738 68.9034 75.5369 68.9034 75.4918C68.9034 75.4467 69.0139 75.4098 69.1489 75.4098C69.284 75.4098 69.3944 75.373 69.3944 75.3279C69.3944 75.2828 69.4681 75.2459 69.5581 75.2459C69.6481 75.2459 69.7218 75.209 69.7218 75.1639C69.7218 75.1189 69.7954 75.082 69.8854 75.082C69.9754 75.082 70.0491 75.0451 70.0491 75C70.0491 74.9549 70.1596 74.918 70.2946 74.918C70.4296 74.918 70.5401 74.8811 70.5401 74.8361C70.5401 74.791 70.6056 74.7541 70.6857 74.7541C70.7658 74.7541 70.8844 74.6803 70.9493 74.5902C71.0142 74.5 71.118 74.4262 71.18 74.4262C71.242 74.4262 71.396 74.3156 71.5221 74.1803C71.6482 74.0451 71.7948 73.9344 71.8478 73.9344C71.9007 73.9344 72.0856 73.7869 72.2586 73.6066C72.4316 73.4262 72.6312 73.2787 72.7023 73.2787C72.7768 73.2787 72.8314 73.2094 72.8314 73.1148C72.8314 73.0055 72.886 72.9508 72.9951 72.9508C73.0886 72.9508 73.1588 72.8962 73.1588 72.8234C73.1588 72.7532 73.3797 72.4786 73.6498 72.2131C73.9198 71.9476 74.1407 71.6811 74.1407 71.621C74.1407 71.5608 74.2144 71.4584 74.3044 71.3934C74.3944 71.3284 74.4681 71.2097 74.4681 71.1294C74.4681 71.0493 74.5049 70.9836 74.5499 70.9836C74.5949 70.9836 74.6317 70.9179 74.6317 70.8378C74.6317 70.7575 74.7054 70.6388 74.7954 70.5738C74.8854 70.5088 74.9591 70.39 74.9591 70.3098C74.9591 70.2296 74.9959 70.1639 75.0409 70.1639C75.0859 70.1639 75.1227 70.0533 75.1227 69.918C75.1227 69.7828 75.1596 69.6721 75.2046 69.6721C75.2496 69.6721 75.2864 69.5984 75.2864 69.5082C75.2864 69.418 75.3232 69.3443 75.3682 69.3443C75.4133 69.3443 75.4501 69.2336 75.4501 69.0984C75.4501 68.9631 75.4869 68.8525 75.5319 68.8525C75.5769 68.8525 75.6137 68.7787 75.6137 68.6885C75.6137 68.5984 75.6506 68.5246 75.6956 68.5246C75.7406 68.5246 75.7774 68.4139 75.7774 68.2787C75.7774 68.1434 75.8142 68.0328 75.8592 68.0328C75.9043 68.0328 75.9411 67.8852 75.9411 67.7049C75.9411 67.5246 75.9779 67.377 76.0229 67.377C76.0679 67.377 76.1047 67.1926 76.1047 66.9672C76.1047 66.7418 76.1416 66.5574 76.1866 66.5574C76.2321 66.5574 76.2684 66.3388 76.2684 66.0656C76.2684 65.7924 76.3047 65.5738 76.3502 65.5738C76.3988 65.5738 76.4321 65.2732 76.4321 64.8361C76.4321 64.3989 76.4654 64.0984 76.5139 64.0984C76.5656 64.0984 76.5957 63.5246 76.5957 62.541C76.5957 61.5574 76.6259 60.9836 76.6776 60.9836C76.7317 60.9836 76.7594 57.3498 76.7594 50.2459C76.7594 43.142 76.7317 39.5082 76.6776 39.5082C76.6255 39.5082 76.5957 38.8525 76.5957 37.7049C76.5957 36.5574 76.566 35.9016 76.5139 35.9016C76.4654 35.9016 76.4321 35.6011 76.4321 35.1639C76.4321 34.7268 76.3988 34.4262 76.3502 34.4262C76.3047 34.4262 76.2684 34.2076 76.2684 33.9344C76.2684 33.6612 76.2321 33.4426 76.1866 33.4426C76.1416 33.4426 76.1047 33.2582 76.1047 33.0328C76.1047 32.8074 76.0679 32.623 76.0229 32.623C75.9779 32.623 75.9411 32.4754 75.9411 32.2951C75.9411 32.1148 75.9043 31.9672 75.8592 31.9672C75.8142 31.9672 75.7774 31.8566 75.7774 31.7213C75.7774 31.5861 75.7406 31.4754 75.6956 31.4754C75.6506 31.4754 75.6137 31.4016 75.6137 31.3115C75.6137 31.2213 75.5769 31.1475 75.5319 31.1475C75.4869 31.1475 75.4501 31.0369 75.4501 30.9016C75.4501 30.7664 75.4133 30.6557 75.3682 30.6557C75.3232 30.6557 75.2864 30.582 75.2864 30.4918C75.2864 30.4016 75.2496 30.3279 75.2046 30.3279C75.1596 30.3279 75.1227 30.2541 75.1227 30.1639C75.1227 30.0738 75.0859 30 75.0409 30C74.9959 30 74.9591 29.8975 74.9591 29.7722C74.9591 29.6384 74.8915 29.4957 74.7954 29.4262C74.7054 29.3612 74.6317 29.2506 74.6317 29.1803C74.6317 29.1101 74.5581 28.9994 74.4681 28.9344C74.3781 28.8694 74.3044 28.7588 74.3044 28.6885C74.3044 28.6183 74.2308 28.5076 74.1407 28.4426C74.0507 28.3776 73.9771 28.2744 73.9771 28.2132C73.9771 28.152 73.8298 27.9602 73.6498 27.7869C73.4697 27.6136 73.3224 27.4294 73.3224 27.3776C73.3224 27.2564 73.1162 27.0492 72.9957 27.0492C72.9445 27.0492 72.7233 26.8648 72.5041 26.6393C72.2849 26.4139 72.0627 26.2295 72.0103 26.2295C71.9579 26.2295 71.8119 26.1189 71.6858 25.9836C71.5597 25.8484 71.4056 25.7377 71.3437 25.7377C71.2817 25.7377 71.1778 25.6639 71.1129 25.5738C71.048 25.4836 70.9376 25.4098 70.8674 25.4098C70.7973 25.4098 70.6868 25.3361 70.6219 25.2459C70.557 25.1557 70.4385 25.082 70.3583 25.082C70.2783 25.082 70.2128 25.0451 70.2128 25C70.2128 24.9549 70.1023 24.918 69.9673 24.918C69.8322 24.918 69.7218 24.8811 69.7218 24.8361C69.7218 24.791 69.6113 24.7541 69.4763 24.7541C69.3412 24.7541 69.2308 24.7172 69.2308 24.6721C69.2308 24.627 69.1571 24.5902 69.0671 24.5902C68.9771 24.5902 68.9034 24.5533 68.9034 24.5082C68.9034 24.4631 68.793 24.4262 68.6579 24.4262C68.5229 24.4262 68.4124 24.3893 68.4124 24.3443C68.4124 24.2992 68.3388 24.2623 68.2488 24.2623C68.1588 24.2623 68.0851 24.2254 68.0851 24.1803C68.0851 24.1352 67.9378 24.0984 67.7578 24.0984C67.5777 24.0984 67.4304 24.0615 67.4304 24.0164C67.4304 23.9713 67.2831 23.9344 67.1031 23.9344C66.9231 23.9344 66.7758 23.8975 66.7758 23.8525C66.7758 23.8069 66.5575 23.7705 66.2848 23.7705C66.012 23.7705 65.7938 23.7341 65.7938 23.6885C65.7938 23.6399 65.4937 23.6066 65.0573 23.6066C64.6209 23.6066 64.3208 23.5732 64.3208 23.5246C64.3208 23.4727 63.7207 23.4426 62.6841 23.4426C61.6475 23.4426 61.0475 23.4125 61.0475 23.3607C61.0475 23.3064 57.3104 23.2787 50 23.2787C42.6896 23.2787 38.9525 23.3064 38.9525 23.3607ZM68.2488 28.7705C68.2488 28.8156 68.3961 28.8525 68.5761 28.8525C68.7561 28.8525 68.9034 28.8893 68.9034 28.9344C68.9034 28.9795 68.9771 29.0164 69.0671 29.0164C69.1571 29.0164 69.2308 29.0533 69.2308 29.0984C69.2308 29.1434 69.2896 29.1803 69.3616 29.1803C69.4336 29.1803 69.5957 29.291 69.7218 29.4262C69.8479 29.5615 69.9932 29.6721 70.0448 29.6721C70.1737 29.6721 70.5401 30.05 70.5401 30.1831C70.5401 30.2428 70.6137 30.3448 70.7038 30.4098C70.7938 30.4748 70.8674 30.5936 70.8674 30.6738C70.8674 30.754 70.9043 30.8197 70.9493 30.8197C70.9943 30.8197 71.0311 30.8934 71.0311 30.9836C71.0311 31.0738 71.0679 31.1475 71.1129 31.1475C71.1579 31.1475 71.1948 31.2582 71.1948 31.3934C71.1948 31.5287 71.2316 31.6393 71.2766 31.6393C71.3262 31.6393 71.3584 31.9945 71.3584 32.541C71.3584 33.0875 71.3262 33.4426 71.2766 33.4426C71.2316 33.4426 71.1948 33.5902 71.1948 33.7705C71.1948 33.9508 71.1579 34.0984 71.1129 34.0984C71.0679 34.0984 71.0311 34.1721 71.0311 34.2623C71.0311 34.3525 70.9943 34.4262 70.9493 34.4262C70.9043 34.4262 70.8674 34.4852 70.8674 34.5573C70.8674 34.6293 70.757 34.7917 70.6219 34.918C70.4869 35.0443 70.3764 35.1909 70.3764 35.2437C70.3764 35.3739 70.1679 35.5738 70.0321 35.5738C69.9713 35.5738 69.8685 35.6475 69.8036 35.7377C69.7387 35.8279 69.6201 35.9016 69.54 35.9016C69.46 35.9016 69.3944 35.9385 69.3944 35.9836C69.3944 36.0287 69.3208 36.0656 69.2308 36.0656C69.1407 36.0656 69.0671 36.1025 69.0671 36.1475C69.0671 36.1926 68.9566 36.2295 68.8216 36.2295C68.6866 36.2295 68.5761 36.2664 68.5761 36.3115C68.5761 36.3566 68.4656 36.3934 68.3306 36.3934C68.1956 36.3934 68.0851 36.4303 68.0851 36.4754C68.0851 36.5222 67.8396 36.5574 67.5123 36.5574C67.1849 36.5574 66.9394 36.5222 66.9394 36.4754C66.9394 36.4303 66.7553 36.3934 66.5303 36.3934C66.3052 36.3934 66.1211 36.3566 66.1211 36.3115C66.1211 36.2664 66.0475 36.2295 65.9574 36.2295C65.8674 36.2295 65.7938 36.1926 65.7938 36.1475C65.7938 36.1025 65.7201 36.0656 65.6301 36.0656C65.5401 36.0656 65.4664 36.0287 65.4664 35.9836C65.4664 35.9385 65.4106 35.9016 65.3421 35.9016C65.1804 35.9016 64.1571 34.8767 64.1571 34.7147C64.1571 34.6462 64.1203 34.5902 64.0753 34.5902C64.0303 34.5902 63.9935 34.5164 63.9935 34.4262C63.9935 34.3361 63.9566 34.2623 63.9116 34.2623C63.8666 34.2623 63.8298 34.1885 63.8298 34.0984C63.8298 34.0082 63.793 33.9344 63.748 33.9344C63.7029 33.9344 63.6661 33.7869 63.6661 33.6066C63.6661 33.4262 63.6293 33.2787 63.5843 33.2787C63.5358 33.2787 63.5025 32.9781 63.5025 32.541C63.5025 32.1039 63.5358 31.8033 63.5843 31.8033C63.6293 31.8033 63.6661 31.6926 63.6661 31.5574C63.6661 31.4221 63.7029 31.3115 63.748 31.3115C63.793 31.3115 63.8298 31.2377 63.8298 31.1475C63.8298 31.0574 63.8666 30.9836 63.9116 30.9836C63.9566 30.9836 63.9935 30.8909 63.9935 30.7775C63.9935 30.6282 64.1848 30.3798 64.6879 29.8759C65.0698 29.4934 65.4381 29.1803 65.5062 29.1803C65.5744 29.1803 65.6301 29.1434 65.6301 29.0984C65.6301 29.0533 65.7406 29.0164 65.8756 29.0164C66.0106 29.0164 66.1211 28.9795 66.1211 28.9344C66.1211 28.8893 66.2316 28.8525 66.3666 28.8525C66.5016 28.8525 66.6121 28.8156 66.6121 28.7705C66.6121 28.7213 66.9394 28.6885 67.4304 28.6885C67.9214 28.6885 68.2488 28.7213 68.2488 28.7705ZM52.0458 33.3607C52.0458 33.4075 52.2913 33.4426 52.6187 33.4426C52.946 33.4426 53.1915 33.4778 53.1915 33.5246C53.1915 33.5697 53.3388 33.6066 53.5188 33.6066C53.6989 33.6066 53.8462 33.6434 53.8462 33.6885C53.8462 33.7336 54.0303 33.7705 54.2553 33.7705C54.4804 33.7705 54.6645 33.8074 54.6645 33.8525C54.6645 33.8975 54.775 33.9344 54.91 33.9344C55.045 33.9344 55.1555 33.9713 55.1555 34.0164C55.1555 34.0615 55.266 34.0984 55.401 34.0984C55.536 34.0984 55.6465 34.1352 55.6465 34.1803C55.6465 34.2254 55.7201 34.2623 55.8101 34.2623C55.9002 34.2623 55.9738 34.2992 55.9738 34.3443C55.9738 34.3893 56.0843 34.4262 56.2193 34.4262C56.3543 34.4262 56.4648 34.4631 56.4648 34.5082C56.4648 34.5533 56.5385 34.5902 56.6285 34.5902C56.7185 34.5902 56.7921 34.627 56.7921 34.6721C56.7921 34.7172 56.9026 34.7541 57.0376 34.7541C57.1727 34.7541 57.2831 34.791 57.2831 34.8361C57.2831 34.8811 57.3568 34.918 57.4468 34.918C57.5368 34.918 57.6105 34.9549 57.6105 35C57.6105 35.0451 57.676 35.082 57.7561 35.082C57.8362 35.082 57.9547 35.1557 58.0196 35.2459C58.0845 35.3361 58.2031 35.4098 58.2832 35.4098C58.3633 35.4098 58.4288 35.4467 58.4288 35.4918C58.4288 35.5369 58.4944 35.5738 58.5744 35.5738C58.6545 35.5738 58.7731 35.6475 58.838 35.7377C58.9029 35.8279 59.0214 35.9016 59.1015 35.9016C59.1816 35.9016 59.2471 35.9385 59.2471 35.9836C59.2471 36.0287 59.3127 36.0656 59.3927 36.0656C59.4728 36.0656 59.5914 36.1393 59.6563 36.2295C59.7212 36.3197 59.8237 36.3934 59.8843 36.3934C59.9448 36.3934 60.1736 36.5779 60.3928 36.8033C60.612 37.0287 60.831 37.2131 60.8795 37.2131C60.9942 37.2131 62.5205 38.7412 62.5205 38.856C62.5205 38.9041 62.7414 39.1607 63.0115 39.4262C63.2815 39.6917 63.5025 39.9516 63.5025 40.0035C63.5025 40.0556 63.6129 40.2016 63.748 40.3279C63.883 40.4542 63.9935 40.6166 63.9935 40.6886C63.9935 40.7607 64.0303 40.8197 64.0753 40.8197C64.1203 40.8197 64.1571 40.8853 64.1571 40.9655C64.1571 41.0457 64.2308 41.1645 64.3208 41.2295C64.4108 41.2945 64.4844 41.4133 64.4844 41.4935C64.4844 41.5737 64.5213 41.6393 64.5663 41.6393C64.6113 41.6393 64.6481 41.7131 64.6481 41.8033C64.6481 41.8934 64.6849 41.9672 64.7299 41.9672C64.775 41.9672 64.8118 42.041 64.8118 42.1311C64.8118 42.2213 64.8486 42.2951 64.8936 42.2951C64.9386 42.2951 64.9754 42.3607 64.9754 42.4409C64.9754 42.5212 65.0491 42.6399 65.1391 42.7049C65.2352 42.7743 65.3028 42.9171 65.3028 43.0509C65.3028 43.1761 65.3396 43.2787 65.3846 43.2787C65.4296 43.2787 65.4664 43.3525 65.4664 43.4426C65.4664 43.5328 65.5033 43.6066 65.5483 43.6066C65.5933 43.6066 65.6301 43.7172 65.6301 43.8525C65.6301 43.9877 65.6669 44.0984 65.7119 44.0984C65.757 44.0984 65.7938 44.209 65.7938 44.3443C65.7938 44.4795 65.8306 44.5902 65.8756 44.5902C65.9206 44.5902 65.9574 44.7008 65.9574 44.8361C65.9574 44.9713 65.9943 45.082 66.0393 45.082C66.0843 45.082 66.1211 45.1926 66.1211 45.3279C66.1211 45.4631 66.1579 45.5738 66.2029 45.5738C66.248 45.5738 66.2848 45.7213 66.2848 45.9016C66.2848 46.082 66.3216 46.2295 66.3666 46.2295C66.4116 46.2295 66.4484 46.4139 66.4484 46.6393C66.4484 46.8648 66.4853 47.0492 66.5303 47.0492C66.5753 47.0492 66.6121 47.2336 66.6121 47.459C66.6121 47.6844 66.6489 47.8689 66.6939 47.8689C66.7463 47.8689 66.7758 48.6066 66.7758 49.918C66.7758 51.2295 66.7463 51.9672 66.6939 51.9672C66.6472 51.9672 66.6121 52.2131 66.6121 52.541C66.6121 52.8689 66.577 53.1148 66.5303 53.1148C66.4853 53.1148 66.4484 53.2623 66.4484 53.4426C66.4484 53.623 66.4116 53.7705 66.3666 53.7705C66.3216 53.7705 66.2848 53.918 66.2848 54.0984C66.2848 54.2787 66.248 54.4262 66.2029 54.4262C66.1579 54.4262 66.1211 54.5738 66.1211 54.7541C66.1211 54.9344 66.0843 55.082 66.0393 55.082C65.9943 55.082 65.9574 55.1926 65.9574 55.3279C65.9574 55.4631 65.9206 55.5738 65.8756 55.5738C65.8306 55.5738 65.7938 55.6475 65.7938 55.7377C65.7938 55.8279 65.757 55.9016 65.7119 55.9016C65.6669 55.9016 65.6301 56.0123 65.6301 56.1475C65.6301 56.2828 65.5933 56.3934 65.5483 56.3934C65.5033 56.3934 65.4664 56.4672 65.4664 56.5574C65.4664 56.6475 65.4296 56.7213 65.3846 56.7213C65.3396 56.7213 65.3028 56.832 65.3028 56.9672C65.3028 57.1025 65.266 57.2131 65.2209 57.2131C65.1759 57.2131 65.1391 57.2869 65.1391 57.377C65.1391 57.4672 65.1023 57.541 65.0573 57.541C65.0123 57.541 64.9754 57.6148 64.9754 57.7049C64.9754 57.7951 64.9386 57.8689 64.8936 57.8689C64.8486 57.8689 64.8118 57.9345 64.8118 58.0147C64.8118 58.0949 64.7381 58.2137 64.6481 58.2787C64.5581 58.3437 64.4844 58.4625 64.4844 58.5427C64.4844 58.6229 64.4476 58.6885 64.4026 58.6885C64.3576 58.6885 64.3208 58.7542 64.3208 58.8343C64.3208 58.9146 64.2471 59.0334 64.1571 59.0984C64.0671 59.1634 63.9935 59.274 63.9935 59.3443C63.9935 59.4145 63.9198 59.5252 63.8298 59.5902C63.7398 59.6552 63.6661 59.7592 63.6661 59.8213C63.6661 59.8834 63.5556 60.0376 63.4206 60.1639C63.2856 60.2902 63.1751 60.4345 63.1751 60.4845C63.1751 60.6014 61.1595 62.623 61.043 62.623C60.9946 62.623 60.7757 62.8074 60.5565 63.0328C60.3372 63.2582 60.1151 63.4426 60.0627 63.4426C60.0103 63.4426 59.8642 63.5533 59.7381 63.6885C59.612 63.8238 59.458 63.9344 59.3961 63.9344C59.334 63.9344 59.2302 64.0082 59.1653 64.0984C59.1004 64.1885 58.9818 64.2623 58.9017 64.2623C58.8217 64.2623 58.7561 64.2992 58.7561 64.3443C58.7561 64.3893 58.6825 64.4262 58.5925 64.4262C58.5025 64.4262 58.4288 64.4631 58.4288 64.5082C58.4288 64.5533 58.3552 64.5902 58.2651 64.5902C58.1751 64.5902 58.1015 64.627 58.1015 64.6721C58.1015 64.7172 58.0359 64.7541 57.9559 64.7541C57.8758 64.7541 57.7572 64.8279 57.6923 64.918C57.623 65.0143 57.4804 65.082 57.3469 65.082C57.2219 65.082 57.1195 65.1189 57.1195 65.1639C57.1195 65.209 57.0458 65.2459 56.9558 65.2459C56.8658 65.2459 56.7921 65.2828 56.7921 65.3279C56.7921 65.373 56.6817 65.4098 56.5466 65.4098C56.4116 65.4098 56.3011 65.4467 56.3011 65.4918C56.3011 65.5369 56.2275 65.5738 56.1375 65.5738C56.0475 65.5738 55.9738 65.6107 55.9738 65.6557C55.9738 65.7008 55.8633 65.7377 55.7283 65.7377C55.5933 65.7377 55.4828 65.7746 55.4828 65.8197C55.4828 65.8648 55.3723 65.9016 55.2373 65.9016C55.1023 65.9016 54.9918 65.9385 54.9918 65.9836C54.9918 66.0287 54.8445 66.0656 54.6645 66.0656C54.4844 66.0656 54.3371 66.1025 54.3371 66.1475C54.3371 66.1926 54.2267 66.2295 54.0917 66.2295C53.9566 66.2295 53.8462 66.2664 53.8462 66.3115C53.8462 66.357 53.6279 66.3934 53.3552 66.3934C53.0824 66.3934 52.8642 66.4298 52.8642 66.4754C52.8642 66.5205 52.68 66.5574 52.455 66.5574C52.2299 66.5574 52.0458 66.5943 52.0458 66.6393C52.0458 66.6915 51.3912 66.7213 50.2455 66.7213C49.0998 66.7213 48.4452 66.6915 48.4452 66.6393C48.4452 66.5916 48.1724 66.5574 47.7905 66.5574C47.4086 66.5574 47.1358 66.5232 47.1358 66.4754C47.1358 66.4303 46.9517 66.3934 46.7267 66.3934C46.5016 66.3934 46.3175 66.3566 46.3175 66.3115C46.3175 66.2664 46.1702 66.2295 45.9902 66.2295C45.8101 66.2295 45.6628 66.1926 45.6628 66.1475C45.6628 66.1025 45.5524 66.0656 45.4173 66.0656C45.2823 66.0656 45.1718 66.0287 45.1718 65.9836C45.1718 65.9385 45.0614 65.9016 44.9263 65.9016C44.7913 65.9016 44.6808 65.8648 44.6808 65.8197C44.6808 65.7746 44.5704 65.7377 44.4354 65.7377C44.3003 65.7377 44.1899 65.7008 44.1899 65.6557C44.1899 65.6107 44.0794 65.5738 43.9444 65.5738C43.8093 65.5738 43.6989 65.5369 43.6989 65.4918C43.6989 65.4467 43.6252 65.4098 43.5352 65.4098C43.4452 65.4098 43.3715 65.373 43.3715 65.3279C43.3715 65.2828 43.261 65.2459 43.126 65.2459C42.991 65.2459 42.8805 65.209 42.8805 65.1639C42.8805 65.1189 42.8069 65.082 42.7169 65.082C42.6268 65.082 42.5532 65.0451 42.5532 65C42.5532 64.9549 42.4876 64.918 42.4076 64.918C42.3275 64.918 42.2089 64.8443 42.144 64.7541C42.0791 64.6639 41.9606 64.5902 41.8804 64.5902C41.8004 64.5902 41.7349 64.5533 41.7349 64.5082C41.7349 64.4631 41.6612 64.4262 41.5712 64.4262C41.4812 64.4262 41.4075 64.3893 41.4075 64.3443C41.4075 64.2992 41.3487 64.2623 41.2767 64.2623C41.2047 64.2623 41.0426 64.1516 40.9165 64.0164C40.7904 63.8811 40.6364 63.7705 40.5745 63.7705C40.5124 63.7705 40.4086 63.6967 40.3437 63.6066C40.2788 63.5164 40.1683 63.4426 40.0982 63.4426C40.0281 63.4426 39.9176 63.3689 39.8527 63.2787C39.7878 63.1885 39.6873 63.1148 39.6294 63.1148C39.502 63.1148 37.1522 60.7766 37.1522 60.65C37.1522 60.601 37.0049 60.4192 36.8249 60.2459C36.6448 60.0726 36.4975 59.8808 36.4975 59.8196C36.4975 59.7584 36.4239 59.6552 36.3339 59.5902C36.2439 59.5252 36.1702 59.4145 36.1702 59.3443C36.1702 59.274 36.0966 59.1634 36.0065 59.0984C35.9165 59.0334 35.8429 58.9227 35.8429 58.8525C35.8429 58.7822 35.7692 58.6716 35.6792 58.6066C35.5892 58.5416 35.5155 58.4228 35.5155 58.3425C35.5155 58.2624 35.4787 58.1967 35.4337 58.1967C35.3887 58.1967 35.3519 58.123 35.3519 58.0328C35.3519 57.9426 35.3151 57.8689 35.27 57.8689C35.225 57.8689 35.1882 57.7951 35.1882 57.7049C35.1882 57.6148 35.1514 57.541 35.1064 57.541C35.0614 57.541 35.0245 57.4672 35.0245 57.377C35.0245 57.2869 34.9877 57.2131 34.9427 57.2131C34.8977 57.2131 34.8609 57.1393 34.8609 57.0492C34.8609 56.959 34.8241 56.8852 34.779 56.8852C34.734 56.8852 34.6972 56.7746 34.6972 56.6393C34.6972 56.5041 34.6604 56.3934 34.6154 56.3934C34.5704 56.3934 34.5336 56.3197 34.5336 56.2295C34.5336 56.1393 34.4967 56.0656 34.4517 56.0656C34.4067 56.0656 34.3699 55.9549 34.3699 55.8197C34.3699 55.6844 34.3331 55.5738 34.2881 55.5738C34.243 55.5738 34.2062 55.5 34.2062 55.4098C34.2062 55.3197 34.1694 55.2459 34.1244 55.2459C34.0794 55.2459 34.0426 55.0984 34.0426 54.918C34.0426 54.7377 34.0057 54.5902 33.9607 54.5902C33.9157 54.5902 33.8789 54.4426 33.8789 54.2623C33.8789 54.082 33.8421 53.9344 33.7971 53.9344C33.752 53.9344 33.7152 53.7869 33.7152 53.6066C33.7152 53.4262 33.6784 53.2787 33.6334 53.2787C33.5867 53.2787 33.5516 53.0328 33.5516 52.7049C33.5516 52.377 33.5164 52.1311 33.4697 52.1311C33.4172 52.1311 33.3879 51.3388 33.3879 49.918C33.3879 48.4973 33.4172 47.7049 33.4697 47.7049C33.5164 47.7049 33.5516 47.459 33.5516 47.1311C33.5516 46.8033 33.5867 46.5574 33.6334 46.5574C33.6784 46.5574 33.7152 46.4098 33.7152 46.2295C33.7152 46.0492 33.752 45.9016 33.7971 45.9016C33.8421 45.9016 33.8789 45.7541 33.8789 45.5738C33.8789 45.3934 33.9157 45.2459 33.9607 45.2459C34.0057 45.2459 34.0426 45.1352 34.0426 45C34.0426 44.8648 34.0794 44.7541 34.1244 44.7541C34.1694 44.7541 34.2062 44.6434 34.2062 44.5082C34.2062 44.373 34.243 44.2623 34.2881 44.2623C34.3331 44.2623 34.3699 44.1516 34.3699 44.0164C34.3699 43.8811 34.4067 43.7705 34.4517 43.7705C34.4967 43.7705 34.5336 43.6967 34.5336 43.6066C34.5336 43.5164 34.5704 43.4426 34.6154 43.4426C34.6604 43.4426 34.6972 43.332 34.6972 43.1967C34.6972 43.0615 34.734 42.9508 34.779 42.9508C34.8241 42.9508 34.8609 42.877 34.8609 42.7869C34.8609 42.6967 34.8977 42.623 34.9427 42.623C34.9877 42.623 35.0245 42.5492 35.0245 42.459C35.0245 42.3689 35.0614 42.2951 35.1064 42.2951C35.1514 42.2951 35.1882 42.2294 35.1882 42.1493C35.1882 42.069 35.2619 41.9502 35.3519 41.8852C35.4419 41.8202 35.5155 41.7015 35.5155 41.6212C35.5155 41.5411 35.5524 41.4754 35.5974 41.4754C35.6424 41.4754 35.6792 41.4016 35.6792 41.3115C35.6792 41.2213 35.716 41.1475 35.761 41.1475C35.8061 41.1475 35.8429 41.0819 35.8429 41.0017C35.8429 40.9215 35.9165 40.8027 36.0065 40.7377C36.0966 40.6727 36.1702 40.5687 36.1702 40.5066C36.1702 40.4445 36.2807 40.2902 36.4157 40.1639C36.5507 40.0376 36.6612 39.8919 36.6612 39.8402C36.6612 39.7885 36.919 39.4916 37.234 39.1803C37.5491 38.8691 37.8069 38.5741 37.8069 38.5248C37.8069 38.4087 38.1818 38.0328 38.2976 38.0328C38.3466 38.0328 38.6781 37.7377 39.0344 37.377C39.3906 37.0164 39.7307 36.7213 39.7902 36.7213C39.8498 36.7213 39.9515 36.6475 40.0164 36.5574C40.0813 36.4672 40.1917 36.3934 40.2619 36.3934C40.332 36.3934 40.4425 36.3197 40.5074 36.2295C40.5723 36.1393 40.6827 36.0656 40.7529 36.0656C40.823 36.0656 40.9335 35.9918 40.9984 35.9016C41.0633 35.8115 41.1737 35.7377 41.2439 35.7377C41.314 35.7377 41.4245 35.6639 41.4894 35.5738C41.5543 35.4836 41.6728 35.4098 41.7529 35.4098C41.833 35.4098 41.8985 35.373 41.8985 35.3279C41.8985 35.2828 41.9722 35.2459 42.0622 35.2459C42.1522 35.2459 42.2259 35.209 42.2259 35.1639C42.2259 35.1189 42.2995 35.082 42.3895 35.082C42.4795 35.082 42.5532 35.0451 42.5532 35C42.5532 34.9549 42.6268 34.918 42.7169 34.918C42.8069 34.918 42.8805 34.8811 42.8805 34.8361C42.8805 34.791 42.9542 34.7541 43.0442 34.7541C43.1342 34.7541 43.2079 34.7172 43.2079 34.6721C43.2079 34.627 43.3183 34.5902 43.4534 34.5902C43.5884 34.5902 43.6989 34.5533 43.6989 34.5082C43.6989 34.4631 43.7725 34.4262 43.8625 34.4262C43.9525 34.4262 44.0262 34.3893 44.0262 34.3443C44.0262 34.2992 44.1367 34.2623 44.2717 34.2623C44.4067 34.2623 44.5172 34.2254 44.5172 34.1803C44.5172 34.1352 44.6277 34.0984 44.7627 34.0984C44.8977 34.0984 45.0082 34.0615 45.0082 34.0164C45.0082 33.9713 45.1555 33.9344 45.3355 33.9344C45.5155 33.9344 45.6628 33.8975 45.6628 33.8525C45.6628 33.8074 45.7733 33.7705 45.9083 33.7705C46.0434 33.7705 46.1538 33.7336 46.1538 33.6885C46.1538 33.6434 46.3011 33.6066 46.4812 33.6066C46.6612 33.6066 46.8085 33.5697 46.8085 33.5246C46.8085 33.4778 47.054 33.4426 47.3813 33.4426C47.7087 33.4426 47.9542 33.4075 47.9542 33.3607C47.9542 33.3082 48.6907 33.2787 50 33.2787C51.3093 33.2787 52.0458 33.3082 52.0458 33.3607ZM48.4452 39.2623C48.4452 39.3074 48.261 39.3443 48.036 39.3443C47.811 39.3443 47.6268 39.3811 47.6268 39.4262C47.6268 39.4713 47.4795 39.5082 47.2995 39.5082C47.1195 39.5082 46.9722 39.5451 46.9722 39.5902C46.9722 39.6352 46.8617 39.6721 46.7267 39.6721C46.5917 39.6721 46.4812 39.709 46.4812 39.7541C46.4812 39.7992 46.3707 39.8361 46.2357 39.8361C46.1007 39.8361 45.9902 39.873 45.9902 39.918C45.9902 39.9631 45.9165 40 45.8265 40C45.7365 40 45.6628 40.0369 45.6628 40.082C45.6628 40.127 45.5892 40.1639 45.4992 40.1639C45.4092 40.1639 45.3355 40.2008 45.3355 40.2459C45.3355 40.291 45.2619 40.3279 45.1718 40.3279C45.0818 40.3279 45.0082 40.3648 45.0082 40.4098C45.0082 40.4549 44.9426 40.4918 44.8626 40.4918C44.7825 40.4918 44.6639 40.5656 44.599 40.6557C44.5341 40.7459 44.4236 40.8197 44.3535 40.8197C44.2834 40.8197 44.1729 40.8934 44.108 40.9836C44.0431 41.0738 43.9326 41.1475 43.8625 41.1475C43.7924 41.1475 43.6819 41.2213 43.617 41.3115C43.5521 41.4016 43.4516 41.4754 43.3935 41.4754C43.3354 41.4754 42.8649 41.8992 42.3477 42.4171C41.8306 42.9352 41.4075 43.4065 41.4075 43.4647C41.4075 43.5228 41.3339 43.6235 41.2439 43.6885C41.1538 43.7535 41.0802 43.8642 41.0802 43.9344C41.0802 44.0047 41.0065 44.1153 40.9165 44.1803C40.8265 44.2453 40.7529 44.3641 40.7529 44.4443C40.7529 44.5245 40.716 44.5902 40.671 44.5902C40.626 44.5902 40.5892 44.6639 40.5892 44.7541C40.5892 44.8443 40.5524 44.918 40.5074 44.918C40.4624 44.918 40.4255 44.9918 40.4255 45.082C40.4255 45.1721 40.3887 45.2459 40.3437 45.2459C40.2987 45.2459 40.2619 45.3197 40.2619 45.4098C40.2619 45.5 40.225 45.5738 40.18 45.5738C40.135 45.5738 40.0982 45.6475 40.0982 45.7377C40.0982 45.8279 40.0614 45.9016 40.0164 45.9016C39.9714 45.9016 39.9345 45.9754 39.9345 46.0656C39.9345 46.1557 39.8977 46.2295 39.8527 46.2295C39.8077 46.2295 39.7709 46.3402 39.7709 46.4754C39.7709 46.6107 39.734 46.7213 39.689 46.7213C39.644 46.7213 39.6072 46.8689 39.6072 47.0492C39.6072 47.2295 39.5704 47.377 39.5254 47.377C39.4804 47.377 39.4435 47.5246 39.4435 47.7049C39.4435 47.8852 39.4067 48.0328 39.3617 48.0328C39.3095 48.0328 39.2799 48.7158 39.2799 49.918C39.2799 51.1202 39.3095 51.8033 39.3617 51.8033C39.4067 51.8033 39.4435 51.9877 39.4435 52.2131C39.4435 52.4385 39.4804 52.623 39.5254 52.623C39.5704 52.623 39.6072 52.7336 39.6072 52.8689C39.6072 53.0041 39.644 53.1148 39.689 53.1148C39.734 53.1148 39.7709 53.2254 39.7709 53.3607C39.7709 53.4959 39.8077 53.6066 39.8527 53.6066C39.8977 53.6066 39.9345 53.7172 39.9345 53.8525C39.9345 53.9877 39.9714 54.0984 40.0164 54.0984C40.0614 54.0984 40.0982 54.1721 40.0982 54.2623C40.0982 54.3525 40.135 54.4262 40.18 54.4262C40.225 54.4262 40.2619 54.5 40.2619 54.5902C40.2619 54.6803 40.2987 54.7541 40.3437 54.7541C40.3887 54.7541 40.4255 54.8279 40.4255 54.918C40.4255 55.0082 40.4624 55.082 40.5074 55.082C40.5524 55.082 40.5892 55.1476 40.5892 55.2278C40.5892 55.308 40.6628 55.4268 40.7529 55.4918C40.8429 55.5568 40.9165 55.6675 40.9165 55.7377C40.9165 55.808 40.9902 55.9186 41.0802 55.9836C41.1702 56.0486 41.2439 56.1593 41.2439 56.2295C41.2439 56.2998 41.3175 56.4104 41.4075 56.4754C41.4975 56.5404 41.5712 56.6412 41.5712 56.6995C41.5712 56.8285 43.0871 58.3607 43.2149 58.3607C43.2649 58.3607 43.4091 58.4713 43.5352 58.6066C43.6613 58.7418 43.8153 58.8525 43.8772 58.8525C43.9393 58.8525 44.0431 58.9262 44.108 59.0164C44.1729 59.1066 44.2834 59.1803 44.3535 59.1803C44.4236 59.1803 44.5341 59.2541 44.599 59.3443C44.6683 59.4405 44.8109 59.5082 44.9444 59.5082C45.0695 59.5082 45.1718 59.5451 45.1718 59.5902C45.1718 59.6352 45.2455 59.6721 45.3355 59.6721C45.4255 59.6721 45.4992 59.709 45.4992 59.7541C45.4992 59.7992 45.5728 59.8361 45.6628 59.8361C45.7529 59.8361 45.8265 59.873 45.8265 59.918C45.8265 59.9631 45.9002 60 45.9902 60C46.0802 60 46.1538 60.0369 46.1538 60.082C46.1538 60.127 46.2275 60.1639 46.3175 60.1639C46.4075 60.1639 46.4812 60.2008 46.4812 60.2459C46.4812 60.291 46.6285 60.3279 46.8085 60.3279C46.9885 60.3279 47.1358 60.3648 47.1358 60.4098C47.1358 60.4549 47.2463 60.4918 47.3813 60.4918C47.5164 60.4918 47.6268 60.5287 47.6268 60.5738C47.6268 60.6193 47.8451 60.6557 48.1178 60.6557C48.3906 60.6557 48.6088 60.6921 48.6088 60.7377C48.6088 60.7893 49.1544 60.8197 50.0818 60.8197C51.0092 60.8197 51.5548 60.7893 51.5548 60.7377C51.5548 60.6921 51.7731 60.6557 52.0458 60.6557C52.3186 60.6557 52.5368 60.6193 52.5368 60.5738C52.5368 60.5287 52.6841 60.4918 52.8642 60.4918C53.0442 60.4918 53.1915 60.4549 53.1915 60.4098C53.1915 60.3648 53.2651 60.3279 53.3552 60.3279C53.4452 60.3279 53.5188 60.291 53.5188 60.2459C53.5188 60.2008 53.6293 60.1639 53.7643 60.1639C53.8993 60.1639 54.0098 60.127 54.0098 60.082C54.0098 60.0369 54.1122 60 54.2372 60C54.3708 60 54.5133 59.9323 54.5826 59.8361C54.6475 59.7459 54.7661 59.6721 54.8462 59.6721C54.9263 59.6721 54.9918 59.6352 54.9918 59.5902C54.9918 59.5451 55.0655 59.5082 55.1555 59.5082C55.2455 59.5082 55.3191 59.4713 55.3191 59.4262C55.3191 59.3811 55.3928 59.3443 55.4828 59.3443C55.5728 59.3443 55.6465 59.3074 55.6465 59.2623C55.6465 59.2172 55.712 59.1803 55.7921 59.1803C55.8722 59.1803 55.9908 59.1066 56.0556 59.0164C56.1205 58.9262 56.2244 58.8525 56.2864 58.8525C56.3484 58.8525 56.5024 58.7418 56.6285 58.6066C56.7546 58.4713 56.8991 58.3607 56.9495 58.3607C57.0669 58.3607 57.9378 57.4915 57.9378 57.3743C57.9378 57.3257 58.1588 57.0688 58.4288 56.8033C58.6989 56.5378 58.9198 56.2713 58.9198 56.2111C58.9198 56.151 58.9935 56.0486 59.0835 55.9836C59.1735 55.9186 59.2471 55.7998 59.2471 55.7196C59.2471 55.6394 59.284 55.5738 59.329 55.5738C59.374 55.5738 59.4108 55.5081 59.4108 55.4279C59.4108 55.3477 59.4844 55.2289 59.5745 55.1639C59.6645 55.0989 59.7381 54.9802 59.7381 54.8999C59.7381 54.8198 59.775 54.7541 59.82 54.7541C59.865 54.7541 59.9018 54.6803 59.9018 54.5902C59.9018 54.5 59.9386 54.4262 59.9836 54.4262C60.0286 54.4262 60.0655 54.3156 60.0655 54.1803C60.0655 54.0451 60.1023 53.9344 60.1473 53.9344C60.1923 53.9344 60.2291 53.8607 60.2291 53.7705C60.2291 53.6803 60.266 53.6066 60.311 53.6066C60.356 53.6066 60.3928 53.459 60.3928 53.2787C60.3928 53.0984 60.4296 52.9508 60.4746 52.9508C60.5196 52.9508 60.5565 52.8402 60.5565 52.7049C60.5565 52.5697 60.5933 52.459 60.6383 52.459C60.685 52.459 60.7201 52.2131 60.7201 51.8852C60.7201 51.5574 60.7552 51.3115 60.802 51.3115C60.8531 51.3115 60.8838 50.8197 60.8838 50C60.8838 49.1803 60.8531 48.6885 60.802 48.6885C60.7552 48.6885 60.7201 48.4426 60.7201 48.1148C60.7201 47.7869 60.685 47.541 60.6383 47.541C60.5933 47.541 60.5565 47.3934 60.5565 47.2131C60.5565 47.0328 60.5196 46.8852 60.4746 46.8852C60.4296 46.8852 60.3928 46.7746 60.3928 46.6393C60.3928 46.5041 60.356 46.3934 60.311 46.3934C60.266 46.3934 60.2291 46.3197 60.2291 46.2295C60.2291 46.1393 60.1923 46.0656 60.1473 46.0656C60.1023 46.0656 60.0655 45.9549 60.0655 45.8197C60.0655 45.6844 60.0286 45.5738 59.9836 45.5738C59.9386 45.5738 59.9018 45.5 59.9018 45.4098C59.9018 45.3197 59.865 45.2459 59.82 45.2459C59.775 45.2459 59.7381 45.1802 59.7381 45.1001C59.7381 45.0198 59.6645 44.9011 59.5745 44.8361C59.4844 44.7711 59.4108 44.6523 59.4108 44.5721C59.4108 44.4919 59.374 44.4262 59.329 44.4262C59.284 44.4262 59.2471 44.3606 59.2471 44.2804C59.2471 44.2002 59.1735 44.0814 59.0835 44.0164C58.9935 43.9514 58.9198 43.8487 58.9198 43.788C58.9198 43.7275 58.7357 43.4983 58.5106 43.2787C58.2856 43.0591 58.1015 42.8394 58.1015 42.7904C58.1015 42.6743 57.2318 41.8033 57.116 41.8033C57.067 41.8033 56.8477 41.6189 56.6285 41.3934C56.4092 41.168 56.1723 40.9836 56.1019 40.9836C56.0314 40.9836 55.9738 40.9467 55.9738 40.9016C55.9738 40.8566 55.9083 40.8197 55.8282 40.8197C55.7481 40.8197 55.6295 40.7459 55.5646 40.6557C55.4998 40.5656 55.3812 40.4918 55.3011 40.4918C55.221 40.4918 55.1555 40.4549 55.1555 40.4098C55.1555 40.3648 55.0818 40.3279 54.9918 40.3279C54.9018 40.3279 54.8281 40.291 54.8281 40.2459C54.8281 40.2008 54.7545 40.1639 54.6645 40.1639C54.5745 40.1639 54.5008 40.127 54.5008 40.082C54.5008 40.0369 54.4272 40 54.3371 40C54.2471 40 54.1735 39.9631 54.1735 39.918C54.1735 39.873 54.063 39.8361 53.928 39.8361C53.793 39.8361 53.6825 39.7992 53.6825 39.7541C53.6825 39.709 53.572 39.6721 53.437 39.6721C53.302 39.6721 53.1915 39.6352 53.1915 39.5902C53.1915 39.5451 53.0442 39.5082 52.8642 39.5082C52.6841 39.5082 52.5368 39.4713 52.5368 39.4262C52.5368 39.3807 52.3186 39.3443 52.0458 39.3443C51.7731 39.3443 51.5548 39.3079 51.5548 39.2623C51.5548 39.2105 50.982 39.1803 50 39.1803C49.018 39.1803 48.4452 39.2105 48.4452 39.2623Z" fill="#602B7A"></path> </svg> 