<?xml version="1.0" encoding="UTF-8"?> <svg xmlns="http://www.w3.org/2000/svg" width="978" height="419" viewBox="0 0 978 419" fill="none"> <path d="M292.19 218.088C280.617 218.088 270.884 214.142 262.993 206.251C255.102 198.359 251.157 188.45 251.157 176.525C251.157 164.6 255.102 154.691 262.993 146.8C270.884 138.908 280.617 134.962 292.19 134.962C303.764 134.962 313.496 138.908 321.387 146.8C329.278 154.691 333.224 164.6 333.224 176.525C333.224 188.45 329.278 198.359 321.387 206.251C313.496 214.142 303.764 218.088 292.19 218.088Z" fill="#602B7A"></path> <path d="M420.199 204.672C428.265 212.564 438.261 216.51 450.185 216.51C462.109 216.51 472.017 212.564 479.908 204.672C487.974 196.781 492.008 186.96 492.008 175.21C492.008 163.46 487.974 153.639 479.908 145.748C472.017 137.856 462.109 133.91 450.185 133.91C438.261 133.91 428.265 137.856 420.199 145.748C412.308 153.639 408.362 163.46 408.362 175.21C408.362 186.96 412.308 196.781 420.199 204.672Z" fill="#602B7A"></path> <path d="M801.836 218.614C789.912 218.614 780.004 214.668 772.113 206.777C764.222 198.71 760.276 188.626 760.276 176.525C760.276 164.425 764.222 154.428 772.113 146.537C780.004 138.47 789.912 134.436 801.836 134.436C813.76 134.436 823.668 138.47 831.559 146.537C839.45 154.428 843.396 164.425 843.396 176.525C843.396 188.626 839.45 198.71 831.559 206.777C823.668 214.668 813.76 218.614 801.836 218.614Z" fill="#602B7A"></path> <path fill-rule="evenodd" clip-rule="evenodd" d="M0 0H978V332.282H268.523L181.811 419L95.1003 332.282H0V0ZM567.205 91.0317C572.115 91.0317 576.324 89.278 579.831 85.7706C583.514 82.0878 585.355 77.7912 585.355 72.8808C585.355 67.9704 583.601 63.7615 580.094 60.2541C576.587 56.5713 572.291 54.7299 567.205 54.7299C562.12 54.7299 557.824 56.5713 554.317 60.2541C550.809 63.7615 549.056 67.9704 549.056 72.8808C549.056 77.7912 550.809 82.0878 554.317 85.7706C557.999 89.278 562.295 91.0317 567.205 91.0317ZM581.409 110.761H553.001V242.289H581.409V110.761ZM213.614 213.353H138.649V58.1496H108.4V242.289H213.614V213.353ZM243.002 225.717C256.505 239.045 272.901 245.709 292.19 245.709C311.655 245.709 328.051 239.045 341.378 225.717C354.881 212.389 361.632 195.991 361.632 176.525C361.632 157.059 354.881 140.662 341.378 127.334C328.051 114.005 311.655 107.341 292.19 107.341C272.901 107.341 256.505 114.005 243.002 127.334C229.5 140.662 222.749 157.059 222.749 176.525C222.749 195.991 229.5 212.389 243.002 225.717ZM492.008 110.761H519.89V236.239C519.89 256.231 513.314 271.576 500.162 282.274C487.01 292.972 471.052 298.32 452.289 298.32C421.952 298.32 401.172 287.711 389.949 266.491L414.412 252.286C421.251 265.789 434.052 272.541 452.815 272.541C465.09 272.541 474.647 269.297 481.486 262.808C488.501 256.494 492.008 247.638 492.008 236.239V220.193C481.311 235.45 466.055 243.079 446.239 243.079C427.651 243.079 411.957 236.502 399.156 223.349C386.355 210.021 379.954 193.975 379.954 175.21C379.954 156.445 386.355 140.486 399.156 127.334C411.957 114.005 427.651 107.341 446.239 107.341C466.055 107.341 481.311 114.97 492.008 130.227V110.761ZM730.656 242.289H696.724L642.802 181.523V242.289H614.394V58.1496H642.802V168.897L693.831 110.761H728.552L670.684 175.21L730.656 242.289ZM871.804 110.761H843.396V129.438C832.699 114.707 817.355 107.341 797.364 107.341C779.303 107.341 763.871 114.005 751.07 127.334C738.269 140.662 731.868 157.059 731.868 176.525C731.868 195.816 738.269 212.213 751.07 225.717C763.871 239.045 779.303 245.709 797.364 245.709C817.355 245.709 832.699 238.256 843.396 223.349V242.289H871.804V110.761Z" fill="#602B7A"></path> </svg> 