<?xml version="1.0" encoding="UTF-8"?> <svg xmlns="http://www.w3.org/2000/svg" width="100" height="100" viewBox="0 0 100 100" fill="none"> <path fill-rule="evenodd" clip-rule="evenodd" d="M47.2222 0.0816993C47.2222 0.131944 46.8137 0.163399 46.1601 0.163399C45.5065 0.163399 45.098 0.194853 45.098 0.245098C45.098 0.293546 44.7984 0.326797 44.3627 0.326797C43.927 0.326797 43.6275 0.360049 43.6275 0.408497C43.6275 0.453431 43.4436 0.490196 43.219 0.490196C42.9943 0.490196 42.8105 0.526961 42.8105 0.571895C42.8105 0.618546 42.5654 0.653595 42.2386 0.653595C41.9118 0.653595 41.6667 0.688644 41.6667 0.735294C41.6667 0.780719 41.4488 0.816993 41.1765 0.816993C40.9042 0.816993 40.6863 0.853268 40.6863 0.898693C40.6863 0.943627 40.5392 0.980392 40.3595 0.980392C40.1797 0.980392 40.0327 1.01716 40.0327 1.06209C40.0327 1.10752 39.8148 1.14379 39.5425 1.14379C39.2702 1.14379 39.0523 1.18007 39.0523 1.22549C39.0523 1.27042 38.942 1.30719 38.8072 1.30719C38.6724 1.30719 38.5621 1.34395 38.5621 1.38889C38.5621 1.43382 38.3783 1.47059 38.1536 1.47059C37.9289 1.47059 37.7451 1.50735 37.7451 1.55229C37.7451 1.59722 37.598 1.63399 37.4183 1.63399C37.2386 1.63399 37.0915 1.67075 37.0915 1.71569C37.0915 1.76062 36.9812 1.79739 36.8464 1.79739C36.7116 1.79739 36.6013 1.83415 36.6013 1.87909C36.6013 1.92402 36.491 1.96078 36.3562 1.96078C36.2214 1.96078 36.1111 1.99755 36.1111 2.04248C36.1111 2.08742 35.9641 2.12418 35.7843 2.12418C35.6046 2.12418 35.4575 2.16095 35.4575 2.20588C35.4575 2.25082 35.3472 2.28758 35.2124 2.28758C35.0776 2.28758 34.9673 2.32435 34.9673 2.36928C34.9673 2.41422 34.857 2.45098 34.7222 2.45098C34.5874 2.45098 34.4771 2.48775 34.4771 2.53268C34.4771 2.57761 34.3668 2.61438 34.232 2.61438C34.0972 2.61438 33.9869 2.65114 33.9869 2.69608C33.9869 2.74101 33.8766 2.77778 33.7418 2.77778C33.607 2.77778 33.4967 2.81454 33.4967 2.85948C33.4967 2.90441 33.3864 2.94118 33.2516 2.94118C33.1168 2.94118 33.0065 2.97794 33.0065 3.02288C33.0065 3.06781 32.933 3.10458 32.8431 3.10458C32.7533 3.10458 32.6797 3.14134 32.6797 3.18627C32.6797 3.23121 32.5694 3.26797 32.4346 3.26797C32.2998 3.26797 32.1895 3.30474 32.1895 3.34967C32.1895 3.39461 32.0792 3.43137 31.9444 3.43137C31.8096 3.43137 31.6993 3.46814 31.6993 3.51307C31.6993 3.55801 31.6258 3.59477 31.5359 3.59477C31.4461 3.59477 31.3726 3.63154 31.3726 3.67647C31.3726 3.72141 31.299 3.75817 31.2092 3.75817C31.1193 3.75817 31.0458 3.79493 31.0458 3.83987C31.0458 3.8848 30.9722 3.92157 30.8824 3.92157C30.7925 3.92157 30.719 3.95833 30.719 4.00327C30.719 4.0482 30.6087 4.08497 30.4739 4.08497C30.3391 4.08497 30.2288 4.12173 30.2288 4.16667C30.2288 4.2116 30.1185 4.24837 29.9837 4.24837C29.8489 4.24837 29.7386 4.28513 29.7386 4.33007C29.7386 4.375 29.665 4.41176 29.5752 4.41176C29.4853 4.41176 29.4118 4.44853 29.4118 4.49346C29.4118 4.5384 29.3382 4.57516 29.2484 4.57516C29.1585 4.57516 29.085 4.61193 29.085 4.65686C29.085 4.7018 29.0114 4.73856 28.9216 4.73856C28.8317 4.73856 28.7582 4.77533 28.7582 4.82026C28.7582 4.8652 28.6846 4.90196 28.5948 4.90196C28.5049 4.90196 28.4314 4.93873 28.4314 4.98366C28.4314 5.02859 28.3578 5.06536 28.268 5.06536C28.1781 5.06536 28.1046 5.10212 28.1046 5.14706C28.1046 5.19199 28.031 5.22876 27.9412 5.22876C27.8513 5.22876 27.7778 5.26552 27.7778 5.31046C27.7778 5.35539 27.7123 5.39216 27.6324 5.39216C27.5525 5.39216 27.4341 5.46569 27.3693 5.55556C27.3001 5.65147 27.1578 5.71895 27.0244 5.71895C26.8996 5.71895 26.7974 5.75572 26.7974 5.80065C26.7974 5.84559 26.7239 5.88235 26.634 5.88235C26.5441 5.88235 26.4706 5.91912 26.4706 5.96405C26.4706 6.00899 26.4051 6.04575 26.3252 6.04575C26.2453 6.04575 26.1269 6.11928 26.0621 6.20915C25.9973 6.29902 25.8789 6.37255 25.7989 6.37255C25.719 6.37255 25.6536 6.40931 25.6536 6.45425C25.6536 6.49918 25.5801 6.53595 25.4902 6.53595C25.4003 6.53595 25.3268 6.57271 25.3268 6.61765C25.3268 6.66258 25.2614 6.69935 25.1815 6.69935C25.1015 6.69935 24.9831 6.77288 24.9183 6.86275C24.8535 6.95261 24.7351 7.02614 24.6551 7.02614C24.5752 7.02614 24.5098 7.06291 24.5098 7.10784C24.5098 7.15278 24.4444 7.18954 24.3645 7.18954C24.2845 7.18954 24.1661 7.26307 24.1013 7.35294C24.0365 7.44281 23.9181 7.51634 23.8382 7.51634C23.7583 7.51634 23.6928 7.5531 23.6928 7.59804C23.6928 7.64297 23.6274 7.67974 23.5475 7.67974C23.4675 7.67974 23.3491 7.75327 23.2843 7.84314C23.2195 7.93301 23.1092 8.00654 23.0392 8.00654C22.9692 8.00654 22.8589 8.08007 22.7941 8.16993C22.7293 8.2598 22.619 8.33333 22.549 8.33333C22.479 8.33333 22.3687 8.40686 22.3039 8.49673C22.2391 8.5866 22.1288 8.66013 22.0588 8.66013C21.9888 8.66013 21.8785 8.73366 21.8137 8.82353C21.7489 8.9134 21.6453 8.98693 21.5833 8.98693C21.5215 8.98693 21.3677 9.09722 21.2418 9.23203C21.1159 9.36683 20.9689 9.47712 20.915 9.47712C20.8612 9.47712 20.7141 9.58742 20.5882 9.72222C20.4623 9.85703 20.3086 9.96732 20.2467 9.96732C20.1848 9.96732 20.0811 10.0408 20.0163 10.1307C19.9516 10.2206 19.8487 10.2941 19.7877 10.2941C19.7266 10.2941 19.5355 10.4412 19.3627 10.6209C19.19 10.8007 19.0075 10.9477 18.9572 10.9477C18.9068 10.9477 18.5746 11.2418 18.219 11.6013C17.8633 11.9608 17.5238 12.2549 17.4644 12.2549C17.4049 12.2549 17.3034 12.3284 17.2386 12.4183C17.1738 12.5082 17.0736 12.5817 17.0159 12.5817C16.8674 12.5817 12.5817 16.8848 12.5817 17.0339C12.5817 17.1024 12.5093 17.1569 12.4183 17.1569C12.3161 17.1569 12.2549 17.2113 12.2549 17.3022C12.2549 17.3822 12.1814 17.5006 12.0915 17.5654C12.0016 17.6301 11.9281 17.7325 11.9281 17.793C11.9281 17.8534 11.7443 18.0818 11.5196 18.3007C11.2949 18.5195 11.1111 18.7406 11.1111 18.7919C11.1111 18.8433 10.9641 19.0266 10.7843 19.1993C10.6046 19.3721 10.4575 19.5566 10.4575 19.6095C10.4575 19.6624 10.3472 19.8087 10.2124 19.9346C10.0776 20.0605 9.96732 20.2076 9.96732 20.2614C9.96732 20.3153 9.85703 20.4623 9.72222 20.5882C9.58742 20.7141 9.47712 20.8612 9.47712 20.915C9.47712 20.9689 9.36683 21.1159 9.23203 21.2418C9.09722 21.3677 8.98693 21.5215 8.98693 21.5833C8.98693 21.6453 8.9134 21.7489 8.82353 21.8137C8.73366 21.8785 8.66013 21.9888 8.66013 22.0588C8.66013 22.1288 8.5866 22.2391 8.49673 22.3039C8.40686 22.3687 8.33333 22.479 8.33333 22.549C8.33333 22.619 8.2598 22.7293 8.16993 22.7941C8.08007 22.8589 8.00654 22.9692 8.00654 23.0392C8.00654 23.1092 7.93301 23.2195 7.84314 23.2843C7.75327 23.3491 7.67974 23.4675 7.67974 23.5475C7.67974 23.6274 7.64297 23.6928 7.59804 23.6928C7.5531 23.6928 7.51634 23.7582 7.51634 23.8381C7.51634 23.9181 7.44281 24.0365 7.35294 24.1013C7.26307 24.1661 7.18954 24.2845 7.18954 24.3645C7.18954 24.4444 7.15278 24.5098 7.10784 24.5098C7.06291 24.5098 7.02614 24.5752 7.02614 24.6551C7.02614 24.7351 6.95261 24.8535 6.86275 24.9183C6.77288 24.9831 6.69935 25.1015 6.69935 25.1815C6.69935 25.2614 6.66258 25.3268 6.61765 25.3268C6.57271 25.3268 6.53595 25.3922 6.53595 25.4721C6.53595 25.5521 6.46242 25.6705 6.37255 25.7353C6.28268 25.8001 6.20915 25.9185 6.20915 25.9985C6.20915 26.0784 6.17239 26.1438 6.12745 26.1438C6.08252 26.1438 6.04575 26.2173 6.04575 26.3072C6.04575 26.3971 6.00899 26.4706 5.96405 26.4706C5.91912 26.4706 5.88235 26.5441 5.88235 26.634C5.88235 26.7239 5.84559 26.7974 5.80065 26.7974C5.75572 26.7974 5.71895 26.8709 5.71895 26.9608C5.71895 27.0507 5.68219 27.1242 5.63726 27.1242C5.59232 27.1242 5.55556 27.1977 5.55556 27.2876C5.55556 27.3775 5.51879 27.451 5.47386 27.451C5.42892 27.451 5.39216 27.5245 5.39216 27.6144C5.39216 27.7042 5.35539 27.7778 5.31046 27.7778C5.26552 27.7778 5.22876 27.8513 5.22876 27.9412C5.22876 28.031 5.19199 28.1046 5.14706 28.1046C5.10212 28.1046 5.06536 28.1781 5.06536 28.268C5.06536 28.3578 5.02859 28.4314 4.98366 28.4314C4.93873 28.4314 4.90196 28.5049 4.90196 28.5948C4.90196 28.6846 4.8652 28.7582 4.82026 28.7582C4.77533 28.7582 4.73856 28.8317 4.73856 28.9216C4.73856 29.0114 4.7018 29.085 4.65686 29.085C4.61193 29.085 4.57516 29.1953 4.57516 29.3301C4.57516 29.4649 4.5384 29.5752 4.49346 29.5752C4.44853 29.5752 4.41176 29.6487 4.41176 29.7386C4.41176 29.8284 4.375 29.902 4.33007 29.902C4.28513 29.902 4.24837 29.9755 4.24837 30.0654C4.24837 30.1552 4.2116 30.2288 4.16667 30.2288C4.12173 30.2288 4.08497 30.3023 4.08497 30.3922C4.08497 30.482 4.0482 30.5556 4.00327 30.5556C3.95833 30.5556 3.92157 30.6659 3.92157 30.8007C3.92157 30.9355 3.8848 31.0458 3.83987 31.0458C3.79493 31.0458 3.75817 31.1193 3.75817 31.2092C3.75817 31.299 3.72141 31.3726 3.67647 31.3726C3.63154 31.3726 3.59477 31.4461 3.59477 31.5359C3.59477 31.6258 3.55801 31.6993 3.51307 31.6993C3.46814 31.6993 3.43137 31.8096 3.43137 31.9444C3.43137 32.0792 3.39461 32.1895 3.34967 32.1895C3.30474 32.1895 3.26797 32.2998 3.26797 32.4346C3.26797 32.5694 3.23121 32.6797 3.18627 32.6797C3.14134 32.6797 3.10458 32.7533 3.10458 32.8431C3.10458 32.933 3.06781 33.0065 3.02288 33.0065C2.97794 33.0065 2.94118 33.1168 2.94118 33.2516C2.94118 33.3864 2.90441 33.4967 2.85948 33.4967C2.81454 33.4967 2.77778 33.607 2.77778 33.7418C2.77778 33.8766 2.74101 33.9869 2.69608 33.9869C2.65114 33.9869 2.61438 34.0972 2.61438 34.232C2.61438 34.3668 2.57761 34.4771 2.53268 34.4771C2.48775 34.4771 2.45098 34.5874 2.45098 34.7222C2.45098 34.857 2.41422 34.9673 2.36928 34.9673C2.32435 34.9673 2.28758 35.0776 2.28758 35.2124C2.28758 35.3472 2.25082 35.4575 2.20588 35.4575C2.16095 35.4575 2.12418 35.5678 2.12418 35.7026C2.12418 35.8374 2.08742 35.9477 2.04248 35.9477C1.99755 35.9477 1.96078 36.0948 1.96078 36.2745C1.96078 36.4542 1.92402 36.6013 1.87909 36.6013C1.83415 36.6013 1.79739 36.7484 1.79739 36.9281C1.79739 37.1078 1.76062 37.2549 1.71569 37.2549C1.67075 37.2549 1.63399 37.402 1.63399 37.5817C1.63399 37.7614 1.59722 37.9085 1.55229 37.9085C1.50735 37.9085 1.47059 38.0556 1.47059 38.2353C1.47059 38.415 1.43382 38.5621 1.38889 38.5621C1.34395 38.5621 1.30719 38.7092 1.30719 38.8889C1.30719 39.0686 1.27042 39.2157 1.22549 39.2157C1.18056 39.2157 1.14379 39.3627 1.14379 39.5425C1.14379 39.7222 1.10703 39.8693 1.06209 39.8693C1.01667 39.8693 0.980392 40.0872 0.980392 40.3595C0.980392 40.6318 0.944118 40.8497 0.898693 40.8497C0.853758 40.8497 0.816993 41.0335 0.816993 41.2582C0.816993 41.4828 0.780229 41.6667 0.735294 41.6667C0.690359 41.6667 0.653595 41.8505 0.653595 42.0752C0.653595 42.2998 0.61683 42.4837 0.571895 42.4837C0.524265 42.4837 0.490196 42.756 0.490196 43.1373C0.490196 43.5185 0.456127 43.7909 0.408497 43.7909C0.360049 43.7909 0.326797 44.0904 0.326797 44.5261C0.326797 44.9618 0.293546 45.2614 0.245098 45.2614C0.193873 45.2614 0.163399 45.7788 0.163399 46.6503C0.163399 47.5218 0.132925 48.0392 0.0816993 48.0392C0.0294118 48.0392 0 48.7745 0 50.0817C0 51.3889 0.0294118 52.1242 0.0816993 52.1242C0.132761 52.1242 0.163399 52.6144 0.163399 53.4314C0.163399 54.2484 0.194036 54.7386 0.245098 54.7386C0.293546 54.7386 0.326797 55.0382 0.326797 55.4739C0.326797 55.9096 0.360049 56.2092 0.408497 56.2092C0.456127 56.2092 0.490196 56.4815 0.490196 56.8627C0.490196 57.244 0.524265 57.5163 0.571895 57.5163C0.61732 57.5163 0.653595 57.7342 0.653595 58.0065C0.653595 58.2788 0.689869 58.4967 0.735294 58.4967C0.780229 58.4967 0.816993 58.6806 0.816993 58.9052C0.816993 59.1299 0.853758 59.3137 0.898693 59.3137C0.943627 59.3137 0.980392 59.4976 0.980392 59.7222C0.980392 59.9469 1.01716 60.1307 1.06209 60.1307C1.10703 60.1307 1.14379 60.3145 1.14379 60.5392C1.14379 60.7639 1.18056 60.9477 1.22549 60.9477C1.27042 60.9477 1.30719 61.0948 1.30719 61.2745C1.30719 61.4543 1.34395 61.6013 1.38889 61.6013C1.43382 61.6013 1.47059 61.7484 1.47059 61.9281C1.47059 62.1078 1.50735 62.2549 1.55229 62.2549C1.59722 62.2549 1.63399 62.402 1.63399 62.5817C1.63399 62.7614 1.67075 62.9085 1.71569 62.9085C1.76062 62.9085 1.79739 63.0556 1.79739 63.2353C1.79739 63.415 1.83415 63.5621 1.87909 63.5621C1.92402 63.5621 1.96078 63.7092 1.96078 63.8889C1.96078 64.0686 1.99755 64.2157 2.04248 64.2157C2.08742 64.2157 2.12418 64.326 2.12418 64.4608C2.12418 64.5956 2.16095 64.7059 2.20588 64.7059C2.25082 64.7059 2.28758 64.8162 2.28758 64.951C2.28758 65.0858 2.32435 65.1961 2.36928 65.1961C2.41422 65.1961 2.45098 65.3064 2.45098 65.4412C2.45098 65.576 2.48775 65.6863 2.53268 65.6863C2.57761 65.6863 2.61438 65.7966 2.61438 65.9314C2.61438 66.0662 2.65114 66.1765 2.69608 66.1765C2.74101 66.1765 2.77778 66.2868 2.77778 66.4216C2.77778 66.5564 2.81454 66.6667 2.85948 66.6667C2.90441 66.6667 2.94118 66.777 2.94118 66.9118C2.94118 67.0466 2.97794 67.1569 3.02288 67.1569C3.06781 67.1569 3.10458 67.2672 3.10458 67.402C3.10458 67.5368 3.14134 67.6471 3.18627 67.6471C3.23121 67.6471 3.26797 67.7206 3.26797 67.8105C3.26797 67.9003 3.30474 67.9739 3.34967 67.9739C3.39461 67.9739 3.43137 68.0842 3.43137 68.219C3.43137 68.3538 3.46814 68.4641 3.51307 68.4641C3.55801 68.4641 3.59477 68.5743 3.59477 68.7092C3.59477 68.844 3.63154 68.9543 3.67647 68.9543C3.72141 68.9543 3.75817 69.0278 3.75817 69.1176C3.75817 69.2075 3.79493 69.281 3.83987 69.281C3.8848 69.281 3.92157 69.3546 3.92157 69.4444C3.92157 69.5343 3.95833 69.6078 4.00327 69.6078C4.0482 69.6078 4.08497 69.6814 4.08497 69.7712C4.08497 69.8611 4.12173 69.9346 4.16667 69.9346C4.2116 69.9346 4.24837 70.0449 4.24837 70.1797C4.24837 70.3145 4.28513 70.4248 4.33007 70.4248C4.375 70.4248 4.41176 70.4984 4.41176 70.5882C4.41176 70.6781 4.44853 70.7516 4.49346 70.7516C4.5384 70.7516 4.57516 70.8252 4.57516 70.915C4.57516 71.0049 4.61193 71.0784 4.65686 71.0784C4.7018 71.0784 4.73856 71.152 4.73856 71.2418C4.73856 71.3317 4.77533 71.4052 4.82026 71.4052C4.8652 71.4052 4.90196 71.4788 4.90196 71.5686C4.90196 71.6585 4.93873 71.732 4.98366 71.732C5.02859 71.732 5.06536 71.8056 5.06536 71.8954C5.06536 71.9853 5.10212 72.0588 5.14706 72.0588C5.19199 72.0588 5.22876 72.1324 5.22876 72.2222C5.22876 72.3121 5.26552 72.3856 5.31046 72.3856C5.35539 72.3856 5.39216 72.4592 5.39216 72.549C5.39216 72.6389 5.42892 72.7124 5.47386 72.7124C5.51879 72.7124 5.55556 72.786 5.55556 72.8758C5.55556 72.9657 5.59232 73.0392 5.63726 73.0392C5.68219 73.0392 5.71895 73.1127 5.71895 73.2026C5.71895 73.2925 5.75572 73.366 5.80065 73.366C5.84559 73.366 5.88235 73.4395 5.88235 73.5294C5.88235 73.6193 5.91912 73.6928 5.96405 73.6928C6.00899 73.6928 6.04575 73.7663 6.04575 73.8562C6.04575 73.9461 6.08252 74.0196 6.12745 74.0196C6.17239 74.0196 6.20915 74.0931 6.20915 74.183C6.20915 74.2729 6.24592 74.3464 6.29085 74.3464C6.33578 74.3464 6.37255 74.4199 6.37255 74.5098C6.37255 74.5997 6.40931 74.6732 6.45425 74.6732C6.49918 74.6732 6.53595 74.7386 6.53595 74.8185C6.53595 74.8985 6.60948 75.0169 6.69935 75.0817C6.78922 75.1465 6.86275 75.2568 6.86275 75.3268C6.86275 75.3968 6.93627 75.5071 7.02614 75.5719C7.11601 75.6367 7.18954 75.7551 7.18954 75.8351C7.18954 75.915 7.22631 75.9804 7.27124 75.9804C7.31618 75.9804 7.35294 76.0458 7.35294 76.1257C7.35294 76.2057 7.42647 76.3241 7.51634 76.3889C7.60621 76.4537 7.67974 76.5721 7.67974 76.6521C7.67974 76.732 7.7165 76.7974 7.76144 76.7974C7.80637 76.7974 7.84314 76.8628 7.84314 76.9427C7.84314 77.0227 7.91667 77.1411 8.00654 77.2059C8.09641 77.2707 8.16993 77.381 8.16993 77.451C8.16993 77.521 8.24346 77.6313 8.33333 77.6961C8.4232 77.7609 8.49673 77.8712 8.49673 77.9412C8.49673 78.0112 8.57026 78.1215 8.66013 78.1863C8.75 78.2511 8.82353 78.3614 8.82353 78.4314C8.82353 78.5014 8.89706 78.6117 8.98693 78.6765C9.0768 78.7413 9.15033 78.8449 9.15033 78.9069C9.15033 78.9687 9.26062 79.1225 9.39543 79.2484C9.53023 79.3743 9.64052 79.5213 9.64052 79.5752C9.64052 79.629 9.75082 79.7761 9.88562 79.902C10.0204 80.0279 10.1307 80.1742 10.1307 80.2271C10.1307 80.28 10.2778 80.4645 10.4575 80.6373C10.6373 80.81 10.7843 80.9938 10.7843 81.0458C10.7843 81.0977 10.9314 81.2815 11.1111 81.4543C11.2909 81.627 11.4379 81.8099 11.4379 81.8609C11.4379 81.9119 11.6585 82.17 11.9281 82.4346C12.1977 82.6993 12.4183 82.9548 12.4183 83.0024C12.4183 83.116 16.8847 87.5817 16.9984 87.5817C17.0465 87.5817 17.2648 87.7655 17.4837 87.9902C17.7025 88.2149 17.9231 88.3987 17.9739 88.3987C18.0246 88.3987 18.2452 88.5825 18.4641 88.8072C18.6829 89.0319 18.9047 89.2157 18.957 89.2157C19.0093 89.2157 19.1551 89.326 19.281 89.4608C19.4069 89.5956 19.554 89.7059 19.6078 89.7059C19.6617 89.7059 19.8087 89.8162 19.9346 89.951C20.0605 90.0858 20.2076 90.1961 20.2614 90.1961C20.3153 90.1961 20.4623 90.3064 20.5882 90.4412C20.7141 90.576 20.8679 90.6863 20.9297 90.6863C20.9917 90.6863 21.0953 90.7598 21.1601 90.8497C21.2249 90.9395 21.3352 91.0131 21.4052 91.0131C21.4752 91.0131 21.5855 91.0866 21.6503 91.1765C21.7151 91.2663 21.8254 91.3399 21.8954 91.3399C21.9654 91.3399 22.0757 91.4134 22.1405 91.5033C22.2053 91.5931 22.3156 91.6667 22.3856 91.6667C22.4556 91.6667 22.5659 91.7402 22.6307 91.8301C22.6955 91.9199 22.8058 91.9935 22.8758 91.9935C22.9458 91.9935 23.0561 92.067 23.1209 92.1569C23.1857 92.2467 23.3041 92.3203 23.3841 92.3203C23.464 92.3203 23.5294 92.357 23.5294 92.402C23.5294 92.4469 23.5949 92.4837 23.6748 92.4837C23.7547 92.4837 23.8731 92.5572 23.9379 92.6471C24.0027 92.7369 24.113 92.8105 24.183 92.8105C24.253 92.8105 24.3633 92.884 24.4281 92.9739C24.4929 93.0637 24.6113 93.1373 24.6913 93.1373C24.7712 93.1373 24.8366 93.174 24.8366 93.219C24.8366 93.2639 24.9101 93.3007 25 93.3007C25.0899 93.3007 25.1634 93.3374 25.1634 93.3824C25.1634 93.4273 25.2288 93.4641 25.3087 93.4641C25.3887 93.4641 25.5071 93.5376 25.5719 93.6275C25.6367 93.7173 25.7551 93.7909 25.8351 93.7909C25.915 93.7909 25.9804 93.8276 25.9804 93.8726C25.9804 93.9175 26.0539 93.9543 26.1438 93.9543C26.2337 93.9543 26.3072 93.991 26.3072 94.036C26.3072 94.0809 26.3807 94.1177 26.4706 94.1177C26.5605 94.1177 26.634 94.1544 26.634 94.1993C26.634 94.2443 26.7075 94.281 26.7974 94.281C26.8873 94.281 26.9608 94.3178 26.9608 94.3627C26.9608 94.4077 27.0262 94.4444 27.1061 94.4444C27.1861 94.4444 27.3045 94.518 27.3693 94.6078C27.4341 94.6977 27.5525 94.7712 27.6324 94.7712C27.7123 94.7712 27.7778 94.808 27.7778 94.8529C27.7778 94.8979 27.8881 94.9346 28.0229 94.9346C28.1577 94.9346 28.268 94.9714 28.268 95.0163C28.268 95.0613 28.3334 95.098 28.4133 95.098C28.4933 95.098 28.6117 95.1716 28.6765 95.2614C28.7457 95.3574 28.888 95.4248 29.0213 95.4248C29.1462 95.4248 29.2484 95.4616 29.2484 95.5065C29.2484 95.5515 29.3587 95.5882 29.4935 95.5882C29.6283 95.5882 29.7386 95.625 29.7386 95.6699C29.7386 95.7149 29.8121 95.7516 29.902 95.7516C29.9918 95.7516 30.0654 95.7884 30.0654 95.8333C30.0654 95.8783 30.1389 95.915 30.2288 95.915C30.3186 95.915 30.3922 95.9518 30.3922 95.9967C30.3922 96.0417 30.5025 96.0784 30.6373 96.0784C30.7721 96.0784 30.8824 96.1152 30.8824 96.1601C30.8824 96.2051 30.9559 96.2418 31.0458 96.2418C31.1356 96.2418 31.2092 96.2786 31.2092 96.3235C31.2092 96.3685 31.2827 96.4052 31.3726 96.4052C31.4624 96.4052 31.5359 96.442 31.5359 96.4869C31.5359 96.5319 31.6462 96.5686 31.781 96.5686C31.9159 96.5686 32.0261 96.6054 32.0261 96.6503C32.0261 96.6953 32.0997 96.732 32.1895 96.732C32.2794 96.732 32.3529 96.7688 32.3529 96.8137C32.3529 96.8587 32.4632 96.8954 32.598 96.8954C32.7328 96.8954 32.8431 96.9322 32.8431 96.9771C32.8431 97.0221 32.9534 97.0588 33.0882 97.0588C33.223 97.0588 33.3333 97.0956 33.3333 97.1405C33.3333 97.1855 33.4436 97.2222 33.5784 97.2222C33.7132 97.2222 33.8235 97.259 33.8235 97.3039C33.8235 97.3489 33.9706 97.3856 34.1503 97.3856C34.3301 97.3856 34.4771 97.4224 34.4771 97.4673C34.4771 97.5123 34.5507 97.549 34.6405 97.549C34.7304 97.549 34.8039 97.5858 34.8039 97.6307C34.8039 97.6757 34.9142 97.7124 35.049 97.7124C35.1838 97.7124 35.2941 97.7492 35.2941 97.7941C35.2941 97.8391 35.4412 97.8758 35.6209 97.8758C35.8007 97.8758 35.9477 97.9126 35.9477 97.9575C35.9477 98.0025 36.0948 98.0392 36.2745 98.0392C36.4542 98.0392 36.6013 98.076 36.6013 98.1209C36.6013 98.1659 36.7116 98.2026 36.8464 98.2026C36.9812 98.2026 37.0915 98.2394 37.0915 98.2843C37.0915 98.3293 37.2386 98.366 37.4183 98.366C37.598 98.366 37.7451 98.4028 37.7451 98.4477C37.7451 98.4927 37.8922 98.5294 38.0719 98.5294C38.2516 98.5294 38.3987 98.5662 38.3987 98.6111C38.3987 98.6565 38.6166 98.6928 38.8889 98.6928C39.1612 98.6928 39.3791 98.7291 39.3791 98.7745C39.3791 98.8194 39.5261 98.8562 39.7059 98.8562C39.8856 98.8562 40.0327 98.893 40.0327 98.9379C40.0327 98.9828 40.2165 99.0196 40.4412 99.0196C40.6659 99.0196 40.8497 99.0564 40.8497 99.1013C40.8497 99.1467 41.0676 99.183 41.3399 99.183C41.6122 99.183 41.8301 99.2193 41.8301 99.2647C41.8301 99.3114 42.0752 99.3464 42.402 99.3464C42.7288 99.3464 42.9739 99.3815 42.9739 99.4281C42.9739 99.4748 43.219 99.5098 43.5458 99.5098C43.8726 99.5098 44.1176 99.5449 44.1176 99.5915C44.1176 99.641 44.4717 99.6732 45.0163 99.6732C45.561 99.6732 45.915 99.7054 45.915 99.7549C45.915 99.8068 46.5414 99.8366 47.6307 99.8366C48.72 99.8366 49.3464 99.8664 49.3464 99.9183C49.3464 99.965 49.5915 100 49.9183 100C50.2451 100 50.4902 99.965 50.4902 99.9183C50.4902 99.8663 51.1438 99.8366 52.2876 99.8366C53.4314 99.8366 54.085 99.8069 54.085 99.7549C54.085 99.7065 54.3846 99.6732 54.8203 99.6732C55.256 99.6732 55.5556 99.64 55.5556 99.5915C55.5556 99.5431 55.8551 99.5098 56.2909 99.5098C56.7266 99.5098 57.0261 99.4766 57.0261 99.4281C57.0261 99.3827 57.244 99.3464 57.5163 99.3464C57.7886 99.3464 58.0065 99.3101 58.0065 99.2647C58.0065 99.2181 58.2516 99.183 58.5784 99.183C58.9052 99.183 59.1503 99.148 59.1503 99.1013C59.1503 99.0564 59.2606 99.0196 59.3954 99.0196C59.5302 99.0196 59.6405 98.9828 59.6405 98.9379C59.6405 98.893 59.8243 98.8562 60.049 98.8562C60.2737 98.8562 60.4575 98.8194 60.4575 98.7745C60.4575 98.7296 60.6413 98.6928 60.866 98.6928C61.0907 98.6928 61.2745 98.656 61.2745 98.6111C61.2745 98.5662 61.4216 98.5294 61.6013 98.5294C61.781 98.5294 61.9281 98.4927 61.9281 98.4477C61.9281 98.4028 62.0752 98.366 62.2549 98.366C62.4346 98.366 62.5817 98.3293 62.5817 98.2843C62.5817 98.2394 62.7288 98.2026 62.9085 98.2026C63.0882 98.2026 63.2353 98.1659 63.2353 98.1209C63.2353 98.076 63.3824 98.0392 63.5621 98.0392C63.7418 98.0392 63.8889 98.0025 63.8889 97.9575C63.8889 97.9126 63.9624 97.8758 64.0523 97.8758C64.1422 97.8758 64.2157 97.8391 64.2157 97.7941C64.2157 97.7492 64.3627 97.7124 64.5425 97.7124C64.7222 97.7124 64.8693 97.6757 64.8693 97.6307C64.8693 97.5858 64.9428 97.549 65.0327 97.549C65.1226 97.549 65.1961 97.5123 65.1961 97.4673C65.1961 97.4224 65.3431 97.3856 65.5229 97.3856C65.7026 97.3856 65.8497 97.3489 65.8497 97.3039C65.8497 97.259 65.96 97.2222 66.0948 97.2222C66.2296 97.2222 66.3399 97.1855 66.3399 97.1405C66.3399 97.0956 66.4502 97.0588 66.585 97.0588C66.7198 97.0588 66.8301 97.0221 66.8301 96.9771C66.8301 96.9322 66.9404 96.8954 67.0752 96.8954C67.21 96.8954 67.3203 96.8587 67.3203 96.8137C67.3203 96.7688 67.3938 96.732 67.4837 96.732C67.5735 96.732 67.6471 96.6953 67.6471 96.6503C67.6471 96.6054 67.7574 96.5686 67.8922 96.5686C68.027 96.5686 68.1373 96.5319 68.1373 96.4869C68.1373 96.442 68.2108 96.4052 68.3007 96.4052C68.3905 96.4052 68.4641 96.3685 68.4641 96.3235C68.4641 96.2786 68.5743 96.2418 68.7092 96.2418C68.844 96.2418 68.9543 96.2051 68.9543 96.1601C68.9543 96.1152 69.0278 96.0784 69.1176 96.0784C69.2075 96.0784 69.281 96.0417 69.281 95.9967C69.281 95.9518 69.3546 95.915 69.4444 95.915C69.5343 95.915 69.6078 95.8783 69.6078 95.8333C69.6078 95.7884 69.7181 95.7516 69.8529 95.7516C69.9877 95.7516 70.098 95.7149 70.098 95.6699C70.098 95.625 70.1716 95.5882 70.2614 95.5882C70.3513 95.5882 70.4248 95.5515 70.4248 95.5065C70.4248 95.4616 70.4984 95.4248 70.5882 95.4248C70.6781 95.4248 70.7516 95.3881 70.7516 95.3431C70.7516 95.2982 70.8252 95.2614 70.915 95.2614C71.0049 95.2614 71.0784 95.2247 71.0784 95.1797C71.0784 95.1348 71.152 95.098 71.2418 95.098C71.3317 95.098 71.4052 95.0613 71.4052 95.0163C71.4052 94.9714 71.4788 94.9346 71.5686 94.9346C71.6585 94.9346 71.732 94.8979 71.732 94.8529C71.732 94.808 71.8056 94.7712 71.8954 94.7712C71.9853 94.7712 72.0588 94.7345 72.0588 94.6895C72.0588 94.6446 72.1691 94.6078 72.3039 94.6078C72.4387 94.6078 72.549 94.5711 72.549 94.5261C72.549 94.4812 72.6226 94.4444 72.7124 94.4444C72.8023 94.4444 72.8758 94.4077 72.8758 94.3627C72.8758 94.3178 72.9493 94.281 73.0392 94.281C73.1291 94.281 73.2026 94.2443 73.2026 94.1993C73.2026 94.1544 73.2681 94.1177 73.348 94.1177C73.4279 94.1177 73.5463 94.0441 73.6111 93.9543C73.6759 93.8644 73.7943 93.7909 73.8743 93.7909C73.9542 93.7909 74.0196 93.7541 74.0196 93.7092C74.0196 93.6642 74.0851 93.6275 74.165 93.6275C74.2449 93.6275 74.3633 93.5539 74.4281 93.4641C74.4929 93.3742 74.6113 93.3007 74.6913 93.3007C74.7712 93.3007 74.8366 93.2639 74.8366 93.219C74.8366 93.174 74.902 93.1373 74.982 93.1373C75.0619 93.1373 75.1803 93.0637 75.2451 92.9739C75.3099 92.884 75.4283 92.8105 75.5082 92.8105C75.5882 92.8105 75.6536 92.7737 75.6536 92.7288C75.6536 92.6838 75.7271 92.6471 75.817 92.6471C75.9069 92.6471 75.9804 92.6103 75.9804 92.5654C75.9804 92.5204 76.0458 92.4837 76.1257 92.4837C76.2057 92.4837 76.3241 92.4101 76.3889 92.3203C76.4537 92.2304 76.564 92.1569 76.634 92.1569C76.704 92.1569 76.8143 92.0833 76.8791 91.9935C76.9439 91.9036 77.0542 91.8301 77.1242 91.8301C77.1942 91.8301 77.3045 91.7565 77.3693 91.6667C77.4341 91.5768 77.5444 91.5033 77.6144 91.5033C77.6844 91.5033 77.7947 91.4297 77.8595 91.3399C77.9243 91.25 78.0346 91.1765 78.1046 91.1765C78.1746 91.1765 78.2849 91.1029 78.3497 91.0131C78.4145 90.9232 78.5181 90.8497 78.5801 90.8497C78.6419 90.8497 78.7957 90.7394 78.9216 90.6046C79.0475 90.4698 79.2012 90.3595 79.2631 90.3595C79.325 90.3595 79.4287 90.286 79.4935 90.1961C79.5583 90.1062 79.6611 90.0327 79.7221 90.0327C79.7832 90.0327 79.9743 89.8856 80.1471 89.7059C80.3198 89.5261 80.5031 89.3791 80.5545 89.3791C80.6058 89.3791 80.8269 89.1953 81.0458 88.9706C81.2646 88.7459 81.4852 88.5621 81.536 88.5621C81.5867 88.5621 81.8073 88.3783 82.0261 88.1536C82.245 87.9289 82.4661 87.7451 82.5174 87.7451C82.5688 87.7451 82.7521 87.598 82.9248 87.4183C83.0976 87.2386 83.2802 87.0915 83.3306 87.0915C83.4495 87.0915 83.8235 86.7179 83.8235 86.5992C83.8235 86.4828 84.0298 86.2745 84.1452 86.2745C84.2592 86.2745 86.7647 83.7708 86.7647 83.6569C86.7647 83.6094 87.0221 83.3168 87.3366 83.0065C87.6511 82.6963 87.9085 82.4003 87.9085 82.3488C87.9085 82.2973 88.0188 82.152 88.1536 82.0261C88.2884 81.9002 88.3987 81.7542 88.3987 81.7015C88.3987 81.5645 88.6098 81.3726 88.7605 81.3726C88.8311 81.3726 88.8889 81.3138 88.8889 81.2419C88.8889 81.1701 88.9992 81.0083 89.134 80.8824C89.2688 80.7565 89.3791 80.6101 89.3791 80.5572C89.3791 80.5043 89.5261 80.3198 89.7059 80.1471C89.8856 79.9743 90.0327 79.7832 90.0327 79.7221C90.0327 79.6611 90.1062 79.5583 90.1961 79.4935C90.286 79.4287 90.3595 79.325 90.3595 79.2631C90.3595 79.2012 90.4698 79.0475 90.6046 78.9216C90.7394 78.7957 90.8497 78.6419 90.8497 78.5801C90.8497 78.5181 90.9232 78.4145 91.0131 78.3497C91.1029 78.2849 91.1765 78.1812 91.1765 78.1193C91.1765 78.0575 91.2868 77.9037 91.4216 77.7778C91.5564 77.6519 91.6667 77.4981 91.6667 77.4363C91.6667 77.3743 91.7402 77.2707 91.8301 77.2059C91.9199 77.1411 91.9935 77.0227 91.9935 76.9427C91.9935 76.8628 92.0302 76.7974 92.0752 76.7974C92.1201 76.7974 92.1569 76.732 92.1569 76.6521C92.1569 76.5721 92.2304 76.4537 92.3203 76.3889C92.4101 76.3241 92.4837 76.2057 92.4837 76.1257C92.4837 76.0458 92.5204 75.9804 92.5654 75.9804C92.6103 75.9804 92.6471 75.915 92.6471 75.8351C92.6471 75.7551 92.7206 75.6367 92.8105 75.5719C92.9003 75.5071 92.9739 75.3968 92.9739 75.3268C92.9739 75.2568 93.0474 75.1465 93.1373 75.0817C93.2271 75.0169 93.3007 74.8985 93.3007 74.8185C93.3007 74.7386 93.3374 74.6732 93.3824 74.6732C93.4273 74.6732 93.4641 74.6078 93.4641 74.5279C93.4641 74.4479 93.5376 74.3295 93.6275 74.2647C93.7173 74.1999 93.7909 74.0815 93.7909 74.0015C93.7909 73.9216 93.8276 73.8562 93.8726 73.8562C93.9175 73.8562 93.9543 73.7827 93.9543 73.6928C93.9543 73.6029 93.991 73.5294 94.036 73.5294C94.0809 73.5294 94.1177 73.4559 94.1177 73.366C94.1177 73.2761 94.1544 73.2026 94.1993 73.2026C94.2443 73.2026 94.281 73.1291 94.281 73.0392C94.281 72.9493 94.3178 72.8758 94.3627 72.8758C94.4077 72.8758 94.4444 72.8023 94.4444 72.7124C94.4444 72.6226 94.4812 72.549 94.5261 72.549C94.5711 72.549 94.6078 72.4755 94.6078 72.3856C94.6078 72.2958 94.6446 72.2222 94.6895 72.2222C94.7345 72.2222 94.7712 72.1487 94.7712 72.0588C94.7712 71.969 94.808 71.8954 94.8529 71.8954C94.8979 71.8954 94.9346 71.8219 94.9346 71.732C94.9346 71.6422 94.9714 71.5686 95.0163 71.5686C95.0613 71.5686 95.098 71.4951 95.098 71.4052C95.098 71.3154 95.1348 71.2418 95.1797 71.2418C95.2247 71.2418 95.2614 71.1683 95.2614 71.0784C95.2614 70.9886 95.2982 70.915 95.3431 70.915C95.3881 70.915 95.4248 70.8415 95.4248 70.7516C95.4248 70.6618 95.4616 70.5882 95.5065 70.5882C95.5515 70.5882 95.5882 70.5147 95.5882 70.4248C95.5882 70.335 95.625 70.2614 95.6699 70.2614C95.7149 70.2614 95.7516 70.1511 95.7516 70.0163C95.7516 69.8815 95.7884 69.7712 95.8333 69.7712C95.8783 69.7712 95.915 69.6977 95.915 69.6078C95.915 69.518 95.9518 69.4444 95.9967 69.4444C96.0417 69.4444 96.0784 69.3709 96.0784 69.281C96.0784 69.1912 96.1152 69.1176 96.1601 69.1176C96.2051 69.1176 96.2418 69.0074 96.2418 68.8726C96.2418 68.7377 96.2786 68.6275 96.3235 68.6275C96.3685 68.6275 96.4052 68.5539 96.4052 68.4641C96.4052 68.3742 96.442 68.3007 96.4869 68.3007C96.5319 68.3007 96.5686 68.1904 96.5686 68.0556C96.5686 67.9208 96.6054 67.8105 96.6503 67.8105C96.6953 67.8105 96.732 67.7369 96.732 67.6471C96.732 67.5572 96.7688 67.4837 96.8137 67.4837C96.8587 67.4837 96.8954 67.3734 96.8954 67.2386C96.8954 67.1038 96.9322 66.9935 96.9771 66.9935C97.0221 66.9935 97.0588 66.8832 97.0588 66.7484C97.0588 66.6136 97.0956 66.5033 97.1405 66.5033C97.1855 66.5033 97.2222 66.393 97.2222 66.2582C97.2222 66.1234 97.259 66.0131 97.3039 66.0131C97.3489 66.0131 97.3856 65.9028 97.3856 65.768C97.3856 65.6332 97.4224 65.5229 97.4673 65.5229C97.5123 65.5229 97.549 65.4126 97.549 65.2778C97.549 65.143 97.5858 65.0327 97.6307 65.0327C97.6757 65.0327 97.7124 64.9224 97.7124 64.7876C97.7124 64.6528 97.7492 64.5425 97.7941 64.5425C97.8391 64.5425 97.8758 64.4322 97.8758 64.2974C97.8758 64.1626 97.9126 64.0523 97.9575 64.0523C98.0025 64.0523 98.0392 63.9052 98.0392 63.7255C98.0392 63.5458 98.076 63.3987 98.1209 63.3987C98.1659 63.3987 98.2026 63.2884 98.2026 63.1536C98.2026 63.0188 98.2394 62.9085 98.2843 62.9085C98.3293 62.9085 98.366 62.7614 98.366 62.5817C98.366 62.402 98.4028 62.2549 98.4477 62.2549C98.4927 62.2549 98.5294 62.1078 98.5294 61.9281C98.5294 61.7484 98.5662 61.6013 98.6111 61.6013C98.656 61.6013 98.6928 61.4543 98.6928 61.2745C98.6928 61.0948 98.7296 60.9477 98.7745 60.9477C98.8194 60.9477 98.8562 60.7639 98.8562 60.5392C98.8562 60.3145 98.893 60.1307 98.9379 60.1307C98.9828 60.1307 99.0196 59.9469 99.0196 59.7222C99.0196 59.4976 99.0564 59.3137 99.1013 59.3137C99.1462 59.3137 99.183 59.1299 99.183 58.9052C99.183 58.6806 99.2198 58.4967 99.2647 58.4967C99.3123 58.4967 99.3464 58.2244 99.3464 57.8431C99.3464 57.4618 99.3805 57.1895 99.4281 57.1895C99.473 57.1895 99.5098 57.0425 99.5098 56.8627C99.5098 56.683 99.5466 56.5359 99.5915 56.5359C99.6391 56.5359 99.6732 56.2636 99.6732 55.8824C99.6732 55.5011 99.7073 55.2288 99.7549 55.2288C99.8052 55.2288 99.8366 54.8203 99.8366 54.1667C99.8366 53.5131 99.8681 53.1046 99.9183 53.1046C99.9714 53.1046 100 51.9336 100 49.7549C100 47.5762 99.9714 46.4052 99.9183 46.4052C99.8684 46.4052 99.8366 46.0239 99.8366 45.4248C99.8366 44.8257 99.8048 44.4444 99.7549 44.4444C99.7065 44.4444 99.6732 44.1449 99.6732 43.7092C99.6732 43.2734 99.64 42.9739 99.5915 42.9739C99.5466 42.9739 99.5098 42.79 99.5098 42.5654C99.5098 42.3407 99.473 42.1569 99.4281 42.1569C99.3827 42.1569 99.3464 41.939 99.3464 41.6667C99.3464 41.3944 99.3101 41.1765 99.2647 41.1765C99.2198 41.1765 99.183 40.9926 99.183 40.768C99.183 40.5433 99.1462 40.3595 99.1013 40.3595C99.0559 40.3595 99.0196 40.1416 99.0196 39.8693C99.0196 39.597 98.9833 39.3791 98.9379 39.3791C98.893 39.3791 98.8562 39.232 98.8562 39.0523C98.8562 38.8726 98.8194 38.7255 98.7745 38.7255C98.7296 38.7255 98.6928 38.5784 98.6928 38.3987C98.6928 38.219 98.656 38.0719 98.6111 38.0719C98.5662 38.0719 98.5294 37.9248 98.5294 37.7451C98.5294 37.5654 98.4927 37.4183 98.4477 37.4183C98.4028 37.4183 98.366 37.2345 98.366 37.0098C98.366 36.7851 98.3293 36.6013 98.2843 36.6013C98.2394 36.6013 98.2026 36.491 98.2026 36.3562C98.2026 36.2214 98.1659 36.1111 98.1209 36.1111C98.076 36.1111 98.0392 36.0008 98.0392 35.866C98.0392 35.7312 98.0025 35.6209 97.9575 35.6209C97.9126 35.6209 97.8758 35.5106 97.8758 35.3758C97.8758 35.241 97.8391 35.1307 97.7941 35.1307C97.7492 35.1307 97.7124 35.0204 97.7124 34.8856C97.7124 34.7508 97.6757 34.6405 97.6307 34.6405C97.5858 34.6405 97.549 34.4935 97.549 34.3137C97.549 34.134 97.5123 33.9869 97.4673 33.9869C97.4224 33.9869 97.3856 33.8766 97.3856 33.7418C97.3856 33.607 97.3489 33.4967 97.3039 33.4967C97.259 33.4967 97.2222 33.3864 97.2222 33.2516C97.2222 33.1168 97.1855 33.0065 97.1405 33.0065C97.0956 33.0065 97.0588 32.9043 97.0588 32.7795C97.0588 32.6462 96.9913 32.5038 96.8954 32.4346C96.7995 32.3654 96.732 32.2231 96.732 32.0898C96.732 31.9649 96.6953 31.8627 96.6503 31.8627C96.6054 31.8627 96.5686 31.7525 96.5686 31.6176C96.5686 31.4828 96.5319 31.3726 96.4869 31.3726C96.442 31.3726 96.4052 31.2623 96.4052 31.1275C96.4052 30.9926 96.3685 30.8824 96.3235 30.8824C96.2786 30.8824 96.2418 30.8088 96.2418 30.719C96.2418 30.6291 96.2051 30.5556 96.1601 30.5556C96.1152 30.5556 96.0784 30.4453 96.0784 30.3105C96.0784 30.1757 96.0417 30.0654 95.9967 30.0654C95.9518 30.0654 95.915 29.9918 95.915 29.902C95.915 29.8121 95.8783 29.7386 95.8333 29.7386C95.7884 29.7386 95.7516 29.665 95.7516 29.5752C95.7516 29.4853 95.7149 29.4118 95.6699 29.4118C95.625 29.4118 95.5882 29.3382 95.5882 29.2484C95.5882 29.1585 95.5515 29.085 95.5065 29.085C95.4616 29.085 95.4248 29.0114 95.4248 28.9216C95.4248 28.8317 95.3881 28.7582 95.3431 28.7582C95.2982 28.7582 95.2614 28.656 95.2614 28.5311C95.2614 28.3978 95.194 28.2555 95.098 28.1863C95.0082 28.1215 94.9346 28.0031 94.9346 27.9231C94.9346 27.8432 94.8979 27.7778 94.8529 27.7778C94.808 27.7778 94.7712 27.6756 94.7712 27.5508C94.7712 27.4174 94.7038 27.2751 94.6078 27.2059C94.518 27.1411 94.4444 27.0227 94.4444 26.9427C94.4444 26.8628 94.4077 26.7974 94.3627 26.7974C94.3178 26.7974 94.281 26.7239 94.281 26.634C94.281 26.5441 94.2443 26.4706 94.1993 26.4706C94.1544 26.4706 94.1177 26.3971 94.1177 26.3072C94.1177 26.2173 94.0809 26.1438 94.036 26.1438C93.991 26.1438 93.9543 26.0703 93.9543 25.9804C93.9543 25.8905 93.9175 25.817 93.8726 25.817C93.8276 25.817 93.7909 25.7516 93.7909 25.6717C93.7909 25.5917 93.7173 25.4733 93.6275 25.4085C93.5376 25.3437 93.4641 25.2253 93.4641 25.1453C93.4641 25.0654 93.4273 25 93.3824 25C93.3374 25 93.3007 24.9265 93.3007 24.8366C93.3007 24.7467 93.2639 24.6732 93.219 24.6732C93.174 24.6732 93.1373 24.6078 93.1373 24.5279C93.1373 24.4479 93.0637 24.3295 92.9739 24.2647C92.884 24.1999 92.8105 24.0815 92.8105 24.0015C92.8105 23.9216 92.7737 23.8562 92.7288 23.8562C92.6838 23.8562 92.6471 23.7908 92.6471 23.7109C92.6471 23.6309 92.5735 23.5125 92.4837 23.4477C92.3938 23.3829 92.3203 23.2726 92.3203 23.2026C92.3203 23.1326 92.2467 23.0223 92.1569 22.9575C92.067 22.8927 91.9935 22.7891 91.9935 22.7271C91.9935 22.6653 91.8832 22.5115 91.7484 22.3856C91.6136 22.2597 91.5033 22.106 91.5033 22.0441C91.5033 21.9822 91.4297 21.8785 91.3399 21.8137C91.25 21.7489 91.1765 21.6386 91.1765 21.5686C91.1765 21.4986 91.1029 21.3883 91.0131 21.3235C90.9232 21.2587 90.8497 21.1403 90.8497 21.0604C90.8497 20.9805 90.8129 20.915 90.768 20.915C90.723 20.915 90.6863 20.8563 90.6863 20.7844C90.6863 20.7126 90.576 20.5507 90.4412 20.4248C90.3064 20.2989 90.1961 20.1526 90.1961 20.0997C90.1961 20.0468 90.049 19.8623 89.8693 19.6895C89.6895 19.5168 89.5425 19.333 89.5425 19.281C89.5425 19.2291 89.3954 19.0453 89.2157 18.8725C89.036 18.6998 88.8889 18.516 88.8889 18.4641C88.8889 18.4121 88.7418 18.2283 88.5621 18.0556C88.3824 17.8828 88.2353 17.7001 88.2353 17.6495C88.2353 17.5988 87.9779 17.3037 87.6634 16.9935C87.3489 16.6833 87.0915 16.3907 87.0915 16.3433C87.0915 16.2075 83.9205 13.0719 83.7832 13.0719C83.7146 13.0719 83.6601 12.9996 83.6601 12.9085C83.6601 12.8141 83.6056 12.7451 83.5312 12.7451C83.4602 12.7451 83.261 12.598 83.0882 12.4183C82.9155 12.2386 82.7328 12.0915 82.6822 12.0915C82.6315 12.0915 82.3364 11.8342 82.0261 11.5196C81.7159 11.2051 81.4208 10.9477 81.3701 10.9477C81.3194 10.9477 81.1368 10.8007 80.9641 10.6209C80.7913 10.4412 80.6068 10.2941 80.5539 10.2941C80.501 10.2941 80.3547 10.1838 80.2288 10.049C80.1029 9.91422 79.9491 9.80392 79.8873 9.80392C79.8253 9.80392 79.7217 9.73039 79.6569 9.64052C79.5921 9.55065 79.4818 9.47712 79.4118 9.47712C79.3418 9.47712 79.2315 9.4036 79.1667 9.31373C79.1019 9.22386 78.9916 9.15033 78.9216 9.15033C78.8516 9.15033 78.7413 9.0768 78.6765 8.98693C78.6117 8.89706 78.5014 8.82353 78.4314 8.82353C78.3614 8.82353 78.2511 8.75 78.1863 8.66013C78.1215 8.57026 78.0178 8.49673 77.9559 8.49673C77.894 8.49673 77.7403 8.38644 77.6144 8.25163C77.4885 8.11683 77.3266 8.00654 77.2548 8.00654C77.1829 8.00654 77.1242 7.96977 77.1242 7.92484C77.1242 7.8799 77.0654 7.84314 76.9935 7.84314C76.9217 7.84314 76.7599 7.73284 76.634 7.59804C76.5081 7.46324 76.3462 7.35294 76.2744 7.35294C76.2025 7.35294 76.1438 7.31618 76.1438 7.27124C76.1438 7.22631 76.0703 7.18954 75.9804 7.18954C75.8905 7.18954 75.817 7.15278 75.817 7.10784C75.817 7.06291 75.7516 7.02614 75.6716 7.02614C75.5917 7.02614 75.4733 6.95261 75.4085 6.86275C75.3437 6.77288 75.2253 6.69935 75.1453 6.69935C75.0654 6.69935 75 6.66258 75 6.61765C75 6.57271 74.9265 6.53595 74.8366 6.53595C74.7467 6.53595 74.6732 6.49918 74.6732 6.45425C74.6732 6.40931 74.5997 6.37255 74.5098 6.37255C74.4199 6.37255 74.3464 6.33578 74.3464 6.29085C74.3464 6.24592 74.281 6.20915 74.2011 6.20915C74.1211 6.20915 74.0027 6.13562 73.9379 6.04575C73.8731 5.95588 73.7547 5.88235 73.6748 5.88235C73.5949 5.88235 73.5294 5.84559 73.5294 5.80065C73.5294 5.75572 73.4559 5.71895 73.366 5.71895C73.2761 5.71895 73.2026 5.68219 73.2026 5.63726C73.2026 5.59232 73.1291 5.55556 73.0392 5.55556C72.9493 5.55556 72.8758 5.51879 72.8758 5.47386C72.8758 5.42892 72.8023 5.39216 72.7124 5.39216C72.6226 5.39216 72.549 5.35539 72.549 5.31046C72.549 5.26552 72.4755 5.22876 72.3856 5.22876C72.2958 5.22876 72.2222 5.19199 72.2222 5.14706C72.2222 5.10212 72.1487 5.06536 72.0588 5.06536C71.969 5.06536 71.8954 5.02859 71.8954 4.98366C71.8954 4.93873 71.8219 4.90196 71.732 4.90196C71.6422 4.90196 71.5686 4.8652 71.5686 4.82026C71.5686 4.77533 71.4951 4.73856 71.4052 4.73856C71.3154 4.73856 71.2418 4.7018 71.2418 4.65686C71.2418 4.61193 71.1683 4.57516 71.0784 4.57516C70.9886 4.57516 70.915 4.5384 70.915 4.49346C70.915 4.44853 70.8415 4.41176 70.7516 4.41176C70.6618 4.41176 70.5882 4.375 70.5882 4.33007C70.5882 4.28513 70.4779 4.24837 70.3431 4.24837C70.2083 4.24837 70.098 4.2116 70.098 4.16667C70.098 4.12173 70.0245 4.08497 69.9346 4.08497C69.8448 4.08497 69.7712 4.0482 69.7712 4.00327C69.7712 3.95833 69.6977 3.92157 69.6078 3.92157C69.518 3.92157 69.4444 3.8848 69.4444 3.83987C69.4444 3.79493 69.3342 3.75817 69.1993 3.75817C69.0645 3.75817 68.9543 3.72141 68.9543 3.67647C68.9543 3.63154 68.8807 3.59477 68.7909 3.59477C68.701 3.59477 68.6275 3.55801 68.6275 3.51307C68.6275 3.46814 68.5172 3.43137 68.3824 3.43137C68.2476 3.43137 68.1373 3.39461 68.1373 3.34967C68.1373 3.30474 68.0637 3.26797 67.9739 3.26797C67.884 3.26797 67.8105 3.23121 67.8105 3.18627C67.8105 3.14134 67.7002 3.10458 67.5654 3.10458C67.4306 3.10458 67.3203 3.06781 67.3203 3.02288C67.3203 2.97794 67.21 2.94118 67.0752 2.94118C66.9404 2.94118 66.8301 2.90441 66.8301 2.85948C66.8301 2.81454 66.7198 2.77778 66.585 2.77778C66.4502 2.77778 66.3399 2.74101 66.3399 2.69608C66.3399 2.65114 66.2296 2.61438 66.0948 2.61438C65.96 2.61438 65.8497 2.57761 65.8497 2.53268C65.8497 2.48775 65.7394 2.45098 65.6046 2.45098C65.4698 2.45098 65.3595 2.41422 65.3595 2.36928C65.3595 2.32435 65.2859 2.28758 65.1961 2.28758C65.1062 2.28758 65.0327 2.25082 65.0327 2.20588C65.0327 2.16095 64.8856 2.12418 64.7059 2.12418C64.5261 2.12418 64.3791 2.08742 64.3791 2.04248C64.3791 1.99755 64.232 1.96078 64.0523 1.96078C63.8726 1.96078 63.7255 1.92402 63.7255 1.87909C63.7255 1.83415 63.6152 1.79739 63.4804 1.79739C63.3456 1.79739 63.2353 1.76062 63.2353 1.71569C63.2353 1.67075 63.0515 1.63399 62.8268 1.63399C62.6021 1.63399 62.4183 1.59722 62.4183 1.55229C62.4183 1.50735 62.2712 1.47059 62.0915 1.47059C61.9118 1.47059 61.7647 1.43382 61.7647 1.38889C61.7647 1.34395 61.6544 1.30719 61.5196 1.30719C61.3848 1.30719 61.2745 1.27042 61.2745 1.22549C61.2745 1.18056 61.0907 1.14379 60.866 1.14379C60.6413 1.14379 60.4575 1.10703 60.4575 1.06209C60.4575 1.01716 60.2737 0.980392 60.049 0.980392C59.8243 0.980392 59.6405 0.943627 59.6405 0.898693C59.6405 0.853268 59.4226 0.816993 59.1503 0.816993C58.878 0.816993 58.6601 0.780719 58.6601 0.735294C58.6601 0.690359 58.4763 0.653595 58.2516 0.653595C58.027 0.653595 57.8431 0.61683 57.8431 0.571895C57.8431 0.525245 57.598 0.490196 57.2712 0.490196C56.9444 0.490196 56.6993 0.455147 56.6993 0.408497C56.6993 0.358987 56.3453 0.326797 55.8007 0.326797C55.256 0.326797 54.902 0.294608 54.902 0.245098C54.902 0.19518 54.5207 0.163399 53.9216 0.163399C53.3225 0.163399 52.9412 0.131618 52.9412 0.0816993C52.9412 0.0287582 51.9336 0 50.0817 0C48.2298 0 47.2222 0.0287582 47.2222 0.0816993ZM58.6601 26.5523C58.6601 26.6054 59.8039 26.634 61.9281 26.634C64.0523 26.634 65.1961 26.6626 65.1961 26.7157C65.1961 26.7682 66.0131 26.7974 67.4837 26.7974C68.9543 26.7974 69.7712 26.8266 69.7712 26.8791C69.7712 26.9286 70.1252 26.9608 70.6699 26.9608C71.2146 26.9608 71.5686 26.993 71.5686 27.0425C71.5686 27.0874 71.6789 27.1242 71.8137 27.1242C71.9485 27.1242 72.0588 27.0874 72.0588 27.0425C72.0588 26.9975 72.1324 26.9608 72.2222 26.9608C72.3121 26.9608 72.3856 26.9975 72.3856 27.0425C72.3856 27.092 72.7396 27.1242 73.2843 27.1242C73.829 27.1242 74.183 27.1564 74.183 27.2059C74.183 27.2513 74.4009 27.2876 74.6732 27.2876C74.9455 27.2876 75.1634 27.3239 75.1634 27.3693C75.1634 27.4142 75.3472 27.451 75.5719 27.451C75.7966 27.451 75.9804 27.4877 75.9804 27.5327C75.9804 27.5776 76.0907 27.6144 76.2255 27.6144C76.3603 27.6144 76.4706 27.6511 76.4706 27.6961C76.4706 27.741 76.5809 27.7778 76.7157 27.7778C76.8505 27.7778 76.9608 27.8145 76.9608 27.8595C76.9608 27.9044 77.0343 27.9412 77.1242 27.9412C77.2141 27.9412 77.2876 27.9779 77.2876 28.0229C77.2876 28.0678 77.3611 28.1046 77.451 28.1046C77.5409 28.1046 77.6144 28.1413 77.6144 28.1863C77.6144 28.2312 77.6879 28.268 77.7778 28.268C77.8676 28.268 77.9412 28.3047 77.9412 28.3497C77.9412 28.3946 78.0066 28.4314 78.0865 28.4314C78.1665 28.4314 78.2849 28.5049 78.3497 28.5948C78.4145 28.6846 78.5181 28.7582 78.5801 28.7582C78.6419 28.7582 78.7957 28.8685 78.9216 29.0033C79.0475 29.1381 79.1915 29.2484 79.2416 29.2484C79.3693 29.2484 80.5556 30.448 80.5556 30.5771C80.5556 30.6353 80.6291 30.7359 80.719 30.8007C80.8088 30.8654 80.8824 30.9838 80.8824 31.0638C80.8824 31.1437 80.9191 31.2092 80.9641 31.2092C81.009 31.2092 81.0458 31.2827 81.0458 31.3726C81.0458 31.4624 81.0825 31.5359 81.1275 31.5359C81.1724 31.5359 81.2092 31.6095 81.2092 31.6993C81.2092 31.7892 81.2459 31.8627 81.2909 31.8627C81.3358 31.8627 81.3726 31.973 81.3726 32.1078C81.3726 32.2426 81.4093 32.3529 81.4543 32.3529C81.4992 32.3529 81.536 32.4265 81.536 32.5163C81.536 32.6062 81.5727 32.6797 81.6176 32.6797C81.6626 32.6797 81.6993 32.79 81.6993 32.9248C81.6993 33.0596 81.7361 33.1699 81.781 33.1699C81.826 33.1699 81.8627 33.2802 81.8627 33.415C81.8627 33.5498 81.8995 33.6601 81.9444 33.6601C81.9894 33.6601 82.0261 33.8072 82.0261 33.9869C82.0261 34.1667 82.0629 34.3137 82.1078 34.3137C82.1528 34.3137 82.1895 34.424 82.1895 34.5588C82.1895 34.6936 82.2263 34.8039 82.2712 34.8039C82.3162 34.8039 82.3529 34.951 82.3529 35.1307C82.3529 35.3105 82.3897 35.4575 82.4346 35.4575C82.4796 35.4575 82.5163 35.6413 82.5163 35.866C82.5163 36.0907 82.5531 36.2745 82.598 36.2745C82.6471 36.2745 82.6797 36.6013 82.6797 37.0915C82.6797 37.5817 82.7124 37.9085 82.7614 37.9085C82.8105 37.9085 82.8431 38.2353 82.8431 38.7255C82.8431 39.2157 82.8758 39.5425 82.9248 39.5425C82.9757 39.5425 83.0065 40.0055 83.0065 40.768C83.0065 41.5305 83.0374 41.9935 83.0882 41.9935C83.1397 41.9935 83.1699 42.5382 83.1699 43.4641C83.1699 44.39 83.2002 44.9346 83.2516 44.9346C83.3051 44.9346 83.3333 46.5686 83.3333 49.6732C83.3333 52.7778 83.3051 54.4118 83.2516 54.4118C83.2 54.4118 83.1699 54.9837 83.1699 55.9641C83.1699 56.9444 83.1399 57.5163 83.0882 57.5163C83.0377 57.5163 83.0065 57.952 83.0065 58.6601C83.0065 59.3682 82.9754 59.8039 82.9248 59.8039C82.8753 59.8039 82.8431 60.1579 82.8431 60.7026C82.8431 61.2473 82.811 61.6013 82.7614 61.6013C82.713 61.6013 82.6797 61.9009 82.6797 62.3366C82.6797 62.7723 82.6465 63.0719 82.598 63.0719C82.5526 63.0719 82.5163 63.2898 82.5163 63.5621C82.5163 63.8344 82.4801 64.0523 82.4346 64.0523C82.3897 64.0523 82.3529 64.1993 82.3529 64.3791C82.3529 64.5588 82.3162 64.7059 82.2712 64.7059C82.2263 64.7059 82.1895 64.8529 82.1895 65.0327C82.1895 65.2124 82.1528 65.3595 82.1078 65.3595C82.0629 65.3595 82.0261 65.5065 82.0261 65.6863C82.0261 65.866 81.9894 66.0131 81.9444 66.0131C81.8995 66.0131 81.8627 66.1234 81.8627 66.2582C81.8627 66.393 81.826 66.5033 81.781 66.5033C81.7361 66.5033 81.6993 66.6136 81.6993 66.7484C81.6993 66.8832 81.6626 66.9935 81.6176 66.9935C81.5727 66.9935 81.536 67.067 81.536 67.1569C81.536 67.2467 81.4992 67.3203 81.4543 67.3203C81.4093 67.3203 81.3726 67.4306 81.3726 67.5654C81.3726 67.7002 81.3358 67.8105 81.2909 67.8105C81.2459 67.8105 81.2092 67.884 81.2092 67.9739C81.2092 68.0637 81.1724 68.1373 81.1275 68.1373C81.0825 68.1373 81.0458 68.2027 81.0458 68.2826C81.0458 68.3626 80.9722 68.481 80.8824 68.5458C80.7925 68.6105 80.719 68.7208 80.719 68.7909C80.719 68.8609 80.6454 68.9712 80.5556 69.0359C80.4657 69.1007 80.3922 69.2013 80.3922 69.2594C80.3922 69.3972 79.0377 70.7516 78.8999 70.7516C78.8418 70.7516 78.7413 70.8252 78.6765 70.915C78.6117 71.0049 78.5014 71.0784 78.4314 71.0784C78.3614 71.0784 78.2511 71.152 78.1863 71.2418C78.1215 71.3317 78.0031 71.4052 77.9231 71.4052C77.8432 71.4052 77.7778 71.442 77.7778 71.4869C77.7778 71.5319 77.7043 71.5686 77.6144 71.5686C77.5245 71.5686 77.451 71.6054 77.451 71.6503C77.451 71.6953 77.3775 71.732 77.2876 71.732C77.1977 71.732 77.1242 71.7688 77.1242 71.8137C77.1242 71.8587 77.0139 71.8954 76.8791 71.8954C76.7443 71.8954 76.634 71.9322 76.634 71.9771C76.634 72.0221 76.5237 72.0588 76.3889 72.0588C76.2541 72.0588 76.1438 72.0956 76.1438 72.1405C76.1438 72.1855 76.0335 72.2222 75.8987 72.2222C75.7639 72.2222 75.6536 72.259 75.6536 72.3039C75.6536 72.3493 75.4357 72.3856 75.1634 72.3856C74.8911 72.3856 74.6732 72.4219 74.6732 72.4673C74.6732 72.5158 74.3736 72.549 73.9379 72.549C73.5022 72.549 73.2026 72.5823 73.2026 72.6307C73.2026 72.6819 72.6852 72.7124 71.8137 72.7124C70.9422 72.7124 70.4248 72.7429 70.4248 72.7941C70.4248 72.8453 69.9074 72.8758 69.0359 72.8758C68.1645 72.8758 67.6471 72.9063 67.6471 72.9575C67.6471 73.0025 67.5368 73.0392 67.402 73.0392C67.2672 73.0392 67.1569 73.0025 67.1569 72.9575C67.1569 72.9126 67.0466 72.8758 66.9118 72.8758C66.777 72.8758 66.6667 72.9126 66.6667 72.9575C66.6667 73.0094 66.0403 73.0392 64.951 73.0392C63.8617 73.0392 63.2353 73.069 63.2353 73.1209C63.2353 73.174 62.0643 73.2026 59.8856 73.2026C57.7069 73.2026 56.5359 73.2312 56.5359 73.2843C56.5359 73.3293 56.4624 73.366 56.3726 73.366C56.2827 73.366 56.2092 73.3293 56.2092 73.2843C56.2092 73.2394 56.0989 73.2026 55.9641 73.2026C55.8293 73.2026 55.719 73.2394 55.719 73.2843C55.719 73.3379 54.0033 73.366 50.7353 73.366C47.4673 73.366 45.7516 73.3379 45.7516 73.2843C45.7516 73.2394 45.6413 73.2026 45.5065 73.2026C45.3717 73.2026 45.2614 73.2394 45.2614 73.2843C45.2614 73.3293 45.1511 73.366 45.0163 73.366C44.8815 73.366 44.7712 73.3293 44.7712 73.2843C44.7712 73.2309 43.2462 73.2026 40.3595 73.2026C37.4728 73.2026 35.9477 73.1743 35.9477 73.1209C35.9477 73.0681 35.0218 73.0392 33.3333 73.0392C31.6449 73.0392 30.719 73.0103 30.719 72.9575C30.719 72.9063 30.2016 72.8758 29.3301 72.8758C28.4586 72.8758 27.9412 72.8453 27.9412 72.7941C27.9412 72.7465 27.6689 72.7124 27.2876 72.7124C26.9063 72.7124 26.634 72.6784 26.634 72.6307C26.634 72.5841 26.3889 72.549 26.0621 72.549C25.7353 72.549 25.4902 72.514 25.4902 72.4673C25.4902 72.4219 25.2723 72.3856 25 72.3856C24.7277 72.3856 24.5098 72.3493 24.5098 72.3039C24.5098 72.259 24.3627 72.2222 24.183 72.2222C24.0033 72.2222 23.8562 72.1855 23.8562 72.1405C23.8562 72.0956 23.7459 72.0588 23.6111 72.0588C23.4763 72.0588 23.366 72.0221 23.366 71.9771C23.366 71.9322 23.2925 71.8954 23.2026 71.8954C23.1127 71.8954 23.0392 71.8587 23.0392 71.8137C23.0392 71.7688 22.9289 71.732 22.7941 71.732C22.6593 71.732 22.549 71.6953 22.549 71.6503C22.549 71.6054 22.4755 71.5686 22.3856 71.5686C22.2958 71.5686 22.2222 71.5319 22.2222 71.4869C22.2222 71.442 22.1487 71.4052 22.0588 71.4052C21.969 71.4052 21.8954 71.3685 21.8954 71.3235C21.8954 71.2786 21.83 71.2418 21.7501 71.2418C21.6701 71.2418 21.5517 71.1683 21.4869 71.0784C21.4221 70.9886 21.3217 70.915 21.2637 70.915C21.1261 70.915 19.4444 69.2334 19.4444 69.0957C19.4444 69.0377 19.3709 68.9373 19.281 68.8726C19.1912 68.8078 19.1176 68.6894 19.1176 68.6094C19.1176 68.5295 19.0809 68.4641 19.0359 68.4641C18.991 68.4641 18.9542 68.3619 18.9542 68.237C18.9542 68.1037 18.8868 67.9614 18.7909 67.8922C18.701 67.8274 18.6275 67.709 18.6275 67.629C18.6275 67.5491 18.5907 67.4837 18.5458 67.4837C18.5008 67.4837 18.4641 67.3734 18.4641 67.2386C18.4641 67.1038 18.4273 66.9935 18.3824 66.9935C18.3374 66.9935 18.3007 66.8464 18.3007 66.6667C18.3007 66.4869 18.2639 66.3399 18.219 66.3399C18.174 66.3399 18.1373 66.2296 18.1373 66.0948C18.1373 65.96 18.1005 65.8497 18.0556 65.8497C18.0106 65.8497 17.9739 65.7394 17.9739 65.6046C17.9739 65.4698 17.9371 65.3595 17.8922 65.3595C17.8472 65.3595 17.8105 65.2124 17.8105 65.0327C17.8105 64.8529 17.7737 64.7059 17.7288 64.7059C17.6838 64.7059 17.6471 64.5221 17.6471 64.2974C17.6471 64.0727 17.6103 63.8889 17.5654 63.8889C17.5199 63.8889 17.4837 63.671 17.4837 63.3987C17.4837 63.1264 17.4474 62.9085 17.402 62.9085C17.3525 62.9085 17.3203 62.5545 17.3203 62.0098C17.3203 61.4651 17.2881 61.1111 17.2386 61.1111C17.1883 61.1111 17.1569 60.7026 17.1569 60.049C17.1569 59.3954 17.1254 58.9869 17.0752 58.9869C17.0239 58.9869 16.9935 58.4695 16.9935 57.598C16.9935 56.7266 16.963 56.2092 16.9118 56.2092C16.858 56.2092 16.8301 54.1395 16.8301 50.1634C16.8301 46.1873 16.858 44.1176 16.9118 44.1176C16.9634 44.1176 16.9935 43.5458 16.9935 42.5654C16.9935 41.585 17.0235 41.0131 17.0752 41.0131C17.1251 41.0131 17.1569 40.6318 17.1569 40.0327C17.1569 39.4336 17.1886 39.0523 17.2386 39.0523C17.2852 39.0523 17.3203 38.8072 17.3203 38.4804C17.3203 38.1536 17.3553 37.9085 17.402 37.9085C17.4504 37.9085 17.4837 37.6089 17.4837 37.1732C17.4837 36.7375 17.5169 36.4379 17.5654 36.4379C17.6103 36.4379 17.6471 36.2541 17.6471 36.0294C17.6471 35.8047 17.6838 35.6209 17.7288 35.6209C17.7737 35.6209 17.8105 35.4371 17.8105 35.2124C17.8105 34.9877 17.8472 34.8039 17.8922 34.8039C17.9371 34.8039 17.9739 34.6936 17.9739 34.5588C17.9739 34.424 18.0106 34.3137 18.0556 34.3137C18.1005 34.3137 18.1373 34.1667 18.1373 33.9869C18.1373 33.8072 18.174 33.6601 18.219 33.6601C18.2639 33.6601 18.3007 33.5498 18.3007 33.415C18.3007 33.2802 18.3374 33.1699 18.3824 33.1699C18.4273 33.1699 18.4641 33.0596 18.4641 32.9248C18.4641 32.79 18.5008 32.6797 18.5458 32.6797C18.5907 32.6797 18.6275 32.6062 18.6275 32.5163C18.6275 32.4265 18.6642 32.3529 18.7092 32.3529C18.7541 32.3529 18.7909 32.2794 18.7909 32.1895C18.7909 32.0997 18.8276 32.0261 18.8725 32.0261C18.9175 32.0261 18.9542 31.9526 18.9542 31.8627C18.9542 31.7729 18.991 31.6993 19.0359 31.6993C19.0809 31.6993 19.1176 31.6258 19.1176 31.5359C19.1176 31.4461 19.1544 31.3726 19.1993 31.3726C19.2443 31.3726 19.281 31.3138 19.281 31.2419C19.281 31.1701 19.3913 31.0083 19.5261 30.8824C19.6609 30.7565 19.7712 30.6124 19.7712 30.5623C19.7712 30.4435 20.9663 29.2484 21.0852 29.2484C21.1353 29.2484 21.2793 29.1381 21.4052 29.0033C21.5311 28.8685 21.693 28.7582 21.7648 28.7582C21.8367 28.7582 21.8954 28.7214 21.8954 28.6765C21.8954 28.6315 21.9609 28.5948 22.0408 28.5948C22.1208 28.5948 22.2391 28.5212 22.3039 28.4314C22.3687 28.3415 22.4871 28.268 22.5671 28.268C22.647 28.268 22.7124 28.2312 22.7124 28.1863C22.7124 28.1413 22.8227 28.1046 22.9575 28.1046C23.0923 28.1046 23.2026 28.0678 23.2026 28.0229C23.2026 27.9779 23.2761 27.9412 23.366 27.9412C23.4559 27.9412 23.5294 27.9044 23.5294 27.8595C23.5294 27.8145 23.6397 27.7778 23.7745 27.7778C23.9093 27.7778 24.0196 27.741 24.0196 27.6961C24.0196 27.6511 24.1667 27.6144 24.3464 27.6144C24.5261 27.6144 24.6732 27.5776 24.6732 27.5327C24.6732 27.4877 24.857 27.451 25.0817 27.451C25.3064 27.451 25.4902 27.4142 25.4902 27.3693C25.4902 27.3203 25.817 27.2876 26.3072 27.2876C26.7974 27.2876 27.1242 27.2549 27.1242 27.2059C27.1242 27.1544 27.6689 27.1242 28.5948 27.1242C29.5207 27.1242 30.0654 27.094 30.0654 27.0425C30.0654 26.9906 30.6917 26.9608 31.781 26.9608C32.8703 26.9608 33.4967 26.931 33.4967 26.8791C33.4967 26.8279 34.0141 26.7974 34.8856 26.7974C35.7571 26.7974 36.2745 26.7669 36.2745 26.7157C36.2745 26.6708 36.4583 26.634 36.683 26.634C36.9077 26.634 37.0915 26.6708 37.0915 26.7157C37.0915 26.7606 37.2386 26.7974 37.4183 26.7974C37.598 26.7974 37.7451 26.7606 37.7451 26.7157C37.7451 26.6629 38.671 26.634 40.3595 26.634C42.048 26.634 42.9739 26.6051 42.9739 26.5523C42.9739 26.4984 45.6427 26.4706 50.817 26.4706C55.9913 26.4706 58.6601 26.4984 58.6601 26.5523ZM43.2394 40.6451C43.159 40.7364 43.1373 42.7 43.1373 49.874V58.9869H43.3824C43.5172 58.9869 43.6275 58.9502 43.6275 58.9052C43.6275 58.8603 43.6929 58.8235 43.7728 58.8235C43.8528 58.8235 43.9712 58.75 44.0359 58.6601C44.1007 58.5703 44.2191 58.4967 44.2991 58.4967C44.379 58.4967 44.4444 58.46 44.4444 58.415C44.4444 58.3701 44.518 58.3333 44.6078 58.3333C44.6977 58.3333 44.7712 58.2966 44.7712 58.2516C44.7712 58.2067 44.8367 58.1699 44.9166 58.1699C44.9966 58.1699 45.115 58.0964 45.1797 58.0065C45.2445 57.9167 45.3629 57.8431 45.4429 57.8431C45.5228 57.8431 45.5882 57.8064 45.5882 57.7614C45.5882 57.7165 45.6618 57.6797 45.7516 57.6797C45.8415 57.6797 45.915 57.643 45.915 57.598C45.915 57.5531 45.9886 57.5163 46.0784 57.5163C46.1683 57.5163 46.2418 57.4796 46.2418 57.4346C46.2418 57.3897 46.3154 57.3529 46.4052 57.3529C46.4951 57.3529 46.5686 57.3162 46.5686 57.2712C46.5686 57.2263 46.6422 57.1895 46.732 57.1895C46.8219 57.1895 46.8954 57.1528 46.8954 57.1078C46.8954 57.0629 46.969 57.0261 47.0588 57.0261C47.1487 57.0261 47.2222 56.9894 47.2222 56.9444C47.2222 56.8995 47.2877 56.8627 47.3676 56.8627C47.4475 56.8627 47.5659 56.7892 47.6307 56.6993C47.6955 56.6095 47.8139 56.5359 47.8939 56.5359C47.9738 56.5359 48.0392 56.4992 48.0392 56.4543C48.0392 56.4093 48.1047 56.3726 48.1846 56.3726C48.2645 56.3726 48.3829 56.299 48.4477 56.2092C48.5125 56.1193 48.6309 56.0458 48.7109 56.0458C48.7908 56.0458 48.8562 56.009 48.8562 55.9641C48.8562 55.9191 48.9297 55.8824 49.0196 55.8824C49.1095 55.8824 49.183 55.8456 49.183 55.8007C49.183 55.7557 49.2565 55.719 49.3464 55.719C49.4363 55.719 49.5098 55.6822 49.5098 55.6373C49.5098 55.5923 49.5833 55.5556 49.6732 55.5556C49.7631 55.5556 49.8366 55.5188 49.8366 55.4739C49.8366 55.4289 49.9101 55.3922 50 55.3922C50.0899 55.3922 50.1634 55.3554 50.1634 55.3105C50.1634 55.2655 50.2369 55.2288 50.3268 55.2288C50.4167 55.2288 50.4902 55.192 50.4902 55.1471C50.4902 55.1021 50.5637 55.0654 50.6536 55.0654C50.7435 55.0654 50.817 55.0286 50.817 54.9837C50.817 54.9387 50.8905 54.902 50.9804 54.902C51.0703 54.902 51.1438 54.8652 51.1438 54.8203C51.1438 54.7753 51.2092 54.7386 51.2891 54.7386C51.3691 54.7386 51.4875 54.665 51.5523 54.5752C51.6171 54.4853 51.7355 54.4118 51.8154 54.4118C51.8953 54.4118 51.9608 54.375 51.9608 54.3301C51.9608 54.2851 52.0343 54.2484 52.1242 54.2484C52.2141 54.2484 52.2876 54.2116 52.2876 54.1667C52.2876 54.1217 52.3611 54.085 52.451 54.085C52.5409 54.085 52.6144 54.0482 52.6144 54.0033C52.6144 53.9583 52.6798 53.9216 52.7597 53.9216C52.8397 53.9216 52.9581 53.848 53.0229 53.7582C53.0877 53.6683 53.206 53.5948 53.286 53.5948C53.3659 53.5948 53.4314 53.558 53.4314 53.5131C53.4314 53.4681 53.5049 53.4314 53.5948 53.4314C53.6846 53.4314 53.7582 53.3946 53.7582 53.3497C53.7582 53.3047 53.8317 53.268 53.9216 53.268C54.0114 53.268 54.085 53.2312 54.085 53.1863C54.085 53.1413 54.1504 53.1046 54.2303 53.1046C54.3103 53.1046 54.4287 53.031 54.4935 52.9412C54.5583 52.8513 54.6766 52.7778 54.7566 52.7778C54.8365 52.7778 54.902 52.741 54.902 52.6961C54.902 52.6511 54.9755 52.6144 55.0654 52.6144C55.1552 52.6144 55.2288 52.5776 55.2288 52.5327C55.2288 52.4877 55.3023 52.451 55.3922 52.451C55.482 52.451 55.5556 52.4142 55.5556 52.3693C55.5556 52.3243 55.6291 52.2876 55.719 52.2876C55.8088 52.2876 55.8824 52.2508 55.8824 52.2059C55.8824 52.1609 55.9559 52.1242 56.0458 52.1242C56.1356 52.1242 56.2092 52.0874 56.2092 52.0425C56.2092 51.9976 56.2827 51.9608 56.3726 51.9608C56.4624 51.9608 56.5359 51.924 56.5359 51.8791C56.5359 51.8342 56.6095 51.7974 56.6993 51.7974C56.7892 51.7974 56.8627 51.7606 56.8627 51.7157C56.8627 51.6708 56.9282 51.634 57.0081 51.634C57.0881 51.634 57.2065 51.5605 57.2712 51.4706C57.3362 51.3805 57.4828 51.3072 57.598 51.3072C57.7133 51.3072 57.8599 51.2339 57.9248 51.1438C57.9896 51.0539 58.108 50.9804 58.188 50.9804C58.2679 50.9804 58.3333 50.9436 58.3333 50.8987C58.3333 50.8538 58.3988 50.817 58.4787 50.817C58.5587 50.817 58.677 50.7435 58.7418 50.6536C58.8066 50.5637 58.925 50.4902 59.005 50.4902C59.0849 50.4902 59.1503 50.4534 59.1503 50.4085C59.1503 50.3636 59.2239 50.3268 59.3137 50.3268C59.4036 50.3268 59.4771 50.29 59.4771 50.2451C59.4771 50.2002 59.5507 50.1634 59.6405 50.1634C59.7304 50.1634 59.8039 50.1266 59.8039 50.0817C59.8039 50.0368 59.8775 50 59.9673 50C60.0572 50 60.1307 49.9632 60.1307 49.9183C60.1307 49.8734 60.1885 49.8366 60.2591 49.8366C60.3297 49.8366 60.4422 49.782 60.509 49.7151C60.6165 49.6076 60.6069 49.57 60.4252 49.3883C60.3123 49.2754 60.1262 49.183 60.0118 49.183C59.8975 49.183 59.8039 49.1462 59.8039 49.1013C59.8039 49.0564 59.7304 49.0196 59.6405 49.0196C59.5507 49.0196 59.4771 48.9828 59.4771 48.9379C59.4771 48.893 59.4117 48.8562 59.3318 48.8562C59.2518 48.8562 59.1334 48.7827 59.0686 48.6928C59.0038 48.6029 58.8855 48.5294 58.8055 48.5294C58.7256 48.5294 58.6601 48.4926 58.6601 48.4477C58.6601 48.4028 58.5866 48.366 58.4967 48.366C58.4069 48.366 58.3333 48.3292 58.3333 48.2843C58.3333 48.2394 58.2598 48.2026 58.1699 48.2026C58.0801 48.2026 58.0065 48.1659 58.0065 48.1209C58.0065 48.076 57.933 48.0392 57.8431 48.0392C57.7533 48.0392 57.6797 48.0025 57.6797 47.9575C57.6797 47.9126 57.6062 47.8758 57.5163 47.8758C57.4265 47.8758 57.3529 47.8391 57.3529 47.7941C57.3529 47.7492 57.2875 47.7124 57.2076 47.7124C57.1276 47.7124 57.0092 47.6389 56.9444 47.549C56.8795 47.4589 56.7329 47.3856 56.6176 47.3856C56.5024 47.3856 56.3558 47.3123 56.2909 47.2222C56.2217 47.1263 56.0793 47.0588 55.946 47.0588C55.8212 47.0588 55.719 47.0221 55.719 46.9771C55.719 46.9322 55.6454 46.8954 55.5556 46.8954C55.4657 46.8954 55.3922 46.8587 55.3922 46.8137C55.3922 46.7688 55.3186 46.732 55.2288 46.732C55.1389 46.732 55.0654 46.6953 55.0654 46.6503C55.0654 46.6054 54.9999 46.5686 54.92 46.5686C54.84 46.5686 54.7217 46.4951 54.6569 46.4052C54.5921 46.3154 54.4737 46.2418 54.3937 46.2418C54.3138 46.2418 54.2484 46.2051 54.2484 46.1601C54.2484 46.1152 54.1748 46.0784 54.085 46.0784C53.9951 46.0784 53.9216 46.0417 53.9216 45.9967C53.9216 45.9518 53.848 45.915 53.7582 45.915C53.6683 45.915 53.5948 45.8783 53.5948 45.8333C53.5948 45.7884 53.5212 45.7516 53.4314 45.7516C53.3415 45.7516 53.268 45.7149 53.268 45.6699C53.268 45.625 53.1944 45.5882 53.1046 45.5882C53.0147 45.5882 52.9412 45.5515 52.9412 45.5065C52.9412 45.4616 52.8676 45.4248 52.7778 45.4248C52.6879 45.4248 52.6144 45.3881 52.6144 45.3431C52.6144 45.2982 52.5409 45.2614 52.451 45.2614C52.3611 45.2614 52.2876 45.2247 52.2876 45.1797C52.2876 45.1348 52.2141 45.098 52.1242 45.098C52.0343 45.098 51.9608 45.0613 51.9608 45.0163C51.9608 44.9714 51.8953 44.9346 51.8154 44.9346C51.7355 44.9346 51.6171 44.8611 51.5523 44.7712C51.4875 44.6814 51.3691 44.6078 51.2891 44.6078C51.2092 44.6078 51.1438 44.5711 51.1438 44.5261C51.1438 44.4812 51.0703 44.4444 50.9804 44.4444C50.8905 44.4444 50.817 44.4077 50.817 44.3627C50.817 44.3178 50.7435 44.281 50.6536 44.281C50.5637 44.281 50.4902 44.2443 50.4902 44.1993C50.4902 44.1544 50.4167 44.1176 50.3268 44.1176C50.2369 44.1176 50.1634 44.0809 50.1634 44.0359C50.1634 43.991 50.0899 43.9542 50 43.9542C49.9101 43.9542 49.8366 43.9175 49.8366 43.8726C49.8366 43.8276 49.7631 43.7909 49.6732 43.7909C49.5833 43.7909 49.5098 43.7541 49.5098 43.7092C49.5098 43.6642 49.4363 43.6275 49.3464 43.6275C49.2565 43.6275 49.183 43.5907 49.183 43.5458C49.183 43.5008 49.1095 43.4641 49.0196 43.4641C48.9297 43.4641 48.8562 43.4273 48.8562 43.3824C48.8562 43.3374 48.7827 43.3007 48.6928 43.3007C48.6029 43.3007 48.5294 43.2639 48.5294 43.219C48.5294 43.174 48.4559 43.1373 48.366 43.1373C48.2761 43.1373 48.2026 43.1005 48.2026 43.0556C48.2026 43.0106 48.1291 42.9739 48.0392 42.9739C47.9493 42.9739 47.8758 42.9371 47.8758 42.8922C47.8758 42.8472 47.8023 42.8105 47.7124 42.8105C47.6226 42.8105 47.549 42.7737 47.549 42.7288C47.549 42.6838 47.4755 42.6471 47.3856 42.6471C47.2958 42.6471 47.2222 42.6103 47.2222 42.5654C47.2222 42.5204 47.1568 42.4837 47.0769 42.4837C46.9969 42.4837 46.8785 42.4101 46.8137 42.3203C46.7489 42.2304 46.6306 42.1569 46.5506 42.1569C46.4707 42.1569 46.4052 42.1201 46.4052 42.0752C46.4052 42.0302 46.3317 41.9935 46.2418 41.9935C46.152 41.9935 46.0784 41.9567 46.0784 41.9118C46.0784 41.8668 46.0049 41.8301 45.915 41.8301C45.8252 41.8301 45.7516 41.7933 45.7516 41.7484C45.7516 41.7034 45.6781 41.6667 45.5882 41.6667C45.4984 41.6667 45.4248 41.6299 45.4248 41.585C45.4248 41.54 45.3513 41.5033 45.2614 41.5033C45.1716 41.5033 45.098 41.4665 45.098 41.4216C45.098 41.3766 45.0245 41.3399 44.9346 41.3399C44.8448 41.3399 44.7712 41.3031 44.7712 41.2582C44.7712 41.2132 44.6977 41.1765 44.6078 41.1765C44.518 41.1765 44.4444 41.1397 44.4444 41.0948C44.4444 41.0498 44.379 41.0131 44.2991 41.0131C44.2191 41.0131 44.1007 40.9395 44.0359 40.8497C43.9712 40.7598 43.8528 40.6863 43.7728 40.6863C43.6929 40.6863 43.6275 40.6495 43.6275 40.6046C43.6275 40.4833 43.3569 40.5115 43.2394 40.6451Z" fill="#602B7A"></path> </svg> 